<svg id="visual" viewBox="0 0 900 600" width="900" height="600" xmlns="http://www.w3.org/2000/svg" xmlns:xlink="http://www.w3.org/1999/xlink" version="1.1"><rect x="0" y="0" width="900" height="600" fill="#242424"></rect><path d="M0 59L6.5 61.2C13 63.3 26 67.7 39 72.3C52 77 65 82 78 80.5C91 79 104 71 117.2 68.7C130.3 66.3 143.7 69.7 156.8 72.2C170 74.7 183 76.3 196 79.8C209 83.3 222 88.7 235 91.5C248 94.3 261 94.7 274 89.3C287 84 300 73 313 68.5C326 64 339 66 352 68.7C365 71.3 378 74.7 391 73.3C404 72 417 66 430.2 68.5C443.3 71 456.7 82 469.8 85.5C483 89 496 85 509 80.3C522 75.7 535 70.3 548 70.5C561 70.7 574 76.3 587 77.8C600 79.3 613 76.7 626 76C639 75.3 652 76.7 665 78C678 79.3 691 80.7 704 80.2C717 79.7 730 77.3 743.2 77C756.3 76.7 769.7 78.3 782.8 80.7C796 83 809 86 822 83C835 80 848 71 861 69C874 67 887 72 893.5 74.5L900 77L900 0L893.5 0C887 0 874 0 861 0C848 0 835 0 822 0C809 0 796 0 782.8 0C769.7 0 756.3 0 743.2 0C730 0 717 0 704 0C691 0 678 0 665 0C652 0 639 0 626 0C613 0 600 0 587 0C574 0 561 0 548 0C535 0 522 0 509 0C496 0 483 0 469.8 0C456.7 0 443.3 0 430.2 0C417 0 404 0 391 0C378 0 365 0 352 0C339 0 326 0 313 0C300 0 287 0 274 0C261 0 248 0 235 0C222 0 209 0 196 0C183 0 170 0 156.8 0C143.7 0 130.3 0 117.2 0C104 0 91 0 78 0C65 0 52 0 39 0C26 0 13 0 6.5 0L0 0Z" fill="#fa7268"></path><path d="M0 54L6.5 57.2C13 60.3 26 66.7 39 67.8C52 69 65 65 78 64.5C91 64 104 67 117.2 68.3C130.3 69.7 143.7 69.3 156.8 69.7C170 70 183 71 196 73.7C209 76.3 222 80.7 235 79C248 77.3 261 69.7 274 68.2C287 66.7 300 71.3 313 69.8C326 68.3 339 60.7 352 60.2C365 59.7 378 66.3 391 72C404 77.7 417 82.3 430.2 84.3C443.3 86.3 456.7 85.7 469.8 82C483 78.3 496 71.7 509 71.5C522 71.3 535 77.7 548 77C561 76.3 574 68.7 587 63.5C600 58.3 613 55.7 626 54.3C639 53 652 53 665 55.2C678 57.3 691 61.7 704 63.8C717 66 730 66 743.2 66C756.3 66 769.7 66 782.8 65.2C796 64.3 809 62.7 822 63.7C835 64.7 848 68.3 861 67.7C874 67 887 62 893.5 59.5L900 57L900 0L893.5 0C887 0 874 0 861 0C848 0 835 0 822 0C809 0 796 0 782.8 0C769.7 0 756.3 0 743.2 0C730 0 717 0 704 0C691 0 678 0 665 0C652 0 639 0 626 0C613 0 600 0 587 0C574 0 561 0 548 0C535 0 522 0 509 0C496 0 483 0 469.8 0C456.7 0 443.3 0 430.2 0C417 0 404 0 391 0C378 0 365 0 352 0C339 0 326 0 313 0C300 0 287 0 274 0C261 0 248 0 235 0C222 0 209 0 196 0C183 0 170 0 156.8 0C143.7 0 130.3 0 117.2 0C104 0 91 0 78 0C65 0 52 0 39 0C26 0 13 0 6.5 0L0 0Z" fill="#f46767"></path><path d="M0 71L6.5 68.8C13 66.7 26 62.3 39 59.7C52 57 65 56 78 58.2C91 60.3 104 65.7 117.2 63.7C130.3 61.7 143.7 52.3 156.8 51.2C170 50 183 57 196 62.2C209 67.3 222 70.7 235 71C248 71.3 261 68.7 274 65.3C287 62 300 58 313 57.2C326 56.3 339 58.7 352 58.8C365 59 378 57 391 59.2C404 61.3 417 67.7 430.2 67.5C443.3 67.3 456.7 60.7 469.8 56.7C483 52.7 496 51.3 509 51.2C522 51 535 52 548 54.7C561 57.3 574 61.7 587 61.2C600 60.7 613 55.3 626 54.7C639 54 652 58 665 59C678 60 691 58 704 59.8C717 61.7 730 67.3 743.2 69.8C756.3 72.3 769.7 71.7 782.8 71.7C796 71.7 809 72.3 822 73.2C835 74 848 75 861 73C874 71 887 66 893.5 63.5L900 61L900 0L893.5 0C887 0 874 0 861 0C848 0 835 0 822 0C809 0 796 0 782.8 0C769.7 0 756.3 0 743.2 0C730 0 717 0 704 0C691 0 678 0 665 0C652 0 639 0 626 0C613 0 600 0 587 0C574 0 561 0 548 0C535 0 522 0 509 0C496 0 483 0 469.8 0C456.7 0 443.3 0 430.2 0C417 0 404 0 391 0C378 0 365 0 352 0C339 0 326 0 313 0C300 0 287 0 274 0C261 0 248 0 235 0C222 0 209 0 196 0C183 0 170 0 156.8 0C143.7 0 130.3 0 117.2 0C104 0 91 0 78 0C65 0 52 0 39 0C26 0 13 0 6.5 0L0 0Z" fill="#ee5c67"></path><path d="M0 54L6.5 51.8C13 49.7 26 45.3 39 46.2C52 47 65 53 78 55C91 57 104 55 117.2 51.5C130.3 48 143.7 43 156.8 41.7C170 40.3 183 42.7 196 44.5C209 46.3 222 47.7 235 49.5C248 51.3 261 53.7 274 53.8C287 54 300 52 313 52C326 52 339 54 352 54.3C365 54.7 378 53.3 391 50.7C404 48 417 44 430.2 45.5C443.3 47 456.7 54 469.8 55.3C483 56.7 496 52.3 509 49.5C522 46.7 535 45.3 548 46.3C561 47.3 574 50.7 587 51.5C600 52.3 613 50.7 626 50.5C639 50.3 652 51.7 665 50.2C678 48.7 691 44.3 704 43.2C717 42 730 44 743.2 47.3C756.3 50.7 769.7 55.3 782.8 54.2C796 53 809 46 822 44.3C835 42.7 848 46.3 861 47.8C874 49.3 887 48.7 893.5 48.3L900 48L900 0L893.5 0C887 0 874 0 861 0C848 0 835 0 822 0C809 0 796 0 782.8 0C769.7 0 756.3 0 743.2 0C730 0 717 0 704 0C691 0 678 0 665 0C652 0 639 0 626 0C613 0 600 0 587 0C574 0 561 0 548 0C535 0 522 0 509 0C496 0 483 0 469.8 0C456.7 0 443.3 0 430.2 0C417 0 404 0 391 0C378 0 365 0 352 0C339 0 326 0 313 0C300 0 287 0 274 0C261 0 248 0 235 0C222 0 209 0 196 0C183 0 170 0 156.8 0C143.7 0 130.3 0 117.2 0C104 0 91 0 78 0C65 0 52 0 39 0C26 0 13 0 6.5 0L0 0Z" fill="#e75167"></path><path d="M0 29L6.5 32.7C13 36.3 26 43.7 39 44.8C52 46 65 41 78 39.5C91 38 104 40 117.2 39.3C130.3 38.7 143.7 35.3 156.8 36C170 36.7 183 41.3 196 44C209 46.7 222 47.3 235 45.2C248 43 261 38 274 35.7C287 33.3 300 33.7 313 34.8C326 36 339 38 352 40.2C365 42.3 378 44.7 391 43.8C404 43 417 39 430.2 37.7C443.3 36.3 456.7 37.7 469.8 38.8C483 40 496 41 509 40.2C522 39.3 535 36.7 548 35.5C561 34.3 574 34.7 587 37C600 39.3 613 43.7 626 44.5C639 45.3 652 42.7 665 39.5C678 36.3 691 32.7 704 34.7C717 36.7 730 44.3 743.2 47.7C756.3 51 769.7 50 782.8 46.5C796 43 809 37 822 35.2C835 33.3 848 35.7 861 38.7C874 41.7 887 45.3 893.5 47.2L900 49L900 0L893.5 0C887 0 874 0 861 0C848 0 835 0 822 0C809 0 796 0 782.8 0C769.7 0 756.3 0 743.2 0C730 0 717 0 704 0C691 0 678 0 665 0C652 0 639 0 626 0C613 0 600 0 587 0C574 0 561 0 548 0C535 0 522 0 509 0C496 0 483 0 469.8 0C456.7 0 443.3 0 430.2 0C417 0 404 0 391 0C378 0 365 0 352 0C339 0 326 0 313 0C300 0 287 0 274 0C261 0 248 0 235 0C222 0 209 0 196 0C183 0 170 0 156.8 0C143.7 0 130.3 0 117.2 0C104 0 91 0 78 0C65 0 52 0 39 0C26 0 13 0 6.5 0L0 0Z" fill="#df4667"></path><path d="M0 41L6.5 40.2C13 39.3 26 37.7 39 35.2C52 32.7 65 29.3 78 27.5C91 25.7 104 25.3 117.2 25.5C130.3 25.7 143.7 26.3 156.8 27.8C170 29.3 183 31.7 196 33.2C209 34.7 222 35.3 235 33.7C248 32 261 28 274 26.2C287 24.3 300 24.7 313 26.7C326 28.7 339 32.3 352 34.7C365 37 378 38 391 36C404 34 417 29 430.2 26.7C443.3 24.3 456.7 24.7 469.8 26.7C483 28.7 496 32.3 509 31.5C522 30.7 535 25.3 548 25.8C561 26.3 574 32.7 587 33.7C600 34.7 613 30.3 626 29.8C639 29.3 652 32.7 665 35.2C678 37.7 691 39.3 704 39.3C717 39.3 730 37.7 743.2 34.5C756.3 31.3 769.7 26.7 782.8 24.3C796 22 809 22 822 24C835 26 848 30 861 30C874 30 887 26 893.5 24L900 22L900 0L893.5 0C887 0 874 0 861 0C848 0 835 0 822 0C809 0 796 0 782.8 0C769.7 0 756.3 0 743.2 0C730 0 717 0 704 0C691 0 678 0 665 0C652 0 639 0 626 0C613 0 600 0 587 0C574 0 561 0 548 0C535 0 522 0 509 0C496 0 483 0 469.8 0C456.7 0 443.3 0 430.2 0C417 0 404 0 391 0C378 0 365 0 352 0C339 0 326 0 313 0C300 0 287 0 274 0C261 0 248 0 235 0C222 0 209 0 196 0C183 0 170 0 156.8 0C143.7 0 130.3 0 117.2 0C104 0 91 0 78 0C65 0 52 0 39 0C26 0 13 0 6.5 0L0 0Z" fill="#d73b67"></path><path d="M0 13L6.5 13.7C13 14.3 26 15.7 39 16.5C52 17.3 65 17.7 78 17.2C91 16.7 104 15.3 117.2 17C130.3 18.7 143.7 23.3 156.8 24.3C170 25.3 183 22.7 196 20.3C209 18 222 16 235 17.7C248 19.3 261 24.7 274 25.8C287 27 300 24 313 22.8C326 21.7 339 22.3 352 22.2C365 22 378 21 391 21.5C404 22 417 24 430.2 25.5C443.3 27 456.7 28 469.8 26.2C483 24.3 496 19.7 509 18.2C522 16.7 535 18.3 548 19.5C561 20.7 574 21.3 587 21C600 20.7 613 19.3 626 19.8C639 20.3 652 22.7 665 22.7C678 22.7 691 20.3 704 20.8C717 21.3 730 24.7 743.2 26.2C756.3 27.7 769.7 27.3 782.8 26C796 24.7 809 22.3 822 21.8C835 21.3 848 22.7 861 23.2C874 23.7 887 23.3 893.5 23.2L900 23L900 0L893.5 0C887 0 874 0 861 0C848 0 835 0 822 0C809 0 796 0 782.8 0C769.7 0 756.3 0 743.2 0C730 0 717 0 704 0C691 0 678 0 665 0C652 0 639 0 626 0C613 0 600 0 587 0C574 0 561 0 548 0C535 0 522 0 509 0C496 0 483 0 469.8 0C456.7 0 443.3 0 430.2 0C417 0 404 0 391 0C378 0 365 0 352 0C339 0 326 0 313 0C300 0 287 0 274 0C261 0 248 0 235 0C222 0 209 0 196 0C183 0 170 0 156.8 0C143.7 0 130.3 0 117.2 0C104 0 91 0 78 0C65 0 52 0 39 0C26 0 13 0 6.5 0L0 0Z" fill="#cf3068"></path><path d="M0 17L6.5 15.5C13 14 26 11 39 10C52 9 65 10 78 11.2C91 12.3 104 13.7 117.2 13.8C130.3 14 143.7 13 156.8 12.7C170 12.3 183 12.7 196 12.2C209 11.7 222 10.3 235 11.2C248 12 261 15 274 15.5C287 16 300 14 313 13.2C326 12.3 339 12.7 352 13.3C365 14 378 15 391 14.8C404 14.7 417 13.3 430.2 12.3C443.3 11.3 456.7 10.7 469.8 10.2C483 9.7 496 9.3 509 9.8C522 10.3 535 11.7 548 11.7C561 11.7 574 10.3 587 10.2C600 10 613 11 626 10.8C639 10.7 652 9.3 665 9C678 8.7 691 9.3 704 9.3C717 9.3 730 8.7 743.2 9.8C756.3 11 769.7 14 782.8 15.5C796 17 809 17 822 16.5C835 16 848 15 861 13.8C874 12.7 887 11.3 893.5 10.7L900 10L900 0L893.5 0C887 0 874 0 861 0C848 0 835 0 822 0C809 0 796 0 782.8 0C769.7 0 756.3 0 743.2 0C730 0 717 0 704 0C691 0 678 0 665 0C652 0 639 0 626 0C613 0 600 0 587 0C574 0 561 0 548 0C535 0 522 0 509 0C496 0 483 0 469.8 0C456.7 0 443.3 0 430.2 0C417 0 404 0 391 0C378 0 365 0 352 0C339 0 326 0 313 0C300 0 287 0 274 0C261 0 248 0 235 0C222 0 209 0 196 0C183 0 170 0 156.8 0C143.7 0 130.3 0 117.2 0C104 0 91 0 78 0C65 0 52 0 39 0C26 0 13 0 6.5 0L0 0Z" fill="#c62368"></path></svg>
