<svg id="visual1" viewBox="0 0 900 600" width="900" height="600" xmlns="http://www.w3.org/2000/svg" xmlns:xlink="http://www.w3.org/1999/xlink" version="1.1"><rect x="0" y="0" width="900" height="600" fill="#242424"></rect><path d="M0 60L6.5 64.3C13 68.7 26 77.3 39 81.7C52 86 65 86 78 86.8C91 87.7 104 89.3 117.2 85.7C130.3 82 143.7 73 156.8 71.7C170 70.3 183 76.7 196 80C209 83.3 222 83.7 235 81.3C248 79 261 74 274 75.5C287 77 300 85 313 86C326 87 339 81 352 75.5C365 70 378 65 391 66.2C404 67.3 417 74.7 430.2 77.8C443.3 81 456.7 80 469.8 79.2C483 78.3 496 77.7 509 74C522 70.3 535 63.7 548 64C561 64.3 574 71.7 587 76.3C600 81 613 83 626 85.5C639 88 652 91 665 92.3C678 93.7 691 93.3 704 90.8C717 88.3 730 83.7 743.2 79.8C756.3 76 769.7 73 782.8 74.8C796 76.7 809 83.3 822 82.8C835 82.3 848 74.7 861 72.7C874 70.7 887 74.3 893.5 76.2L900 78L900 0L893.5 0C887 0 874 0 861 0C848 0 835 0 822 0C809 0 796 0 782.8 0C769.7 0 756.3 0 743.2 0C730 0 717 0 704 0C691 0 678 0 665 0C652 0 639 0 626 0C613 0 600 0 587 0C574 0 561 0 548 0C535 0 522 0 509 0C496 0 483 0 469.8 0C456.7 0 443.3 0 430.2 0C417 0 404 0 391 0C378 0 365 0 352 0C339 0 326 0 313 0C300 0 287 0 274 0C261 0 248 0 235 0C222 0 209 0 196 0C183 0 170 0 156.8 0C143.7 0 130.3 0 117.2 0C104 0 91 0 78 0C65 0 52 0 39 0C26 0 13 0 6.5 0L0 0Z" fill="#fa7268"></path><path d="M0 68L6.5 67C13 66 26 64 39 66.5C52 69 65 76 78 76.3C91 76.7 104 70.3 117.2 68C130.3 65.7 143.7 67.3 156.8 67.7C170 68 183 67 196 67.5C209 68 222 70 235 68.7C248 67.3 261 62.7 274 62.8C287 63 300 68 313 66.8C326 65.7 339 58.3 352 59.8C365 61.3 378 71.7 391 72.3C404 73 417 64 430.2 58.8C443.3 53.7 456.7 52.3 469.8 55.5C483 58.7 496 66.3 509 70.7C522 75 535 76 548 75.2C561 74.3 574 71.7 587 69.5C600 67.3 613 65.7 626 65.2C639 64.7 652 65.3 665 64C678 62.7 691 59.3 704 61.5C717 63.7 730 71.3 743.2 70.8C756.3 70.3 769.7 61.7 782.8 61.7C796 61.7 809 70.3 822 74C835 77.7 848 76.3 861 76.2C874 76 887 77 893.5 77.5L900 78L900 0L893.5 0C887 0 874 0 861 0C848 0 835 0 822 0C809 0 796 0 782.8 0C769.7 0 756.3 0 743.2 0C730 0 717 0 704 0C691 0 678 0 665 0C652 0 639 0 626 0C613 0 600 0 587 0C574 0 561 0 548 0C535 0 522 0 509 0C496 0 483 0 469.8 0C456.7 0 443.3 0 430.2 0C417 0 404 0 391 0C378 0 365 0 352 0C339 0 326 0 313 0C300 0 287 0 274 0C261 0 248 0 235 0C222 0 209 0 196 0C183 0 170 0 156.8 0C143.7 0 130.3 0 117.2 0C104 0 91 0 78 0C65 0 52 0 39 0C26 0 13 0 6.5 0L0 0Z" fill="#f46767"></path><path d="M0 70L6.5 66.8C13 63.7 26 57.3 39 56C52 54.7 65 58.3 78 57.8C91 57.3 104 52.7 117.2 54.7C130.3 56.7 143.7 65.3 156.8 66C170 66.7 183 59.3 196 56.3C209 53.3 222 54.7 235 57.2C248 59.7 261 63.3 274 65C287 66.7 300 66.3 313 65.2C326 64 339 62 352 59.2C365 56.3 378 52.7 391 49.8C404 47 417 45 430.2 45.3C443.3 45.7 456.7 48.3 469.8 51C483 53.7 496 56.3 509 54.8C522 53.3 535 47.7 548 48.2C561 48.7 574 55.3 587 59.2C600 63 613 64 626 64C639 64 652 63 665 63.2C678 63.3 691 64.7 704 61.7C717 58.7 730 51.3 743.2 52.2C756.3 53 769.7 62 782.8 66.3C796 70.7 809 70.3 822 69.2C835 68 848 66 861 61.5C874 57 887 50 893.5 46.5L900 43L900 0L893.5 0C887 0 874 0 861 0C848 0 835 0 822 0C809 0 796 0 782.8 0C769.7 0 756.3 0 743.2 0C730 0 717 0 704 0C691 0 678 0 665 0C652 0 639 0 626 0C613 0 600 0 587 0C574 0 561 0 548 0C535 0 522 0 509 0C496 0 483 0 469.8 0C456.7 0 443.3 0 430.2 0C417 0 404 0 391 0C378 0 365 0 352 0C339 0 326 0 313 0C300 0 287 0 274 0C261 0 248 0 235 0C222 0 209 0 196 0C183 0 170 0 156.8 0C143.7 0 130.3 0 117.2 0C104 0 91 0 78 0C65 0 52 0 39 0C26 0 13 0 6.5 0L0 0Z" fill="#ee5c67"></path><path d="M0 53L6.5 54.3C13 55.7 26 58.3 39 57.8C52 57.3 65 53.7 78 52C91 50.3 104 50.7 117.2 51.3C130.3 52 143.7 53 156.8 52C170 51 183 48 196 49.2C209 50.3 222 55.7 235 58C248 60.3 261 59.7 274 58.8C287 58 300 57 313 55.7C326 54.3 339 52.7 352 51.8C365 51 378 51 391 50.5C404 50 417 49 430.2 50.8C443.3 52.7 456.7 57.3 469.8 55.8C483 54.3 496 46.7 509 44.8C522 43 535 47 548 46.5C561 46 574 41 587 40.8C600 40.7 613 45.3 626 45.8C639 46.3 652 42.7 665 40.5C678 38.3 691 37.7 704 41.3C717 45 730 53 743.2 52.8C756.3 52.7 769.7 44.3 782.8 41.7C796 39 809 42 822 46C835 50 848 55 861 54.5C874 54 887 48 893.5 45L900 42L900 0L893.5 0C887 0 874 0 861 0C848 0 835 0 822 0C809 0 796 0 782.8 0C769.7 0 756.3 0 743.2 0C730 0 717 0 704 0C691 0 678 0 665 0C652 0 639 0 626 0C613 0 600 0 587 0C574 0 561 0 548 0C535 0 522 0 509 0C496 0 483 0 469.8 0C456.7 0 443.3 0 430.2 0C417 0 404 0 391 0C378 0 365 0 352 0C339 0 326 0 313 0C300 0 287 0 274 0C261 0 248 0 235 0C222 0 209 0 196 0C183 0 170 0 156.8 0C143.7 0 130.3 0 117.2 0C104 0 91 0 78 0C65 0 52 0 39 0C26 0 13 0 6.5 0L0 0Z" fill="#e75167"></path><path d="M0 39L6.5 38C13 37 26 35 39 35.7C52 36.3 65 39.7 78 40.7C91 41.7 104 40.3 117.2 38.8C130.3 37.3 143.7 35.7 156.8 36.8C170 38 183 42 196 42.5C209 43 222 40 235 37.2C248 34.3 261 31.7 274 31.3C287 31 300 33 313 33.3C326 33.7 339 32.3 352 32.7C365 33 378 35 391 37.7C404 40.3 417 43.7 430.2 42.2C443.3 40.7 456.7 34.3 469.8 32.8C483 31.3 496 34.7 509 37.2C522 39.7 535 41.3 548 39.7C561 38 574 33 587 33.5C600 34 613 40 626 40.7C639 41.3 652 36.7 665 36.2C678 35.7 691 39.3 704 40C717 40.7 730 38.3 743.2 39.2C756.3 40 769.7 44 782.8 44.2C796 44.3 809 40.7 822 40.3C835 40 848 43 861 42C874 41 887 36 893.5 33.5L900 31L900 0L893.5 0C887 0 874 0 861 0C848 0 835 0 822 0C809 0 796 0 782.8 0C769.7 0 756.3 0 743.2 0C730 0 717 0 704 0C691 0 678 0 665 0C652 0 639 0 626 0C613 0 600 0 587 0C574 0 561 0 548 0C535 0 522 0 509 0C496 0 483 0 469.8 0C456.7 0 443.3 0 430.2 0C417 0 404 0 391 0C378 0 365 0 352 0C339 0 326 0 313 0C300 0 287 0 274 0C261 0 248 0 235 0C222 0 209 0 196 0C183 0 170 0 156.8 0C143.7 0 130.3 0 117.2 0C104 0 91 0 78 0C65 0 52 0 39 0C26 0 13 0 6.5 0L0 0Z" fill="#df4667"></path><path d="M0 26L6.5 26.7C13 27.3 26 28.7 39 31.2C52 33.7 65 37.3 78 37.7C91 38 104 35 117.2 31.8C130.3 28.7 143.7 25.3 156.8 23.8C170 22.3 183 22.7 196 25C209 27.3 222 31.7 235 34.3C248 37 261 38 274 35.8C287 33.7 300 28.3 313 27.5C326 26.7 339 30.3 352 32.2C365 34 378 34 391 31.8C404 29.7 417 25.3 430.2 25.7C443.3 26 456.7 31 469.8 32.2C483 33.3 496 30.7 509 30.3C522 30 535 32 548 34C561 36 574 38 587 37.5C600 37 613 34 626 31.8C639 29.7 652 28.3 665 29.2C678 30 691 33 704 32C717 31 730 26 743.2 24.7C756.3 23.3 769.7 25.7 782.8 28.2C796 30.7 809 33.3 822 34C835 34.7 848 33.3 861 34C874 34.7 887 37.3 893.5 38.7L900 40L900 0L893.5 0C887 0 874 0 861 0C848 0 835 0 822 0C809 0 796 0 782.8 0C769.7 0 756.3 0 743.2 0C730 0 717 0 704 0C691 0 678 0 665 0C652 0 639 0 626 0C613 0 600 0 587 0C574 0 561 0 548 0C535 0 522 0 509 0C496 0 483 0 469.8 0C456.7 0 443.3 0 430.2 0C417 0 404 0 391 0C378 0 365 0 352 0C339 0 326 0 313 0C300 0 287 0 274 0C261 0 248 0 235 0C222 0 209 0 196 0C183 0 170 0 156.8 0C143.7 0 130.3 0 117.2 0C104 0 91 0 78 0C65 0 52 0 39 0C26 0 13 0 6.5 0L0 0Z" fill="#d73b67"></path><path d="M0 17L6.5 17.5C13 18 26 19 39 20.2C52 21.3 65 22.7 78 22.3C91 22 104 20 117.2 19.8C130.3 19.7 143.7 21.3 156.8 21.3C170 21.3 183 19.7 196 20.7C209 21.7 222 25.3 235 27C248 28.7 261 28.3 274 27.7C287 27 300 26 313 24.8C326 23.7 339 22.3 352 21.5C365 20.7 378 20.3 391 21.8C404 23.3 417 26.7 430.2 28.3C443.3 30 456.7 30 469.8 29.7C483 29.3 496 28.7 509 28.2C522 27.7 535 27.3 548 25.8C561 24.3 574 21.7 587 20.2C600 18.7 613 18.3 626 19.2C639 20 652 22 665 23.5C678 25 691 26 704 25.8C717 25.7 730 24.3 743.2 22.2C756.3 20 769.7 17 782.8 17.2C796 17.3 809 20.7 822 23.2C835 25.7 848 27.3 861 25.8C874 24.3 887 19.7 893.5 17.3L900 15L900 0L893.5 0C887 0 874 0 861 0C848 0 835 0 822 0C809 0 796 0 782.8 0C769.7 0 756.3 0 743.2 0C730 0 717 0 704 0C691 0 678 0 665 0C652 0 639 0 626 0C613 0 600 0 587 0C574 0 561 0 548 0C535 0 522 0 509 0C496 0 483 0 469.8 0C456.7 0 443.3 0 430.2 0C417 0 404 0 391 0C378 0 365 0 352 0C339 0 326 0 313 0C300 0 287 0 274 0C261 0 248 0 235 0C222 0 209 0 196 0C183 0 170 0 156.8 0C143.7 0 130.3 0 117.2 0C104 0 91 0 78 0C65 0 52 0 39 0C26 0 13 0 6.5 0L0 0Z" fill="#cf3068"></path><path d="M0 16L6.5 15C13 14 26 12 39 12.2C52 12.3 65 14.7 78 14C91 13.3 104 9.7 117.2 9.2C130.3 8.7 143.7 11.3 156.8 12.2C170 13 183 12 196 11C209 10 222 9 235 9.7C248 10.3 261 12.7 274 13.3C287 14 300 13 313 13.5C326 14 339 16 352 15.8C365 15.7 378 13.3 391 11.5C404 9.7 417 8.3 430.2 8.3C443.3 8.3 456.7 9.7 469.8 10.3C483 11 496 11 509 11.2C522 11.3 535 11.7 548 12.5C561 13.3 574 14.7 587 15.8C600 17 613 18 626 17.7C639 17.3 652 15.7 665 14C678 12.3 691 10.7 704 11C717 11.3 730 13.7 743.2 14.8C756.3 16 769.7 16 782.8 16.5C796 17 809 18 822 16.8C835 15.7 848 12.3 861 10.5C874 8.7 887 8.3 893.5 8.2L900 8L900 0L893.5 0C887 0 874 0 861 0C848 0 835 0 822 0C809 0 796 0 782.8 0C769.7 0 756.3 0 743.2 0C730 0 717 0 704 0C691 0 678 0 665 0C652 0 639 0 626 0C613 0 600 0 587 0C574 0 561 0 548 0C535 0 522 0 509 0C496 0 483 0 469.8 0C456.7 0 443.3 0 430.2 0C417 0 404 0 391 0C378 0 365 0 352 0C339 0 326 0 313 0C300 0 287 0 274 0C261 0 248 0 235 0C222 0 209 0 196 0C183 0 170 0 156.8 0C143.7 0 130.3 0 117.2 0C104 0 91 0 78 0C65 0 52 0 39 0C26 0 13 0 6.5 0L0 0Z" fill="#c62368"></path></svg>