<svg id="visual" viewBox="0 0 900 600" width="900" height="600" xmlns="http://www.w3.org/2000/svg" xmlns:xlink="http://www.w3.org/1999/xlink" version="1.1"><rect x="0" y="0" width="900" height="600" fill="#242424"></rect><path d="M0 91L6.5 86.2C13 81.3 26 71.7 39 70.7C52 69.7 65 77.3 78 82.5C91 87.7 104 90.3 117.2 88C130.3 85.7 143.7 78.3 156.8 75.5C170 72.7 183 74.3 196 75.2C209 76 222 76 235 73.3C248 70.7 261 65.3 274 67.7C287 70 300 80 313 80.3C326 80.7 339 71.3 352 67.8C365 64.3 378 66.7 391 72C404 77.3 417 85.7 430.2 85.5C443.3 85.3 456.7 76.7 469.8 71.5C483 66.3 496 64.7 509 63.7C522 62.7 535 62.3 548 64.2C561 66 574 70 587 70.7C600 71.3 613 68.7 626 68.2C639 67.7 652 69.3 665 69C678 68.7 691 66.3 704 68C717 69.7 730 75.3 743.2 74.7C756.3 74 769.7 67 782.8 64.8C796 62.7 809 65.3 822 69.8C835 74.3 848 80.7 861 84.7C874 88.7 887 90.3 893.5 91.2L900 92L900 0L893.5 0C887 0 874 0 861 0C848 0 835 0 822 0C809 0 796 0 782.8 0C769.7 0 756.3 0 743.2 0C730 0 717 0 704 0C691 0 678 0 665 0C652 0 639 0 626 0C613 0 600 0 587 0C574 0 561 0 548 0C535 0 522 0 509 0C496 0 483 0 469.8 0C456.7 0 443.3 0 430.2 0C417 0 404 0 391 0C378 0 365 0 352 0C339 0 326 0 313 0C300 0 287 0 274 0C261 0 248 0 235 0C222 0 209 0 196 0C183 0 170 0 156.8 0C143.7 0 130.3 0 117.2 0C104 0 91 0 78 0C65 0 52 0 39 0C26 0 13 0 6.5 0L0 0Z" fill="#fa7268"></path><path d="M0 79L6.5 77.3C13 75.7 26 72.3 39 69.5C52 66.7 65 64.3 78 66.7C91 69 104 76 117.2 77.8C130.3 79.7 143.7 76.3 156.8 77C170 77.7 183 82.3 196 79.3C209 76.3 222 65.7 235 65.5C248 65.3 261 75.7 274 78.2C287 80.7 300 75.3 313 74C326 72.7 339 75.3 352 74.7C365 74 378 70 391 66.2C404 62.3 417 58.7 430.2 58.7C443.3 58.7 456.7 62.3 469.8 66C483 69.7 496 73.3 509 75.7C522 78 535 79 548 79.8C561 80.7 574 81.3 587 78.5C600 75.7 613 69.3 626 69.7C639 70 652 77 665 76.8C678 76.7 691 69.3 704 65.5C717 61.7 730 61.3 743.2 63.2C756.3 65 769.7 69 782.8 71C796 73 809 73 822 72.5C835 72 848 71 861 71.8C874 72.7 887 75.3 893.5 76.7L900 78L900 0L893.5 0C887 0 874 0 861 0C848 0 835 0 822 0C809 0 796 0 782.8 0C769.7 0 756.3 0 743.2 0C730 0 717 0 704 0C691 0 678 0 665 0C652 0 639 0 626 0C613 0 600 0 587 0C574 0 561 0 548 0C535 0 522 0 509 0C496 0 483 0 469.8 0C456.7 0 443.3 0 430.2 0C417 0 404 0 391 0C378 0 365 0 352 0C339 0 326 0 313 0C300 0 287 0 274 0C261 0 248 0 235 0C222 0 209 0 196 0C183 0 170 0 156.8 0C143.7 0 130.3 0 117.2 0C104 0 91 0 78 0C65 0 52 0 39 0C26 0 13 0 6.5 0L0 0Z" fill="#f46767"></path><path d="M0 60L6.5 61C13 62 26 64 39 65C52 66 65 66 78 63.7C91 61.3 104 56.7 117.2 55.3C130.3 54 143.7 56 156.8 55.8C170 55.7 183 53.3 196 52C209 50.7 222 50.3 235 54.5C248 58.7 261 67.3 274 68C287 68.7 300 61.3 313 57.7C326 54 339 54 352 55.2C365 56.3 378 58.7 391 57.8C404 57 417 53 430.2 52.5C443.3 52 456.7 55 469.8 55.7C483 56.3 496 54.7 509 56.8C522 59 535 65 548 66.2C561 67.3 574 63.7 587 59C600 54.3 613 48.7 626 51C639 53.3 652 63.7 665 67C678 70.3 691 66.7 704 62.8C717 59 730 55 743.2 54C756.3 53 769.7 55 782.8 56.7C796 58.3 809 59.7 822 62.7C835 65.7 848 70.3 861 67.5C874 64.7 887 54.3 893.5 49.2L900 44L900 0L893.5 0C887 0 874 0 861 0C848 0 835 0 822 0C809 0 796 0 782.8 0C769.7 0 756.3 0 743.2 0C730 0 717 0 704 0C691 0 678 0 665 0C652 0 639 0 626 0C613 0 600 0 587 0C574 0 561 0 548 0C535 0 522 0 509 0C496 0 483 0 469.8 0C456.7 0 443.3 0 430.2 0C417 0 404 0 391 0C378 0 365 0 352 0C339 0 326 0 313 0C300 0 287 0 274 0C261 0 248 0 235 0C222 0 209 0 196 0C183 0 170 0 156.8 0C143.7 0 130.3 0 117.2 0C104 0 91 0 78 0C65 0 52 0 39 0C26 0 13 0 6.5 0L0 0Z" fill="#ee5c67"></path><path d="M0 39L6.5 41C13 43 26 47 39 49C52 51 65 51 78 50.8C91 50.7 104 50.3 117.2 49.8C130.3 49.3 143.7 48.7 156.8 50.3C170 52 183 56 196 54.2C209 52.3 222 44.7 235 43C248 41.3 261 45.7 274 50C287 54.3 300 58.7 313 57.8C326 57 339 51 352 48.7C365 46.3 378 47.7 391 50.7C404 53.7 417 58.3 430.2 59.2C443.3 60 456.7 57 469.8 52.7C483 48.3 496 42.7 509 44C522 45.3 535 53.7 548 57.8C561 62 574 62 587 59C600 56 613 50 626 47C639 44 652 44 665 46.7C678 49.3 691 54.7 704 56.8C717 59 730 58 743.2 56.2C756.3 54.3 769.7 51.7 782.8 49.2C796 46.7 809 44.3 822 45.7C835 47 848 52 861 51.5C874 51 887 45 893.5 42L900 39L900 0L893.5 0C887 0 874 0 861 0C848 0 835 0 822 0C809 0 796 0 782.8 0C769.7 0 756.3 0 743.2 0C730 0 717 0 704 0C691 0 678 0 665 0C652 0 639 0 626 0C613 0 600 0 587 0C574 0 561 0 548 0C535 0 522 0 509 0C496 0 483 0 469.8 0C456.7 0 443.3 0 430.2 0C417 0 404 0 391 0C378 0 365 0 352 0C339 0 326 0 313 0C300 0 287 0 274 0C261 0 248 0 235 0C222 0 209 0 196 0C183 0 170 0 156.8 0C143.7 0 130.3 0 117.2 0C104 0 91 0 78 0C65 0 52 0 39 0C26 0 13 0 6.5 0L0 0Z" fill="#e75167"></path><path d="M0 37L6.5 39.7C13 42.3 26 47.7 39 49C52 50.3 65 47.7 78 47.3C91 47 104 49 117.2 49.8C130.3 50.7 143.7 50.3 156.8 47.5C170 44.7 183 39.3 196 39.8C209 40.3 222 46.7 235 47.5C248 48.3 261 43.7 274 40.2C287 36.7 300 34.3 313 36.2C326 38 339 44 352 45.2C365 46.3 378 42.7 391 41.8C404 41 417 43 430.2 45C443.3 47 456.7 49 469.8 48C483 47 496 43 509 42C522 41 535 43 548 43.7C561 44.3 574 43.7 587 44.3C600 45 613 47 626 47.8C639 48.7 652 48.3 665 46.7C678 45 691 42 704 40C717 38 730 37 743.2 38.2C756.3 39.3 769.7 42.7 782.8 41.7C796 40.7 809 35.3 822 34.2C835 33 848 36 861 35.8C874 35.7 887 32.3 893.5 30.7L900 29L900 0L893.5 0C887 0 874 0 861 0C848 0 835 0 822 0C809 0 796 0 782.8 0C769.7 0 756.3 0 743.2 0C730 0 717 0 704 0C691 0 678 0 665 0C652 0 639 0 626 0C613 0 600 0 587 0C574 0 561 0 548 0C535 0 522 0 509 0C496 0 483 0 469.8 0C456.7 0 443.3 0 430.2 0C417 0 404 0 391 0C378 0 365 0 352 0C339 0 326 0 313 0C300 0 287 0 274 0C261 0 248 0 235 0C222 0 209 0 196 0C183 0 170 0 156.8 0C143.7 0 130.3 0 117.2 0C104 0 91 0 78 0C65 0 52 0 39 0C26 0 13 0 6.5 0L0 0Z" fill="#df4667"></path><path d="M0 32L6.5 30.5C13 29 26 26 39 26.2C52 26.3 65 29.7 78 31.2C91 32.7 104 32.3 117.2 33.3C130.3 34.3 143.7 36.7 156.8 37.5C170 38.3 183 37.7 196 37.3C209 37 222 37 235 34.7C248 32.3 261 27.7 274 26.2C287 24.7 300 26.3 313 26.8C326 27.3 339 26.7 352 26.5C365 26.3 378 26.7 391 28.8C404 31 417 35 430.2 34.7C443.3 34.3 456.7 29.7 469.8 28C483 26.3 496 27.7 509 27.3C522 27 535 25 548 26.7C561 28.3 574 33.7 587 34.8C600 36 613 33 626 32.3C639 31.7 652 33.3 665 32.2C678 31 691 27 704 28.2C717 29.3 730 35.7 743.2 37.7C756.3 39.7 769.7 37.3 782.8 34.3C796 31.3 809 27.7 822 28C835 28.3 848 32.7 861 35.5C874 38.3 887 39.7 893.5 40.3L900 41L900 0L893.5 0C887 0 874 0 861 0C848 0 835 0 822 0C809 0 796 0 782.8 0C769.7 0 756.3 0 743.2 0C730 0 717 0 704 0C691 0 678 0 665 0C652 0 639 0 626 0C613 0 600 0 587 0C574 0 561 0 548 0C535 0 522 0 509 0C496 0 483 0 469.8 0C456.7 0 443.3 0 430.2 0C417 0 404 0 391 0C378 0 365 0 352 0C339 0 326 0 313 0C300 0 287 0 274 0C261 0 248 0 235 0C222 0 209 0 196 0C183 0 170 0 156.8 0C143.7 0 130.3 0 117.2 0C104 0 91 0 78 0C65 0 52 0 39 0C26 0 13 0 6.5 0L0 0Z" fill="#d73b67"></path><path d="M0 28L6.5 27C13 26 26 24 39 22C52 20 65 18 78 18.7C91 19.3 104 22.7 117.2 24.8C130.3 27 143.7 28 156.8 28C170 28 183 27 196 26.3C209 25.7 222 25.3 235 24C248 22.7 261 20.3 274 20.5C287 20.7 300 23.3 313 23C326 22.7 339 19.3 352 19.7C365 20 378 24 391 26.2C404 28.3 417 28.7 430.2 26.7C443.3 24.7 456.7 20.3 469.8 18.2C483 16 496 16 509 15.8C522 15.7 535 15.3 548 15.3C561 15.3 574 15.7 587 17.2C600 18.7 613 21.3 626 22.2C639 23 652 22 665 20.7C678 19.3 691 17.7 704 17C717 16.3 730 16.7 743.2 17.7C756.3 18.7 769.7 20.3 782.8 20.8C796 21.3 809 20.7 822 19.8C835 19 848 18 861 18.7C874 19.3 887 21.7 893.5 22.8L900 24L900 0L893.5 0C887 0 874 0 861 0C848 0 835 0 822 0C809 0 796 0 782.8 0C769.7 0 756.3 0 743.2 0C730 0 717 0 704 0C691 0 678 0 665 0C652 0 639 0 626 0C613 0 600 0 587 0C574 0 561 0 548 0C535 0 522 0 509 0C496 0 483 0 469.8 0C456.7 0 443.3 0 430.2 0C417 0 404 0 391 0C378 0 365 0 352 0C339 0 326 0 313 0C300 0 287 0 274 0C261 0 248 0 235 0C222 0 209 0 196 0C183 0 170 0 156.8 0C143.7 0 130.3 0 117.2 0C104 0 91 0 78 0C65 0 52 0 39 0C26 0 13 0 6.5 0L0 0Z" fill="#cf3068"></path><path d="M0 10L6.5 9.3C13 8.7 26 7.3 39 8.2C52 9 65 12 78 13.8C91 15.7 104 16.3 117.2 15C130.3 13.7 143.7 10.3 156.8 8.8C170 7.3 183 7.7 196 8.7C209 9.7 222 11.3 235 11.7C248 12 261 11 274 10.3C287 9.7 300 9.3 313 8.7C326 8 339 7 352 7.7C365 8.3 378 10.7 391 12.3C404 14 417 15 430.2 14.8C443.3 14.7 456.7 13.3 469.8 11.7C483 10 496 8 509 8.5C522 9 535 12 548 13.2C561 14.3 574 13.7 587 12.3C600 11 613 9 626 8.3C639 7.7 652 8.3 665 9.8C678 11.3 691 13.7 704 14.8C717 16 730 16 743.2 15.8C756.3 15.7 769.7 15.3 782.8 13.7C796 12 809 9 822 8.8C835 8.7 848 11.3 861 11.3C874 11.3 887 8.7 893.5 7.3L900 6L900 0L893.5 0C887 0 874 0 861 0C848 0 835 0 822 0C809 0 796 0 782.8 0C769.7 0 756.3 0 743.2 0C730 0 717 0 704 0C691 0 678 0 665 0C652 0 639 0 626 0C613 0 600 0 587 0C574 0 561 0 548 0C535 0 522 0 509 0C496 0 483 0 469.8 0C456.7 0 443.3 0 430.2 0C417 0 404 0 391 0C378 0 365 0 352 0C339 0 326 0 313 0C300 0 287 0 274 0C261 0 248 0 235 0C222 0 209 0 196 0C183 0 170 0 156.8 0C143.7 0 130.3 0 117.2 0C104 0 91 0 78 0C65 0 52 0 39 0C26 0 13 0 6.5 0L0 0Z" fill="#c62368"></path></svg>
