<svg viewBox="0 0 900 600" width="900" height="600" xmlns="http://www.w3.org/2000/svg"
     version="1.1">
    <g transform="translate(452.1409863151091 311.25024819625366)">
        <path
                d="M135.3 -231.8C173.3 -212.4 200.5 -172 219.8 -129.8C239.2 -87.7 250.6 -43.8 251.6 0.6C252.6 45 243.2 90 219.5 124.5C195.7 159 157.6 183 118.6 191.3C79.7 199.7 39.8 192.3 -5.1 201.1C-50 209.9 -100 234.9 -132.8 223C-165.5 211 -181.1 162.3 -205.9 119C-230.7 75.7 -264.9 37.8 -253.8 6.4C-242.6 -25 -186.3 -50 -159.4 -89.8C-132.6 -129.7 -135.3 -184.4 -113.7 -213.2C-92 -242 -46 -245 1.3 -247.3C48.7 -249.6 97.3 -251.3 135.3 -231.8"
                fill="#BB004B"></path>
    </g>
    <g transform="translate(439.0843719833481 328.5726349141429)">
        <path
                d="M189.7 -163.4C223 -109.5 211.4 -31.9 191 38C170.6 107.9 141.2 170.2 97.1 185.1C52.9 200 -6.1 167.6 -52.4 135.1C-98.6 102.7 -132.2 70.3 -158.2 18.3C-184.2 -33.6 -202.8 -105 -175.1 -157.7C-147.5 -210.3 -73.8 -244.1 2.2 -245.9C78.2 -247.7 156.4 -217.4 189.7 -163.4"
                fill="#BB004B"></path>
    </g>
</svg>