<svg id="visual" viewBox="0 0 900 600" width="900" height="600" xmlns="http://www.w3.org/2000/svg" xmlns:xlink="http://www.w3.org/1999/xlink" version="1.1"><rect x="0" y="0" width="900" height="600" fill="#242424"></rect><path d="M210 0L211.2 5.3C212.3 10.7 214.7 21.3 216.8 31.8C219 42.3 221 52.7 217.3 63.2C213.7 73.7 204.3 84.3 197.2 94.8C190 105.3 185 115.7 180 126.2C175 136.7 170 147.3 171 157.8C172 168.3 179 178.7 179.8 189.2C180.7 199.7 175.3 210.3 178.7 221C182 231.7 194 242.3 203.3 252.8C212.7 263.3 219.3 273.7 212.3 284.2C205.3 294.7 184.7 305.3 185.5 315.8C186.3 326.3 208.7 336.7 209 347.2C209.3 357.7 187.7 368.3 180.3 379C173 389.7 180 400.3 185.7 410.8C191.3 421.3 195.7 431.7 194.8 442.2C194 452.7 188 463.3 192.3 473.8C196.7 484.3 211.3 494.7 215.8 505.2C220.3 515.7 214.7 526.3 215 536.8C215.3 547.3 221.7 557.7 223 568.2C224.3 578.7 220.7 589.3 218.8 594.7L217 600L0 600L0 594.7C0 589.3 0 578.7 0 568.2C0 557.7 0 547.3 0 536.8C0 526.3 0 515.7 0 505.2C0 494.7 0 484.3 0 473.8C0 463.3 0 452.7 0 442.2C0 431.7 0 421.3 0 410.8C0 400.3 0 389.7 0 379C0 368.3 0 357.7 0 347.2C0 336.7 0 326.3 0 315.8C0 305.3 0 294.7 0 284.2C0 273.7 0 263.3 0 252.8C0 242.3 0 231.7 0 221C0 210.3 0 199.7 0 189.2C0 178.7 0 168.3 0 157.8C0 147.3 0 136.7 0 126.2C0 115.7 0 105.3 0 94.8C0 84.3 0 73.7 0 63.2C0 52.7 0 42.3 0 31.8C0 21.3 0 10.7 0 5.3L0 0Z" fill="#fa7268"></path><path d="M175 0L173.2 5.3C171.3 10.7 167.7 21.3 164.8 31.8C162 42.3 160 52.7 157.7 63.2C155.3 73.7 152.7 84.3 160.2 94.8C167.7 105.3 185.3 115.7 192.5 126.2C199.7 136.7 196.3 147.3 192 157.8C187.7 168.3 182.3 178.7 175.3 189.2C168.3 199.7 159.7 210.3 155.2 221C150.7 231.7 150.3 242.3 152.7 252.8C155 263.3 160 273.7 161.7 284.2C163.3 294.7 161.7 305.3 159.3 315.8C157 326.3 154 336.7 151.7 347.2C149.3 357.7 147.7 368.3 147 379C146.3 389.7 146.7 400.3 155.7 410.8C164.7 421.3 182.3 431.7 193 442.2C203.7 452.7 207.3 463.3 204.8 473.8C202.3 484.3 193.7 494.7 182.8 505.2C172 515.7 159 526.3 152.8 536.8C146.7 547.3 147.3 557.7 153.7 568.2C160 578.7 172 589.3 178 594.7L184 600L0 600L0 594.7C0 589.3 0 578.7 0 568.2C0 557.7 0 547.3 0 536.8C0 526.3 0 515.7 0 505.2C0 494.7 0 484.3 0 473.8C0 463.3 0 452.7 0 442.2C0 431.7 0 421.3 0 410.8C0 400.3 0 389.7 0 379C0 368.3 0 357.7 0 347.2C0 336.7 0 326.3 0 315.8C0 305.3 0 294.7 0 284.2C0 273.7 0 263.3 0 252.8C0 242.3 0 231.7 0 221C0 210.3 0 199.7 0 189.2C0 178.7 0 168.3 0 157.8C0 147.3 0 136.7 0 126.2C0 115.7 0 105.3 0 94.8C0 84.3 0 73.7 0 63.2C0 52.7 0 42.3 0 31.8C0 21.3 0 10.7 0 5.3L0 0Z" fill="#f66b68"></path><path d="M158 0L164.2 5.3C170.3 10.7 182.7 21.3 187.2 31.8C191.7 42.3 188.3 52.7 180.8 63.2C173.3 73.7 161.7 84.3 158 94.8C154.3 105.3 158.7 115.7 165.8 126.2C173 136.7 183 147.3 185.3 157.8C187.7 168.3 182.3 178.7 173 189.2C163.7 199.7 150.3 210.3 147.8 221C145.3 231.7 153.7 242.3 160.8 252.8C168 263.3 174 273.7 171.8 284.2C169.7 294.7 159.3 305.3 156.3 315.8C153.3 326.3 157.7 336.7 159.2 347.2C160.7 357.7 159.3 368.3 161.2 379C163 389.7 168 400.3 172.3 410.8C176.7 421.3 180.3 431.7 182.5 442.2C184.7 452.7 185.3 463.3 178.5 473.8C171.7 484.3 157.3 494.7 156.8 505.2C156.3 515.7 169.7 526.3 170.5 536.8C171.3 547.3 159.7 557.7 153.7 568.2C147.7 578.7 147.3 589.3 147.2 594.7L147 600L0 600L0 594.7C0 589.3 0 578.7 0 568.2C0 557.7 0 547.3 0 536.8C0 526.3 0 515.7 0 505.2C0 494.7 0 484.3 0 473.8C0 463.3 0 452.7 0 442.2C0 431.7 0 421.3 0 410.8C0 400.3 0 389.7 0 379C0 368.3 0 357.7 0 347.2C0 336.7 0 326.3 0 315.8C0 305.3 0 294.7 0 284.2C0 273.7 0 263.3 0 252.8C0 242.3 0 231.7 0 221C0 210.3 0 199.7 0 189.2C0 178.7 0 168.3 0 157.8C0 147.3 0 136.7 0 126.2C0 115.7 0 105.3 0 94.8C0 84.3 0 73.7 0 63.2C0 52.7 0 42.3 0 31.8C0 21.3 0 10.7 0 5.3L0 0Z" fill="#f26467"></path><path d="M150 0L153.3 5.3C156.7 10.7 163.3 21.3 164.3 31.8C165.3 42.3 160.7 52.7 152.2 63.2C143.7 73.7 131.3 84.3 132.8 94.8C134.3 105.3 149.7 115.7 153 126.2C156.3 136.7 147.7 147.3 148 157.8C148.3 168.3 157.7 178.7 162 189.2C166.3 199.7 165.7 210.3 160.3 221C155 231.7 145 242.3 147 252.8C149 263.3 163 273.7 163 284.2C163 294.7 149 305.3 140.2 315.8C131.3 326.3 127.7 336.7 129.7 347.2C131.7 357.7 139.3 368.3 138.2 379C137 389.7 127 400.3 126.7 410.8C126.3 421.3 135.7 431.7 138.2 442.2C140.7 452.7 136.3 463.3 138.7 473.8C141 484.3 150 494.7 156 505.2C162 515.7 165 526.3 159 536.8C153 547.3 138 557.7 135 568.2C132 578.7 141 589.3 145.5 594.7L150 600L0 600L0 594.7C0 589.3 0 578.7 0 568.2C0 557.7 0 547.3 0 536.8C0 526.3 0 515.7 0 505.2C0 494.7 0 484.3 0 473.8C0 463.3 0 452.7 0 442.2C0 431.7 0 421.3 0 410.8C0 400.3 0 389.7 0 379C0 368.3 0 357.7 0 347.2C0 336.7 0 326.3 0 315.8C0 305.3 0 294.7 0 284.2C0 273.7 0 263.3 0 252.8C0 242.3 0 231.7 0 221C0 210.3 0 199.7 0 189.2C0 178.7 0 168.3 0 157.8C0 147.3 0 136.7 0 126.2C0 115.7 0 105.3 0 94.8C0 84.3 0 73.7 0 63.2C0 52.7 0 42.3 0 31.8C0 21.3 0 10.7 0 5.3L0 0Z" fill="#ee5d67"></path><path d="M128 0L130.2 5.3C132.3 10.7 136.7 21.3 139.8 31.8C143 42.3 145 52.7 142.8 63.2C140.7 73.7 134.3 84.3 130.7 94.8C127 105.3 126 115.7 128.3 126.2C130.7 136.7 136.3 147.3 141.8 157.8C147.3 168.3 152.7 178.7 151.7 189.2C150.7 199.7 143.3 210.3 139.2 221C135 231.7 134 242.3 135.8 252.8C137.7 263.3 142.3 273.7 144 284.2C145.7 294.7 144.3 305.3 145.2 315.8C146 326.3 149 336.7 144 347.2C139 357.7 126 368.3 120.5 379C115 389.7 117 400.3 124.7 410.8C132.3 421.3 145.7 431.7 148.3 442.2C151 452.7 143 463.3 139.5 473.8C136 484.3 137 494.7 139.5 505.2C142 515.7 146 526.3 141 536.8C136 547.3 122 557.7 115 568.2C108 578.7 108 589.3 108 594.7L108 600L0 600L0 594.7C0 589.3 0 578.7 0 568.2C0 557.7 0 547.3 0 536.8C0 526.3 0 515.7 0 505.2C0 494.7 0 484.3 0 473.8C0 463.3 0 452.7 0 442.2C0 431.7 0 421.3 0 410.8C0 400.3 0 389.7 0 379C0 368.3 0 357.7 0 347.2C0 336.7 0 326.3 0 315.8C0 305.3 0 294.7 0 284.2C0 273.7 0 263.3 0 252.8C0 242.3 0 231.7 0 221C0 210.3 0 199.7 0 189.2C0 178.7 0 168.3 0 157.8C0 147.3 0 136.7 0 126.2C0 115.7 0 105.3 0 94.8C0 84.3 0 73.7 0 63.2C0 52.7 0 42.3 0 31.8C0 21.3 0 10.7 0 5.3L0 0Z" fill="#ea5667"></path><path d="M121 0L118.5 5.3C116 10.7 111 21.3 111.5 31.8C112 42.3 118 52.7 118.7 63.2C119.3 73.7 114.7 84.3 111.7 94.8C108.7 105.3 107.3 115.7 111.5 126.2C115.7 136.7 125.3 147.3 126.8 157.8C128.3 168.3 121.7 178.7 119.3 189.2C117 199.7 119 210.3 115 221C111 231.7 101 242.3 101.3 252.8C101.7 263.3 112.3 273.7 120 284.2C127.7 294.7 132.3 305.3 131 315.8C129.7 326.3 122.3 336.7 122.2 347.2C122 357.7 129 368.3 129.7 379C130.3 389.7 124.7 400.3 120.3 410.8C116 421.3 113 431.7 112.7 442.2C112.3 452.7 114.7 463.3 117.7 473.8C120.7 484.3 124.3 494.7 127.3 505.2C130.3 515.7 132.7 526.3 134.8 536.8C137 547.3 139 557.7 138.7 568.2C138.3 578.7 135.7 589.3 134.3 594.7L133 600L0 600L0 594.7C0 589.3 0 578.7 0 568.2C0 557.7 0 547.3 0 536.8C0 526.3 0 515.7 0 505.2C0 494.7 0 484.3 0 473.8C0 463.3 0 452.7 0 442.2C0 431.7 0 421.3 0 410.8C0 400.3 0 389.7 0 379C0 368.3 0 357.7 0 347.2C0 336.7 0 326.3 0 315.8C0 305.3 0 294.7 0 284.2C0 273.7 0 263.3 0 252.8C0 242.3 0 231.7 0 221C0 210.3 0 199.7 0 189.2C0 178.7 0 168.3 0 157.8C0 147.3 0 136.7 0 126.2C0 115.7 0 105.3 0 94.8C0 84.3 0 73.7 0 63.2C0 52.7 0 42.3 0 31.8C0 21.3 0 10.7 0 5.3L0 0Z" fill="#e54f67"></path><path d="M86 0L86.2 5.3C86.3 10.7 86.7 21.3 86.7 31.8C86.7 42.3 86.3 52.7 92 63.2C97.7 73.7 109.3 84.3 108.5 94.8C107.7 105.3 94.3 115.7 90.3 126.2C86.3 136.7 91.7 147.3 95.3 157.8C99 168.3 101 178.7 103.7 189.2C106.3 199.7 109.7 210.3 112.3 221C115 231.7 117 242.3 115.7 252.8C114.3 263.3 109.7 273.7 104 284.2C98.3 294.7 91.7 305.3 94.3 315.8C97 326.3 109 336.7 111.8 347.2C114.7 357.7 108.3 368.3 103.2 379C98 389.7 94 400.3 93.2 410.8C92.3 421.3 94.7 431.7 94.2 442.2C93.7 452.7 90.3 463.3 87.3 473.8C84.3 484.3 81.7 494.7 82.2 505.2C82.7 515.7 86.3 526.3 91.2 536.8C96 547.3 102 557.7 102 568.2C102 578.7 96 589.3 93 594.7L90 600L0 600L0 594.7C0 589.3 0 578.7 0 568.2C0 557.7 0 547.3 0 536.8C0 526.3 0 515.7 0 505.2C0 494.7 0 484.3 0 473.8C0 463.3 0 452.7 0 442.2C0 431.7 0 421.3 0 410.8C0 400.3 0 389.7 0 379C0 368.3 0 357.7 0 347.2C0 336.7 0 326.3 0 315.8C0 305.3 0 294.7 0 284.2C0 273.7 0 263.3 0 252.8C0 242.3 0 231.7 0 221C0 210.3 0 199.7 0 189.2C0 178.7 0 168.3 0 157.8C0 147.3 0 136.7 0 126.2C0 115.7 0 105.3 0 94.8C0 84.3 0 73.7 0 63.2C0 52.7 0 42.3 0 31.8C0 21.3 0 10.7 0 5.3L0 0Z" fill="#e14867"></path><path d="M67 0L71.5 5.3C76 10.7 85 21.3 87.2 31.8C89.3 42.3 84.7 52.7 83.5 63.2C82.3 73.7 84.7 84.3 88.2 94.8C91.7 105.3 96.3 115.7 97.3 126.2C98.3 136.7 95.7 147.3 92.8 157.8C90 168.3 87 178.7 83.8 189.2C80.7 199.7 77.3 210.3 77.2 221C77 231.7 80 242.3 79.3 252.8C78.7 263.3 74.3 273.7 76.5 284.2C78.7 294.7 87.3 305.3 88.7 315.8C90 326.3 84 336.7 79.8 347.2C75.7 357.7 73.3 368.3 73.5 379C73.7 389.7 76.3 400.3 80.5 410.8C84.7 421.3 90.3 431.7 92.2 442.2C94 452.7 92 463.3 92.8 473.8C93.7 484.3 97.3 494.7 99 505.2C100.7 515.7 100.3 526.3 94.2 536.8C88 547.3 76 557.7 75.5 568.2C75 578.7 86 589.3 91.5 594.7L97 600L0 600L0 594.7C0 589.3 0 578.7 0 568.2C0 557.7 0 547.3 0 536.8C0 526.3 0 515.7 0 505.2C0 494.7 0 484.3 0 473.8C0 463.3 0 452.7 0 442.2C0 431.7 0 421.3 0 410.8C0 400.3 0 389.7 0 379C0 368.3 0 357.7 0 347.2C0 336.7 0 326.3 0 315.8C0 305.3 0 294.7 0 284.2C0 273.7 0 263.3 0 252.8C0 242.3 0 231.7 0 221C0 210.3 0 199.7 0 189.2C0 178.7 0 168.3 0 157.8C0 147.3 0 136.7 0 126.2C0 115.7 0 105.3 0 94.8C0 84.3 0 73.7 0 63.2C0 52.7 0 42.3 0 31.8C0 21.3 0 10.7 0 5.3L0 0Z" fill="#dc4167"></path><path d="M55 0L57.5 5.3C60 10.7 65 21.3 68.5 31.8C72 42.3 74 52.7 74.7 63.2C75.3 73.7 74.7 84.3 73.5 94.8C72.3 105.3 70.7 115.7 71 126.2C71.3 136.7 73.7 147.3 72.8 157.8C72 168.3 68 178.7 64.3 189.2C60.7 199.7 57.3 210.3 57.7 221C58 231.7 62 242.3 62.2 252.8C62.3 263.3 58.7 273.7 58.7 284.2C58.7 294.7 62.3 305.3 66.7 315.8C71 326.3 76 336.7 75.7 347.2C75.3 357.7 69.7 368.3 69.7 379C69.7 389.7 75.3 400.3 74.2 410.8C73 421.3 65 431.7 65.8 442.2C66.7 452.7 76.3 463.3 79.3 473.8C82.3 484.3 78.7 494.7 76.3 505.2C74 515.7 73 526.3 69.2 536.8C65.3 547.3 58.7 557.7 55.7 568.2C52.7 578.7 53.3 589.3 53.7 594.7L54 600L0 600L0 594.7C0 589.3 0 578.7 0 568.2C0 557.7 0 547.3 0 536.8C0 526.3 0 515.7 0 505.2C0 494.7 0 484.3 0 473.8C0 463.3 0 452.7 0 442.2C0 431.7 0 421.3 0 410.8C0 400.3 0 389.7 0 379C0 368.3 0 357.7 0 347.2C0 336.7 0 326.3 0 315.8C0 305.3 0 294.7 0 284.2C0 273.7 0 263.3 0 252.8C0 242.3 0 231.7 0 221C0 210.3 0 199.7 0 189.2C0 178.7 0 168.3 0 157.8C0 147.3 0 136.7 0 126.2C0 115.7 0 105.3 0 94.8C0 84.3 0 73.7 0 63.2C0 52.7 0 42.3 0 31.8C0 21.3 0 10.7 0 5.3L0 0Z" fill="#d73a67"></path><path d="M68 0L67.8 5.3C67.7 10.7 67.3 21.3 66 31.8C64.7 42.3 62.3 52.7 62.2 63.2C62 73.7 64 84.3 64.5 94.8C65 105.3 64 115.7 62.7 126.2C61.3 136.7 59.7 147.3 58.3 157.8C57 168.3 56 178.7 56.8 189.2C57.7 199.7 60.3 210.3 62 221C63.7 231.7 64.3 242.3 65 252.8C65.7 263.3 66.3 273.7 64.7 284.2C63 294.7 59 305.3 58.5 315.8C58 326.3 61 336.7 58.8 347.2C56.7 357.7 49.3 368.3 50 379C50.7 389.7 59.3 400.3 59.8 410.8C60.3 421.3 52.7 431.7 52 442.2C51.3 452.7 57.7 463.3 58.8 473.8C60 484.3 56 494.7 54.5 505.2C53 515.7 54 526.3 54.7 536.8C55.3 547.3 55.7 557.7 54.5 568.2C53.3 578.7 50.7 589.3 49.3 594.7L48 600L0 600L0 594.7C0 589.3 0 578.7 0 568.2C0 557.7 0 547.3 0 536.8C0 526.3 0 515.7 0 505.2C0 494.7 0 484.3 0 473.8C0 463.3 0 452.7 0 442.2C0 431.7 0 421.3 0 410.8C0 400.3 0 389.7 0 379C0 368.3 0 357.7 0 347.2C0 336.7 0 326.3 0 315.8C0 305.3 0 294.7 0 284.2C0 273.7 0 263.3 0 252.8C0 242.3 0 231.7 0 221C0 210.3 0 199.7 0 189.2C0 178.7 0 168.3 0 157.8C0 147.3 0 136.7 0 126.2C0 115.7 0 105.3 0 94.8C0 84.3 0 73.7 0 63.2C0 52.7 0 42.3 0 31.8C0 21.3 0 10.7 0 5.3L0 0Z" fill="#d13367"></path><path d="M39 0L40.7 5.3C42.3 10.7 45.7 21.3 45.8 31.8C46 42.3 43 52.7 41.5 63.2C40 73.7 40 84.3 38.3 94.8C36.7 105.3 33.3 115.7 31.8 126.2C30.3 136.7 30.7 147.3 33.7 157.8C36.7 168.3 42.3 178.7 42 189.2C41.7 199.7 35.3 210.3 33.8 221C32.3 231.7 35.7 242.3 39.2 252.8C42.7 263.3 46.3 273.7 47.8 284.2C49.3 294.7 48.7 305.3 46.3 315.8C44 326.3 40 336.7 39.7 347.2C39.3 357.7 42.7 368.3 44.7 379C46.7 389.7 47.3 400.3 47 410.8C46.7 421.3 45.3 431.7 45.5 442.2C45.7 452.7 47.3 463.3 46.5 473.8C45.7 484.3 42.3 494.7 38.7 505.2C35 515.7 31 526.3 28.8 536.8C26.7 547.3 26.3 557.7 26.2 568.2C26 578.7 26 589.3 26 594.7L26 600L0 600L0 594.7C0 589.3 0 578.7 0 568.2C0 557.7 0 547.3 0 536.8C0 526.3 0 515.7 0 505.2C0 494.7 0 484.3 0 473.8C0 463.3 0 452.7 0 442.2C0 431.7 0 421.3 0 410.8C0 400.3 0 389.7 0 379C0 368.3 0 357.7 0 347.2C0 336.7 0 326.3 0 315.8C0 305.3 0 294.7 0 284.2C0 273.7 0 263.3 0 252.8C0 242.3 0 231.7 0 221C0 210.3 0 199.7 0 189.2C0 178.7 0 168.3 0 157.8C0 147.3 0 136.7 0 126.2C0 115.7 0 105.3 0 94.8C0 84.3 0 73.7 0 63.2C0 52.7 0 42.3 0 31.8C0 21.3 0 10.7 0 5.3L0 0Z" fill="#cc2b68"></path><path d="M19 0L18.3 5.3C17.7 10.7 16.3 21.3 15.3 31.8C14.3 42.3 13.7 52.7 13.8 63.2C14 73.7 15 84.3 15.2 94.8C15.3 105.3 14.7 115.7 15.3 126.2C16 136.7 18 147.3 18 157.8C18 168.3 16 178.7 17.3 189.2C18.7 199.7 23.3 210.3 25.8 221C28.3 231.7 28.7 242.3 28.3 252.8C28 263.3 27 273.7 24.2 284.2C21.3 294.7 16.7 305.3 17.5 315.8C18.3 326.3 24.7 336.7 27.5 347.2C30.3 357.7 29.7 368.3 28.7 379C27.7 389.7 26.3 400.3 24.5 410.8C22.7 421.3 20.3 431.7 18.5 442.2C16.7 452.7 15.3 463.3 15.3 473.8C15.3 484.3 16.7 494.7 16.7 505.2C16.7 515.7 15.3 526.3 14.3 536.8C13.3 547.3 12.7 557.7 13 568.2C13.3 578.7 14.7 589.3 15.3 594.7L16 600L0 600L0 594.7C0 589.3 0 578.7 0 568.2C0 557.7 0 547.3 0 536.8C0 526.3 0 515.7 0 505.2C0 494.7 0 484.3 0 473.8C0 463.3 0 452.7 0 442.2C0 431.7 0 421.3 0 410.8C0 400.3 0 389.7 0 379C0 368.3 0 357.7 0 347.2C0 336.7 0 326.3 0 315.8C0 305.3 0 294.7 0 284.2C0 273.7 0 263.3 0 252.8C0 242.3 0 231.7 0 221C0 210.3 0 199.7 0 189.2C0 178.7 0 168.3 0 157.8C0 147.3 0 136.7 0 126.2C0 115.7 0 105.3 0 94.8C0 84.3 0 73.7 0 63.2C0 52.7 0 42.3 0 31.8C0 21.3 0 10.7 0 5.3L0 0Z" fill="#c62368"></path></svg>