<svg id="visual" viewBox="0 0 900 600" width="900" height="600" xmlns="http://www.w3.org/2000/svg" xmlns:xlink="http://www.w3.org/1999/xlink" version="1.1"><rect x="0" y="0" width="900" height="600" fill="#242424"></rect><path d="M0 160L8.3 175.3C16.7 190.7 33.3 221.3 50 223.2C66.7 225 83.3 198 100 189.7C116.7 181.3 133.3 191.7 150 197C166.7 202.3 183.3 202.7 200 203.8C216.7 205 233.3 207 250 212C266.7 217 283.3 225 300 218.7C316.7 212.3 333.3 191.7 350 189.3C366.7 187 383.3 203 400 206.8C416.7 210.7 433.3 202.3 450 194.7C466.7 187 483.3 180 500 180.8C516.7 181.7 533.3 190.3 550 198.5C566.7 206.7 583.3 214.3 600 222.2C616.7 230 633.3 238 650 231C666.7 224 683.3 202 700 197.2C716.7 192.3 733.3 204.7 750 214.5C766.7 224.3 783.3 231.7 800 231C816.7 230.3 833.3 221.7 850 223C866.7 224.3 883.3 235.7 891.7 241.3L900 247L900 0L891.7 0C883.3 0 866.7 0 850 0C833.3 0 816.7 0 800 0C783.3 0 766.7 0 750 0C733.3 0 716.7 0 700 0C683.3 0 666.7 0 650 0C633.3 0 616.7 0 600 0C583.3 0 566.7 0 550 0C533.3 0 516.7 0 500 0C483.3 0 466.7 0 450 0C433.3 0 416.7 0 400 0C383.3 0 366.7 0 350 0C333.3 0 316.7 0 300 0C283.3 0 266.7 0 250 0C233.3 0 216.7 0 200 0C183.3 0 166.7 0 150 0C133.3 0 116.7 0 100 0C83.3 0 66.7 0 50 0C33.3 0 16.7 0 8.3 0L0 0Z" fill="#fa7268"></path><path d="M0 225L8.3 213C16.7 201 33.3 177 50 167.7C66.7 158.3 83.3 163.7 100 171C116.7 178.3 133.3 187.7 150 184.7C166.7 181.7 183.3 166.3 200 159C216.7 151.7 233.3 152.3 250 159.8C266.7 167.3 283.3 181.7 300 192.7C316.7 203.7 333.3 211.3 350 216.7C366.7 222 383.3 225 400 225.3C416.7 225.7 433.3 223.3 450 213C466.7 202.7 483.3 184.3 500 185C516.7 185.7 533.3 205.3 550 217.3C566.7 229.3 583.3 233.7 600 229.8C616.7 226 633.3 214 650 206.7C666.7 199.3 683.3 196.7 700 202.7C716.7 208.7 733.3 223.3 750 217.7C766.7 212 783.3 186 800 184.5C816.7 183 833.3 206 850 204.5C866.7 203 883.3 177 891.7 164L900 151L900 0L891.7 0C883.3 0 866.7 0 850 0C833.3 0 816.7 0 800 0C783.3 0 766.7 0 750 0C733.3 0 716.7 0 700 0C683.3 0 666.7 0 650 0C633.3 0 616.7 0 600 0C583.3 0 566.7 0 550 0C533.3 0 516.7 0 500 0C483.3 0 466.7 0 450 0C433.3 0 416.7 0 400 0C383.3 0 366.7 0 350 0C333.3 0 316.7 0 300 0C283.3 0 266.7 0 250 0C233.3 0 216.7 0 200 0C183.3 0 166.7 0 150 0C133.3 0 116.7 0 100 0C83.3 0 66.7 0 50 0C33.3 0 16.7 0 8.3 0L0 0Z" fill="#f56a67"></path><path d="M0 195L8.3 191.3C16.7 187.7 33.3 180.3 50 174.5C66.7 168.7 83.3 164.3 100 159.7C116.7 155 133.3 150 150 153.3C166.7 156.7 183.3 168.3 200 170.8C216.7 173.3 233.3 166.7 250 172.2C266.7 177.7 283.3 195.3 300 200.5C316.7 205.7 333.3 198.3 350 194.5C366.7 190.7 383.3 190.3 400 192C416.7 193.7 433.3 197.3 450 187.7C466.7 178 483.3 155 500 144C516.7 133 533.3 134 550 135.7C566.7 137.3 583.3 139.7 600 152.7C616.7 165.7 633.3 189.3 650 197.3C666.7 205.3 683.3 197.7 700 189.2C716.7 180.7 733.3 171.3 750 164.8C766.7 158.3 783.3 154.7 800 160.7C816.7 166.7 833.3 182.3 850 183.2C866.7 184 883.3 170 891.7 163L900 156L900 0L891.7 0C883.3 0 866.7 0 850 0C833.3 0 816.7 0 800 0C783.3 0 766.7 0 750 0C733.3 0 716.7 0 700 0C683.3 0 666.7 0 650 0C633.3 0 616.7 0 600 0C583.3 0 566.7 0 550 0C533.3 0 516.7 0 500 0C483.3 0 466.7 0 450 0C433.3 0 416.7 0 400 0C383.3 0 366.7 0 350 0C333.3 0 316.7 0 300 0C283.3 0 266.7 0 250 0C233.3 0 216.7 0 200 0C183.3 0 166.7 0 150 0C133.3 0 116.7 0 100 0C83.3 0 66.7 0 50 0C33.3 0 16.7 0 8.3 0L0 0Z" fill="#f06167"></path><path d="M0 152L8.3 155C16.7 158 33.3 164 50 164C66.7 164 83.3 158 100 160.7C116.7 163.3 133.3 174.7 150 180.2C166.7 185.7 183.3 185.3 200 182.7C216.7 180 233.3 175 250 166.5C266.7 158 283.3 146 300 140.2C316.7 134.3 333.3 134.7 350 142.2C366.7 149.7 383.3 164.3 400 169.3C416.7 174.3 433.3 169.7 450 168.5C466.7 167.3 483.3 169.7 500 173.7C516.7 177.7 533.3 183.3 550 181.8C566.7 180.3 583.3 171.7 600 167.7C616.7 163.7 633.3 164.3 650 165.3C666.7 166.3 683.3 167.7 700 162.5C716.7 157.3 733.3 145.7 750 147C766.7 148.3 783.3 162.7 800 167.2C816.7 171.7 833.3 166.3 850 159.5C866.7 152.7 883.3 144.3 891.7 140.2L900 136L900 0L891.7 0C883.3 0 866.7 0 850 0C833.3 0 816.7 0 800 0C783.3 0 766.7 0 750 0C733.3 0 716.7 0 700 0C683.3 0 666.7 0 650 0C633.3 0 616.7 0 600 0C583.3 0 566.7 0 550 0C533.3 0 516.7 0 500 0C483.3 0 466.7 0 450 0C433.3 0 416.7 0 400 0C383.3 0 366.7 0 350 0C333.3 0 316.7 0 300 0C283.3 0 266.7 0 250 0C233.3 0 216.7 0 200 0C183.3 0 166.7 0 150 0C133.3 0 116.7 0 100 0C83.3 0 66.7 0 50 0C33.3 0 16.7 0 8.3 0L0 0Z" fill="#eb5967"></path><path d="M0 123L8.3 129.3C16.7 135.7 33.3 148.3 50 155C66.7 161.7 83.3 162.3 100 162.5C116.7 162.7 133.3 162.3 150 156.7C166.7 151 183.3 140 200 131C216.7 122 233.3 115 250 115.8C266.7 116.7 283.3 125.3 300 132.5C316.7 139.7 333.3 145.3 350 139.7C366.7 134 383.3 117 400 117C416.7 117 433.3 134 450 137.3C466.7 140.7 483.3 130.3 500 129.2C516.7 128 533.3 136 550 138.3C566.7 140.7 583.3 137.3 600 129.8C616.7 122.3 633.3 110.7 650 114.2C666.7 117.7 683.3 136.3 700 139.3C716.7 142.3 733.3 129.7 750 130.5C766.7 131.3 783.3 145.7 800 149.7C816.7 153.7 833.3 147.3 850 139C866.7 130.7 883.3 120.3 891.7 115.2L900 110L900 0L891.7 0C883.3 0 866.7 0 850 0C833.3 0 816.7 0 800 0C783.3 0 766.7 0 750 0C733.3 0 716.7 0 700 0C683.3 0 666.7 0 650 0C633.3 0 616.7 0 600 0C583.3 0 566.7 0 550 0C533.3 0 516.7 0 500 0C483.3 0 466.7 0 450 0C433.3 0 416.7 0 400 0C383.3 0 366.7 0 350 0C333.3 0 316.7 0 300 0C283.3 0 266.7 0 250 0C233.3 0 216.7 0 200 0C183.3 0 166.7 0 150 0C133.3 0 116.7 0 100 0C83.3 0 66.7 0 50 0C33.3 0 16.7 0 8.3 0L0 0Z" fill="#e65067"></path><path d="M0 119L8.3 115C16.7 111 33.3 103 50 100C66.7 97 83.3 99 100 103.3C116.7 107.7 133.3 114.3 150 111.7C166.7 109 183.3 97 200 90.8C216.7 84.7 233.3 84.3 250 92.2C266.7 100 283.3 116 300 117.7C316.7 119.3 333.3 106.7 350 107.7C366.7 108.7 383.3 123.3 400 129.7C416.7 136 433.3 134 450 130.2C466.7 126.3 483.3 120.7 500 114.3C516.7 108 533.3 101 550 100.7C566.7 100.3 583.3 106.7 600 105.3C616.7 104 633.3 95 650 96.2C666.7 97.3 683.3 108.7 700 111.5C716.7 114.3 733.3 108.7 750 110.7C766.7 112.7 783.3 122.3 800 128.5C816.7 134.7 833.3 137.3 850 133.3C866.7 129.3 883.3 118.7 891.7 113.3L900 108L900 0L891.7 0C883.3 0 866.7 0 850 0C833.3 0 816.7 0 800 0C783.3 0 766.7 0 750 0C733.3 0 716.7 0 700 0C683.3 0 666.7 0 650 0C633.3 0 616.7 0 600 0C583.3 0 566.7 0 550 0C533.3 0 516.7 0 500 0C483.3 0 466.7 0 450 0C433.3 0 416.7 0 400 0C383.3 0 366.7 0 350 0C333.3 0 316.7 0 300 0C283.3 0 266.7 0 250 0C233.3 0 216.7 0 200 0C183.3 0 166.7 0 150 0C133.3 0 116.7 0 100 0C83.3 0 66.7 0 50 0C33.3 0 16.7 0 8.3 0L0 0Z" fill="#e04867"></path><path d="M0 101L8.3 102.3C16.7 103.7 33.3 106.3 50 105.2C66.7 104 83.3 99 100 93.7C116.7 88.3 133.3 82.7 150 83.5C166.7 84.3 183.3 91.7 200 90.8C216.7 90 233.3 81 250 76.3C266.7 71.7 283.3 71.3 300 76.3C316.7 81.3 333.3 91.7 350 97.5C366.7 103.3 383.3 104.7 400 97.8C416.7 91 433.3 76 450 75C466.7 74 483.3 87 500 92.2C516.7 97.3 533.3 94.7 550 92.3C566.7 90 583.3 88 600 91.3C616.7 94.7 633.3 103.3 650 99.8C666.7 96.3 683.3 80.7 700 78.8C716.7 77 733.3 89 750 91.5C766.7 94 783.3 87 800 89.2C816.7 91.3 833.3 102.7 850 107C866.7 111.3 883.3 108.7 891.7 107.3L900 106L900 0L891.7 0C883.3 0 866.7 0 850 0C833.3 0 816.7 0 800 0C783.3 0 766.7 0 750 0C733.3 0 716.7 0 700 0C683.3 0 666.7 0 650 0C633.3 0 616.7 0 600 0C583.3 0 566.7 0 550 0C533.3 0 516.7 0 500 0C483.3 0 466.7 0 450 0C433.3 0 416.7 0 400 0C383.3 0 366.7 0 350 0C333.3 0 316.7 0 300 0C283.3 0 266.7 0 250 0C233.3 0 216.7 0 200 0C183.3 0 166.7 0 150 0C133.3 0 116.7 0 100 0C83.3 0 66.7 0 50 0C33.3 0 16.7 0 8.3 0L0 0Z" fill="#da3f67"></path><path d="M0 65L8.3 62.3C16.7 59.7 33.3 54.3 50 51C66.7 47.7 83.3 46.3 100 46.5C116.7 46.7 133.3 48.3 150 55.5C166.7 62.7 183.3 75.3 200 77.7C216.7 80 233.3 72 250 67.2C266.7 62.3 283.3 60.7 300 61.8C316.7 63 333.3 67 350 69.8C366.7 72.7 383.3 74.3 400 73.2C416.7 72 433.3 68 450 67.5C466.7 67 483.3 70 500 70.7C516.7 71.3 533.3 69.7 550 72.7C566.7 75.7 583.3 83.3 600 81.7C616.7 80 633.3 69 650 66.2C666.7 63.3 683.3 68.7 700 68.5C716.7 68.3 733.3 62.7 750 57.5C766.7 52.3 783.3 47.7 800 49.2C816.7 50.7 833.3 58.3 850 62.8C866.7 67.3 883.3 68.7 891.7 69.3L900 70L900 0L891.7 0C883.3 0 866.7 0 850 0C833.3 0 816.7 0 800 0C783.3 0 766.7 0 750 0C733.3 0 716.7 0 700 0C683.3 0 666.7 0 650 0C633.3 0 616.7 0 600 0C583.3 0 566.7 0 550 0C533.3 0 516.7 0 500 0C483.3 0 466.7 0 450 0C433.3 0 416.7 0 400 0C383.3 0 366.7 0 350 0C333.3 0 316.7 0 300 0C283.3 0 266.7 0 250 0C233.3 0 216.7 0 200 0C183.3 0 166.7 0 150 0C133.3 0 116.7 0 100 0C83.3 0 66.7 0 50 0C33.3 0 16.7 0 8.3 0L0 0Z" fill="#d43667"></path><path d="M0 66L8.3 63C16.7 60 33.3 54 50 53.8C66.7 53.7 83.3 59.3 100 62.2C116.7 65 133.3 65 150 61.2C166.7 57.3 183.3 49.7 200 47.2C216.7 44.7 233.3 47.3 250 46.3C266.7 45.3 283.3 40.7 300 41C316.7 41.3 333.3 46.7 350 50.8C366.7 55 383.3 58 400 60C416.7 62 433.3 63 450 60.7C466.7 58.3 483.3 52.7 500 50C516.7 47.3 533.3 47.7 550 44.8C566.7 42 583.3 36 600 32.7C616.7 29.3 633.3 28.7 650 31.3C666.7 34 683.3 40 700 42.2C716.7 44.3 733.3 42.7 750 42.2C766.7 41.7 783.3 42.3 800 45C816.7 47.7 833.3 52.3 850 54.7C866.7 57 883.3 57 891.7 57L900 57L900 0L891.7 0C883.3 0 866.7 0 850 0C833.3 0 816.7 0 800 0C783.3 0 766.7 0 750 0C733.3 0 716.7 0 700 0C683.3 0 666.7 0 650 0C633.3 0 616.7 0 600 0C583.3 0 566.7 0 550 0C533.3 0 516.7 0 500 0C483.3 0 466.7 0 450 0C433.3 0 416.7 0 400 0C383.3 0 366.7 0 350 0C333.3 0 316.7 0 300 0C283.3 0 266.7 0 250 0C233.3 0 216.7 0 200 0C183.3 0 166.7 0 150 0C133.3 0 116.7 0 100 0C83.3 0 66.7 0 50 0C33.3 0 16.7 0 8.3 0L0 0Z" fill="#cd2d68"></path><path d="M0 20L8.3 20.7C16.7 21.3 33.3 22.7 50 23C66.7 23.3 83.3 22.7 100 25.5C116.7 28.3 133.3 34.7 150 33.7C166.7 32.7 183.3 24.3 200 19.5C216.7 14.7 233.3 13.3 250 12.7C266.7 12 283.3 12 300 13.2C316.7 14.3 333.3 16.7 350 18.3C366.7 20 383.3 21 400 24.8C416.7 28.7 433.3 35.3 450 34.7C466.7 34 483.3 26 500 23.3C516.7 20.7 533.3 23.3 550 23.2C566.7 23 583.3 20 600 18.5C616.7 17 633.3 17 650 18.7C666.7 20.3 683.3 23.7 700 27.2C716.7 30.7 733.3 34.3 750 32.5C766.7 30.7 783.3 23.3 800 21.3C816.7 19.3 833.3 22.7 850 22.8C866.7 23 883.3 20 891.7 18.5L900 17L900 0L891.7 0C883.3 0 866.7 0 850 0C833.3 0 816.7 0 800 0C783.3 0 766.7 0 750 0C733.3 0 716.7 0 700 0C683.3 0 666.7 0 650 0C633.3 0 616.7 0 600 0C583.3 0 566.7 0 550 0C533.3 0 516.7 0 500 0C483.3 0 466.7 0 450 0C433.3 0 416.7 0 400 0C383.3 0 366.7 0 350 0C333.3 0 316.7 0 300 0C283.3 0 266.7 0 250 0C233.3 0 216.7 0 200 0C183.3 0 166.7 0 150 0C133.3 0 116.7 0 100 0C83.3 0 66.7 0 50 0C33.3 0 16.7 0 8.3 0L0 0Z" fill="#c62368"></path></svg>