<svg id="visual" viewBox="0 0 900 600" width="900" height="600" xmlns="http://www.w3.org/2000/svg" xmlns:xlink="http://www.w3.org/1999/xlink" version="1.1"><rect x="0" y="0" width="900" height="600" fill="#242424"></rect><path d="M171 0L168.2 5.5C165.3 11 159.7 22 162.8 33.2C166 44.3 178 55.7 187.8 66.8C197.7 78 205.3 89 207.2 100C209 111 205 122 200.3 133.2C195.7 144.3 190.3 155.7 194.5 166.8C198.7 178 212.3 189 203.3 200C194.3 211 162.7 222 159.5 233.2C156.3 244.3 181.7 255.7 191.2 266.8C200.7 278 194.3 289 190.5 300C186.7 311 185.3 322 192.7 333.2C200 344.3 216 355.7 208 366.8C200 378 168 389 170.2 400C172.3 411 208.7 422 208.3 433.2C208 444.3 171 455.7 154.2 466.8C137.3 478 140.7 489 156.2 500C171.7 511 199.3 522 211.5 533.2C223.7 544.3 220.3 555.7 207.7 566.8C195 578 173 589 162 594.5L151 600L0 600L0 594.5C0 589 0 578 0 566.8C0 555.7 0 544.3 0 533.2C0 522 0 511 0 500C0 489 0 478 0 466.8C0 455.7 0 444.3 0 433.2C0 422 0 411 0 400C0 389 0 378 0 366.8C0 355.7 0 344.3 0 333.2C0 322 0 311 0 300C0 289 0 278 0 266.8C0 255.7 0 244.3 0 233.2C0 222 0 211 0 200C0 189 0 178 0 166.8C0 155.7 0 144.3 0 133.2C0 122 0 111 0 100C0 89 0 78 0 66.8C0 55.7 0 44.3 0 33.2C0 22 0 11 0 5.5L0 0Z" fill="#fa7268"></path><path d="M157 0L153.7 5.5C150.3 11 143.7 22 152.2 33.2C160.7 44.3 184.3 55.7 184.5 66.8C184.7 78 161.3 89 150.8 100C140.3 111 142.7 122 150.8 133.2C159 144.3 173 155.7 173.7 166.8C174.3 178 161.7 189 160.7 200C159.7 211 170.3 222 174 233.2C177.7 244.3 174.3 255.7 181 266.8C187.7 278 204.3 289 209 300C213.7 311 206.3 322 198.2 333.2C190 344.3 181 355.7 181.7 366.8C182.3 378 192.7 389 192.3 400C192 411 181 422 178.8 433.2C176.7 444.3 183.3 455.7 180.8 466.8C178.3 478 166.7 489 171 500C175.3 511 195.7 522 204.8 533.2C214 544.3 212 555.7 199 566.8C186 578 162 589 150 594.5L138 600L0 600L0 594.5C0 589 0 578 0 566.8C0 555.7 0 544.3 0 533.2C0 522 0 511 0 500C0 489 0 478 0 466.8C0 455.7 0 444.3 0 433.2C0 422 0 411 0 400C0 389 0 378 0 366.8C0 355.7 0 344.3 0 333.2C0 322 0 311 0 300C0 289 0 278 0 266.8C0 255.7 0 244.3 0 233.2C0 222 0 211 0 200C0 189 0 178 0 166.8C0 155.7 0 144.3 0 133.2C0 122 0 111 0 100C0 89 0 78 0 66.8C0 55.7 0 44.3 0 33.2C0 22 0 11 0 5.5L0 0Z" fill="#f66b68"></path><path d="M112 0L124.8 5.5C137.7 11 163.3 22 176.5 33.2C189.7 44.3 190.3 55.7 180.7 66.8C171 78 151 89 139.3 100C127.7 111 124.3 122 128.2 133.2C132 144.3 143 155.7 143.5 166.8C144 178 134 189 128.8 200C123.7 211 123.3 222 132.8 233.2C142.3 244.3 161.7 255.7 165 266.8C168.3 278 155.7 289 156.5 300C157.3 311 171.7 322 173.5 333.2C175.3 344.3 164.7 355.7 160.5 366.8C156.3 378 158.7 389 165.3 400C172 411 183 422 182.3 433.2C181.7 444.3 169.3 455.7 169 466.8C168.7 478 180.3 489 178.5 500C176.7 511 161.3 522 152.3 533.2C143.3 544.3 140.7 555.7 150.7 566.8C160.7 578 183.3 589 194.7 594.5L206 600L0 600L0 594.5C0 589 0 578 0 566.8C0 555.7 0 544.3 0 533.2C0 522 0 511 0 500C0 489 0 478 0 466.8C0 455.7 0 444.3 0 433.2C0 422 0 411 0 400C0 389 0 378 0 366.8C0 355.7 0 344.3 0 333.2C0 322 0 311 0 300C0 289 0 278 0 266.8C0 255.7 0 244.3 0 233.2C0 222 0 211 0 200C0 189 0 178 0 166.8C0 155.7 0 144.3 0 133.2C0 122 0 111 0 100C0 89 0 78 0 66.8C0 55.7 0 44.3 0 33.2C0 22 0 11 0 5.5L0 0Z" fill="#f26467"></path><path d="M167 0L168.8 5.5C170.7 11 174.3 22 179 33.2C183.7 44.3 189.3 55.7 185.3 66.8C181.3 78 167.7 89 163 100C158.3 111 162.7 122 158.3 133.2C154 144.3 141 155.7 143.8 166.8C146.7 178 165.3 189 161.8 200C158.3 211 132.7 222 121.7 233.2C110.7 244.3 114.3 255.7 125.3 266.8C136.3 278 154.7 289 167.2 300C179.7 311 186.3 322 184.8 333.2C183.3 344.3 173.7 355.7 173.5 366.8C173.3 378 182.7 389 186.3 400C190 411 188 422 175.3 433.2C162.7 444.3 139.3 455.7 139.3 466.8C139.3 478 162.7 489 173.3 500C184 511 182 522 172.3 533.2C162.7 544.3 145.3 555.7 137.7 566.8C130 578 132 589 133 594.5L134 600L0 600L0 594.5C0 589 0 578 0 566.8C0 555.7 0 544.3 0 533.2C0 522 0 511 0 500C0 489 0 478 0 466.8C0 455.7 0 444.3 0 433.2C0 422 0 411 0 400C0 389 0 378 0 366.8C0 355.7 0 344.3 0 333.2C0 322 0 311 0 300C0 289 0 278 0 266.8C0 255.7 0 244.3 0 233.2C0 222 0 211 0 200C0 189 0 178 0 166.8C0 155.7 0 144.3 0 133.2C0 122 0 111 0 100C0 89 0 78 0 66.8C0 55.7 0 44.3 0 33.2C0 22 0 11 0 5.5L0 0Z" fill="#ee5d67"></path><path d="M126 0L119.5 5.5C113 11 100 22 108.3 33.2C116.7 44.3 146.3 55.7 159.3 66.8C172.3 78 168.7 89 155.2 100C141.7 111 118.3 122 106.8 133.2C95.3 144.3 95.7 155.7 105 166.8C114.3 178 132.7 189 138 200C143.3 211 135.7 222 139.7 233.2C143.7 244.3 159.3 255.7 154.2 266.8C149 278 123 289 120.7 300C118.3 311 139.7 322 145 333.2C150.3 344.3 139.7 355.7 132.7 366.8C125.7 378 122.3 389 121 400C119.7 411 120.3 422 123 433.2C125.7 444.3 130.3 455.7 132.3 466.8C134.3 478 133.7 489 126.7 500C119.7 511 106.3 522 112 533.2C117.7 544.3 142.3 555.7 150.2 566.8C158 578 149 589 144.5 594.5L140 600L0 600L0 594.5C0 589 0 578 0 566.8C0 555.7 0 544.3 0 533.2C0 522 0 511 0 500C0 489 0 478 0 466.8C0 455.7 0 444.3 0 433.2C0 422 0 411 0 400C0 389 0 378 0 366.8C0 355.7 0 344.3 0 333.2C0 322 0 311 0 300C0 289 0 278 0 266.8C0 255.7 0 244.3 0 233.2C0 222 0 211 0 200C0 189 0 178 0 166.8C0 155.7 0 144.3 0 133.2C0 122 0 111 0 100C0 89 0 78 0 66.8C0 55.7 0 44.3 0 33.2C0 22 0 11 0 5.5L0 0Z" fill="#ea5667"></path><path d="M95 0L96.5 5.5C98 11 101 22 106.5 33.2C112 44.3 120 55.7 119.3 66.8C118.7 78 109.3 89 109.5 100C109.7 111 119.3 122 121.5 133.2C123.7 144.3 118.3 155.7 118 166.8C117.7 178 122.3 189 117.2 200C112 211 97 222 98.7 233.2C100.3 244.3 118.7 255.7 130.3 266.8C142 278 147 289 142.7 300C138.3 311 124.7 322 115.5 333.2C106.3 344.3 101.7 355.7 104 366.8C106.3 378 115.7 389 118 400C120.3 411 115.7 422 110.5 433.2C105.3 444.3 99.7 455.7 96.2 466.8C92.7 478 91.3 489 88.2 500C85 511 80 522 83.5 533.2C87 544.3 99 555.7 109.8 566.8C120.7 578 130.3 589 135.2 594.5L140 600L0 600L0 594.5C0 589 0 578 0 566.8C0 555.7 0 544.3 0 533.2C0 522 0 511 0 500C0 489 0 478 0 466.8C0 455.7 0 444.3 0 433.2C0 422 0 411 0 400C0 389 0 378 0 366.8C0 355.7 0 344.3 0 333.2C0 322 0 311 0 300C0 289 0 278 0 266.8C0 255.7 0 244.3 0 233.2C0 222 0 211 0 200C0 189 0 178 0 166.8C0 155.7 0 144.3 0 133.2C0 122 0 111 0 100C0 89 0 78 0 66.8C0 55.7 0 44.3 0 33.2C0 22 0 11 0 5.5L0 0Z" fill="#e54f67"></path><path d="M108 0L105.5 5.5C103 11 98 22 99.2 33.2C100.3 44.3 107.7 55.7 109.5 66.8C111.3 78 107.7 89 106.2 100C104.7 111 105.3 122 100.8 133.2C96.3 144.3 86.7 155.7 81 166.8C75.3 178 73.7 189 79.3 200C85 211 98 222 103.8 233.2C109.7 244.3 108.3 255.7 105 266.8C101.7 278 96.3 289 92 300C87.7 311 84.3 322 88.2 333.2C92 344.3 103 355.7 103.3 366.8C103.7 378 93.3 389 97.2 400C101 411 119 422 118.2 433.2C117.3 444.3 97.7 455.7 91 466.8C84.3 478 90.7 489 97.7 500C104.7 511 112.3 522 116.3 533.2C120.3 544.3 120.7 555.7 112.8 566.8C105 578 89 589 81 594.5L73 600L0 600L0 594.5C0 589 0 578 0 566.8C0 555.7 0 544.3 0 533.2C0 522 0 511 0 500C0 489 0 478 0 466.8C0 455.7 0 444.3 0 433.2C0 422 0 411 0 400C0 389 0 378 0 366.8C0 355.7 0 344.3 0 333.2C0 322 0 311 0 300C0 289 0 278 0 266.8C0 255.7 0 244.3 0 233.2C0 222 0 211 0 200C0 189 0 178 0 166.8C0 155.7 0 144.3 0 133.2C0 122 0 111 0 100C0 89 0 78 0 66.8C0 55.7 0 44.3 0 33.2C0 22 0 11 0 5.5L0 0Z" fill="#e14867"></path><path d="M66 0L73.2 5.5C80.3 11 94.7 22 93.2 33.2C91.7 44.3 74.3 55.7 68.3 66.8C62.3 78 67.7 89 72.5 100C77.3 111 81.7 122 84.8 133.2C88 144.3 90 155.7 88.5 166.8C87 178 82 189 83.7 200C85.3 211 93.7 222 92.2 233.2C90.7 244.3 79.3 255.7 73.7 266.8C68 278 68 289 71 300C74 311 80 322 82 333.2C84 344.3 82 355.7 76.2 366.8C70.3 378 60.7 389 63.7 400C66.7 411 82.3 422 92.8 433.2C103.3 444.3 108.7 455.7 109.7 466.8C110.7 478 107.3 489 100.5 500C93.7 511 83.3 522 77.2 533.2C71 544.3 69 555.7 72.8 566.8C76.7 578 86.3 589 91.2 594.5L96 600L0 600L0 594.5C0 589 0 578 0 566.8C0 555.7 0 544.3 0 533.2C0 522 0 511 0 500C0 489 0 478 0 466.8C0 455.7 0 444.3 0 433.2C0 422 0 411 0 400C0 389 0 378 0 366.8C0 355.7 0 344.3 0 333.2C0 322 0 311 0 300C0 289 0 278 0 266.8C0 255.7 0 244.3 0 233.2C0 222 0 211 0 200C0 189 0 178 0 166.8C0 155.7 0 144.3 0 133.2C0 122 0 111 0 100C0 89 0 78 0 66.8C0 55.7 0 44.3 0 33.2C0 22 0 11 0 5.5L0 0Z" fill="#dc4167"></path><path d="M51 0L54 5.5C57 11 63 22 63.7 33.2C64.3 44.3 59.7 55.7 60.8 66.8C62 78 69 89 71 100C73 111 70 122 68.5 133.2C67 144.3 67 155.7 70.8 166.8C74.7 178 82.3 189 86.3 200C90.3 211 90.7 222 83.8 233.2C77 244.3 63 255.7 60.5 266.8C58 278 67 289 65.8 300C64.7 311 53.3 322 56.7 333.2C60 344.3 78 355.7 78 366.8C78 378 60 389 52.5 400C45 411 48 422 54.8 433.2C61.7 444.3 72.3 455.7 71.8 466.8C71.3 478 59.7 489 61.3 500C63 511 78 522 84.5 533.2C91 544.3 89 555.7 81.3 566.8C73.7 578 60.3 589 53.7 594.5L47 600L0 600L0 594.5C0 589 0 578 0 566.8C0 555.7 0 544.3 0 533.2C0 522 0 511 0 500C0 489 0 478 0 466.8C0 455.7 0 444.3 0 433.2C0 422 0 411 0 400C0 389 0 378 0 366.8C0 355.7 0 344.3 0 333.2C0 322 0 311 0 300C0 289 0 278 0 266.8C0 255.7 0 244.3 0 233.2C0 222 0 211 0 200C0 189 0 178 0 166.8C0 155.7 0 144.3 0 133.2C0 122 0 111 0 100C0 89 0 78 0 66.8C0 55.7 0 44.3 0 33.2C0 22 0 11 0 5.5L0 0Z" fill="#d73a67"></path><path d="M72 0L72.3 5.5C72.7 11 73.3 22 69 33.2C64.7 44.3 55.3 55.7 53.2 66.8C51 78 56 89 61.2 100C66.3 111 71.7 122 72.7 133.2C73.7 144.3 70.3 155.7 66.7 166.8C63 178 59 189 53 200C47 211 39 222 40 233.2C41 244.3 51 255.7 55 266.8C59 278 57 289 52.3 300C47.7 311 40.3 322 37.3 333.2C34.3 344.3 35.7 355.7 36.8 366.8C38 378 39 389 39.7 400C40.3 411 40.7 422 42.2 433.2C43.7 444.3 46.3 455.7 47.2 466.8C48 478 47 489 47.3 500C47.7 511 49.3 522 50.8 533.2C52.3 544.3 53.7 555.7 54 566.8C54.3 578 53.7 589 53.3 594.5L53 600L0 600L0 594.5C0 589 0 578 0 566.8C0 555.7 0 544.3 0 533.2C0 522 0 511 0 500C0 489 0 478 0 466.8C0 455.7 0 444.3 0 433.2C0 422 0 411 0 400C0 389 0 378 0 366.8C0 355.7 0 344.3 0 333.2C0 322 0 311 0 300C0 289 0 278 0 266.8C0 255.7 0 244.3 0 233.2C0 222 0 211 0 200C0 189 0 178 0 166.8C0 155.7 0 144.3 0 133.2C0 122 0 111 0 100C0 89 0 78 0 66.8C0 55.7 0 44.3 0 33.2C0 22 0 11 0 5.5L0 0Z" fill="#d13367"></path><path d="M17 0L21.8 5.5C26.7 11 36.3 22 39.5 33.2C42.7 44.3 39.3 55.7 35.8 66.8C32.3 78 28.7 89 30.8 100C33 111 41 122 43.5 133.2C46 144.3 43 155.7 43.5 166.8C44 178 48 189 49.2 200C50.3 211 48.7 222 44 233.2C39.3 244.3 31.7 255.7 27.5 266.8C23.3 278 22.7 289 26.7 300C30.7 311 39.3 322 44.7 333.2C50 344.3 52 355.7 50 366.8C48 378 42 389 37.7 400C33.3 411 30.7 422 31 433.2C31.3 444.3 34.7 455.7 38.7 466.8C42.7 478 47.3 489 48.8 500C50.3 511 48.7 522 48.7 533.2C48.7 544.3 50.3 555.7 46.2 566.8C42 578 32 589 27 594.5L22 600L0 600L0 594.5C0 589 0 578 0 566.8C0 555.7 0 544.3 0 533.2C0 522 0 511 0 500C0 489 0 478 0 466.8C0 455.7 0 444.3 0 433.2C0 422 0 411 0 400C0 389 0 378 0 366.8C0 355.7 0 344.3 0 333.2C0 322 0 311 0 300C0 289 0 278 0 266.8C0 255.7 0 244.3 0 233.2C0 222 0 211 0 200C0 189 0 178 0 166.8C0 155.7 0 144.3 0 133.2C0 122 0 111 0 100C0 89 0 78 0 66.8C0 55.7 0 44.3 0 33.2C0 22 0 11 0 5.5L0 0Z" fill="#cc2b68"></path><path d="M30 0L29.5 5.5C29 11 28 22 27.2 33.2C26.3 44.3 25.7 55.7 26 66.8C26.3 78 27.7 89 28 100C28.3 111 27.7 122 24.7 133.2C21.7 144.3 16.3 155.7 15 166.8C13.7 178 16.3 189 15.7 200C15 211 11 222 10.7 233.2C10.3 244.3 13.7 255.7 14.5 266.8C15.3 278 13.7 289 12 300C10.3 311 8.7 322 10.2 333.2C11.7 344.3 16.3 355.7 20.7 366.8C25 378 29 389 31.8 400C34.7 411 36.3 422 32.7 433.2C29 444.3 20 455.7 19.7 466.8C19.3 478 27.7 489 31.2 500C34.7 511 33.3 522 29.7 533.2C26 544.3 20 555.7 21 566.8C22 578 30 589 34 594.5L38 600L0 600L0 594.5C0 589 0 578 0 566.8C0 555.7 0 544.3 0 533.2C0 522 0 511 0 500C0 489 0 478 0 466.8C0 455.7 0 444.3 0 433.2C0 422 0 411 0 400C0 389 0 378 0 366.8C0 355.7 0 344.3 0 333.2C0 322 0 311 0 300C0 289 0 278 0 266.8C0 255.7 0 244.3 0 233.2C0 222 0 211 0 200C0 189 0 178 0 166.8C0 155.7 0 144.3 0 133.2C0 122 0 111 0 100C0 89 0 78 0 66.8C0 55.7 0 44.3 0 33.2C0 22 0 11 0 5.5L0 0Z" fill="#c62368"></path></svg>