<svg id="visual" viewBox="0 0 900 600" width="900" height="600" xmlns="http://www.w3.org/2000/svg" xmlns:xlink="http://www.w3.org/1999/xlink" version="1.1"><rect x="0" y="0" width="900" height="600" fill="#242424"></rect><path d="M0 94L8.3 98C16.7 102 33.3 110 50 119.5C66.7 129 83.3 140 100 136.3C116.7 132.7 133.3 114.3 150 110.5C166.7 106.7 183.3 117.3 200 118C216.7 118.7 233.3 109.3 250 109C266.7 108.7 283.3 117.3 300 117C316.7 116.7 333.3 107.3 350 104.8C366.7 102.3 383.3 106.7 400 114C416.7 121.3 433.3 131.7 450 133.3C466.7 135 483.3 128 500 119C516.7 110 533.3 99 550 101.8C566.7 104.7 583.3 121.3 600 126.7C616.7 132 633.3 126 650 123.8C666.7 121.7 683.3 123.3 700 129.8C716.7 136.3 733.3 147.7 750 145.2C766.7 142.7 783.3 126.3 800 120.3C816.7 114.3 833.3 118.7 850 120.8C866.7 123 883.3 123 891.7 123L900 123L900 0L891.7 0C883.3 0 866.7 0 850 0C833.3 0 816.7 0 800 0C783.3 0 766.7 0 750 0C733.3 0 716.7 0 700 0C683.3 0 666.7 0 650 0C633.3 0 616.7 0 600 0C583.3 0 566.7 0 550 0C533.3 0 516.7 0 500 0C483.3 0 466.7 0 450 0C433.3 0 416.7 0 400 0C383.3 0 366.7 0 350 0C333.3 0 316.7 0 300 0C283.3 0 266.7 0 250 0C233.3 0 216.7 0 200 0C183.3 0 166.7 0 150 0C133.3 0 116.7 0 100 0C83.3 0 66.7 0 50 0C33.3 0 16.7 0 8.3 0L0 0Z" fill="#fa7268"></path><path d="M0 141L8.3 139.8C16.7 138.7 33.3 136.3 50 128.8C66.7 121.3 83.3 108.7 100 104.5C116.7 100.3 133.3 104.7 150 113C166.7 121.3 183.3 133.7 200 132.7C216.7 131.7 233.3 117.3 250 111.5C266.7 105.7 283.3 108.3 300 108C316.7 107.7 333.3 104.3 350 103C366.7 101.7 383.3 102.3 400 111.2C416.7 120 433.3 137 450 134.5C466.7 132 483.3 110 500 106C516.7 102 533.3 116 550 122.2C566.7 128.3 583.3 126.7 600 123.2C616.7 119.7 633.3 114.3 650 117C666.7 119.7 683.3 130.3 700 130.8C716.7 131.3 733.3 121.7 750 118C766.7 114.3 783.3 116.7 800 117.5C816.7 118.3 833.3 117.7 850 121.8C866.7 126 883.3 135 891.7 139.5L900 144L900 0L891.7 0C883.3 0 866.7 0 850 0C833.3 0 816.7 0 800 0C783.3 0 766.7 0 750 0C733.3 0 716.7 0 700 0C683.3 0 666.7 0 650 0C633.3 0 616.7 0 600 0C583.3 0 566.7 0 550 0C533.3 0 516.7 0 500 0C483.3 0 466.7 0 450 0C433.3 0 416.7 0 400 0C383.3 0 366.7 0 350 0C333.3 0 316.7 0 300 0C283.3 0 266.7 0 250 0C233.3 0 216.7 0 200 0C183.3 0 166.7 0 150 0C133.3 0 116.7 0 100 0C83.3 0 66.7 0 50 0C33.3 0 16.7 0 8.3 0L0 0Z" fill="#f66b68"></path><path d="M0 137L8.3 136.8C16.7 136.7 33.3 136.3 50 129C66.7 121.7 83.3 107.3 100 101.5C116.7 95.7 133.3 98.3 150 94.7C166.7 91 183.3 81 200 81.5C216.7 82 233.3 93 250 101C266.7 109 283.3 114 300 116.8C316.7 119.7 333.3 120.3 350 115.7C366.7 111 383.3 101 400 93C416.7 85 433.3 79 450 81.3C466.7 83.7 483.3 94.3 500 95.8C516.7 97.3 533.3 89.7 550 86.5C566.7 83.3 583.3 84.7 600 83.8C616.7 83 633.3 80 650 88C666.7 96 683.3 115 700 125.5C716.7 136 733.3 138 750 130.8C766.7 123.7 783.3 107.3 800 98.2C816.7 89 833.3 87 850 95C866.7 103 883.3 121 891.7 130L900 139L900 0L891.7 0C883.3 0 866.7 0 850 0C833.3 0 816.7 0 800 0C783.3 0 766.7 0 750 0C733.3 0 716.7 0 700 0C683.3 0 666.7 0 650 0C633.3 0 616.7 0 600 0C583.3 0 566.7 0 550 0C533.3 0 516.7 0 500 0C483.3 0 466.7 0 450 0C433.3 0 416.7 0 400 0C383.3 0 366.7 0 350 0C333.3 0 316.7 0 300 0C283.3 0 266.7 0 250 0C233.3 0 216.7 0 200 0C183.3 0 166.7 0 150 0C133.3 0 116.7 0 100 0C83.3 0 66.7 0 50 0C33.3 0 16.7 0 8.3 0L0 0Z" fill="#f26467"></path><path d="M0 91L8.3 86.7C16.7 82.3 33.3 73.7 50 69.8C66.7 66 83.3 67 100 75C116.7 83 133.3 98 150 103C166.7 108 183.3 103 200 98C216.7 93 233.3 88 250 88.8C266.7 89.7 283.3 96.3 300 102C316.7 107.7 333.3 112.3 350 115.5C366.7 118.7 383.3 120.3 400 120.7C416.7 121 433.3 120 450 120.5C466.7 121 483.3 123 500 116.7C516.7 110.3 533.3 95.7 550 93.7C566.7 91.7 583.3 102.3 600 100.3C616.7 98.3 633.3 83.7 650 82.7C666.7 81.7 683.3 94.3 700 100.7C716.7 107 733.3 107 750 100.2C766.7 93.3 783.3 79.7 800 76.2C816.7 72.7 833.3 79.3 850 88.3C866.7 97.3 883.3 108.7 891.7 114.3L900 120L900 0L891.7 0C883.3 0 866.7 0 850 0C833.3 0 816.7 0 800 0C783.3 0 766.7 0 750 0C733.3 0 716.7 0 700 0C683.3 0 666.7 0 650 0C633.3 0 616.7 0 600 0C583.3 0 566.7 0 550 0C533.3 0 516.7 0 500 0C483.3 0 466.7 0 450 0C433.3 0 416.7 0 400 0C383.3 0 366.7 0 350 0C333.3 0 316.7 0 300 0C283.3 0 266.7 0 250 0C233.3 0 216.7 0 200 0C183.3 0 166.7 0 150 0C133.3 0 116.7 0 100 0C83.3 0 66.7 0 50 0C33.3 0 16.7 0 8.3 0L0 0Z" fill="#ee5d67"></path><path d="M0 99L8.3 98C16.7 97 33.3 95 50 89.5C66.7 84 83.3 75 100 74.5C116.7 74 133.3 82 150 88.7C166.7 95.3 183.3 100.7 200 103.2C216.7 105.7 233.3 105.3 250 97.8C266.7 90.3 283.3 75.7 300 70.3C316.7 65 333.3 69 350 70.3C366.7 71.7 383.3 70.3 400 72C416.7 73.7 433.3 78.3 450 85.2C466.7 92 483.3 101 500 103.2C516.7 105.3 533.3 100.7 550 100.2C566.7 99.7 583.3 103.3 600 97.7C616.7 92 633.3 77 650 77C666.7 77 683.3 92 700 91.3C716.7 90.7 733.3 74.3 750 67.7C766.7 61 783.3 64 800 72C816.7 80 833.3 93 850 91.8C866.7 90.7 883.3 75.3 891.7 67.7L900 60L900 0L891.7 0C883.3 0 866.7 0 850 0C833.3 0 816.7 0 800 0C783.3 0 766.7 0 750 0C733.3 0 716.7 0 700 0C683.3 0 666.7 0 650 0C633.3 0 616.7 0 600 0C583.3 0 566.7 0 550 0C533.3 0 516.7 0 500 0C483.3 0 466.7 0 450 0C433.3 0 416.7 0 400 0C383.3 0 366.7 0 350 0C333.3 0 316.7 0 300 0C283.3 0 266.7 0 250 0C233.3 0 216.7 0 200 0C183.3 0 166.7 0 150 0C133.3 0 116.7 0 100 0C83.3 0 66.7 0 50 0C33.3 0 16.7 0 8.3 0L0 0Z" fill="#ea5667"></path><path d="M0 69L8.3 73.2C16.7 77.3 33.3 85.7 50 85C66.7 84.3 83.3 74.7 100 67C116.7 59.3 133.3 53.7 150 53.2C166.7 52.7 183.3 57.3 200 58.3C216.7 59.3 233.3 56.7 250 59C266.7 61.3 283.3 68.7 300 73.7C316.7 78.7 333.3 81.3 350 80.5C366.7 79.7 383.3 75.3 400 75.2C416.7 75 433.3 79 450 80C466.7 81 483.3 79 500 73.3C516.7 67.7 533.3 58.3 550 53.8C566.7 49.3 583.3 49.7 600 54.7C616.7 59.7 633.3 69.3 650 70C666.7 70.7 683.3 62.3 700 63.5C716.7 64.7 733.3 75.3 750 77.2C766.7 79 783.3 72 800 67.5C816.7 63 833.3 61 850 66.8C866.7 72.7 883.3 86.3 891.7 93.2L900 100L900 0L891.7 0C883.3 0 866.7 0 850 0C833.3 0 816.7 0 800 0C783.3 0 766.7 0 750 0C733.3 0 716.7 0 700 0C683.3 0 666.7 0 650 0C633.3 0 616.7 0 600 0C583.3 0 566.7 0 550 0C533.3 0 516.7 0 500 0C483.3 0 466.7 0 450 0C433.3 0 416.7 0 400 0C383.3 0 366.7 0 350 0C333.3 0 316.7 0 300 0C283.3 0 266.7 0 250 0C233.3 0 216.7 0 200 0C183.3 0 166.7 0 150 0C133.3 0 116.7 0 100 0C83.3 0 66.7 0 50 0C33.3 0 16.7 0 8.3 0L0 0Z" fill="#e54f67"></path><path d="M0 58L8.3 56.3C16.7 54.7 33.3 51.3 50 54.8C66.7 58.3 83.3 68.7 100 73.7C116.7 78.7 133.3 78.3 150 74.8C166.7 71.3 183.3 64.7 200 65.5C216.7 66.3 233.3 74.7 250 79.7C266.7 84.7 283.3 86.3 300 83.2C316.7 80 333.3 72 350 67.3C366.7 62.7 383.3 61.3 400 65.5C416.7 69.7 433.3 79.3 450 78.8C466.7 78.3 483.3 67.7 500 65C516.7 62.3 533.3 67.7 550 70C566.7 72.3 583.3 71.7 600 66.7C616.7 61.7 633.3 52.3 650 50.7C666.7 49 683.3 55 700 60C716.7 65 733.3 69 750 66.3C766.7 63.7 783.3 54.3 800 52.3C816.7 50.3 833.3 55.7 850 55C866.7 54.3 883.3 47.7 891.7 44.3L900 41L900 0L891.7 0C883.3 0 866.7 0 850 0C833.3 0 816.7 0 800 0C783.3 0 766.7 0 750 0C733.3 0 716.7 0 700 0C683.3 0 666.7 0 650 0C633.3 0 616.7 0 600 0C583.3 0 566.7 0 550 0C533.3 0 516.7 0 500 0C483.3 0 466.7 0 450 0C433.3 0 416.7 0 400 0C383.3 0 366.7 0 350 0C333.3 0 316.7 0 300 0C283.3 0 266.7 0 250 0C233.3 0 216.7 0 200 0C183.3 0 166.7 0 150 0C133.3 0 116.7 0 100 0C83.3 0 66.7 0 50 0C33.3 0 16.7 0 8.3 0L0 0Z" fill="#e14867"></path><path d="M0 62L8.3 63.2C16.7 64.3 33.3 66.7 50 65C66.7 63.3 83.3 57.7 100 54.8C116.7 52 133.3 52 150 55.5C166.7 59 183.3 66 200 63.8C216.7 61.7 233.3 50.3 250 45.3C266.7 40.3 283.3 41.7 300 44.5C316.7 47.3 333.3 51.7 350 50.5C366.7 49.3 383.3 42.7 400 46C416.7 49.3 433.3 62.7 450 66.7C466.7 70.7 483.3 65.3 500 62C516.7 58.7 533.3 57.3 550 53.7C566.7 50 583.3 44 600 47.3C616.7 50.7 633.3 63.3 650 65C666.7 66.7 683.3 57.3 700 56.7C716.7 56 733.3 64 750 63C766.7 62 783.3 52 800 46.8C816.7 41.7 833.3 41.3 850 43.7C866.7 46 883.3 51 891.7 53.5L900 56L900 0L891.7 0C883.3 0 866.7 0 850 0C833.3 0 816.7 0 800 0C783.3 0 766.7 0 750 0C733.3 0 716.7 0 700 0C683.3 0 666.7 0 650 0C633.3 0 616.7 0 600 0C583.3 0 566.7 0 550 0C533.3 0 516.7 0 500 0C483.3 0 466.7 0 450 0C433.3 0 416.7 0 400 0C383.3 0 366.7 0 350 0C333.3 0 316.7 0 300 0C283.3 0 266.7 0 250 0C233.3 0 216.7 0 200 0C183.3 0 166.7 0 150 0C133.3 0 116.7 0 100 0C83.3 0 66.7 0 50 0C33.3 0 16.7 0 8.3 0L0 0Z" fill="#dc4167"></path><path d="M0 55L8.3 52.3C16.7 49.7 33.3 44.3 50 40.7C66.7 37 83.3 35 100 35C116.7 35 133.3 37 150 41.7C166.7 46.3 183.3 53.7 200 55.3C216.7 57 233.3 53 250 50.5C266.7 48 283.3 47 300 47.3C316.7 47.7 333.3 49.3 350 49C366.7 48.7 383.3 46.3 400 42.2C416.7 38 433.3 32 450 33.3C466.7 34.7 483.3 43.3 500 45.8C516.7 48.3 533.3 44.7 550 41.2C566.7 37.7 583.3 34.3 600 37.3C616.7 40.3 633.3 49.7 650 50.5C666.7 51.3 683.3 43.7 700 39.2C716.7 34.7 733.3 33.3 750 36C766.7 38.7 783.3 45.3 800 48.2C816.7 51 833.3 50 850 46.3C866.7 42.7 883.3 36.3 891.7 33.2L900 30L900 0L891.7 0C883.3 0 866.7 0 850 0C833.3 0 816.7 0 800 0C783.3 0 766.7 0 750 0C733.3 0 716.7 0 700 0C683.3 0 666.7 0 650 0C633.3 0 616.7 0 600 0C583.3 0 566.7 0 550 0C533.3 0 516.7 0 500 0C483.3 0 466.7 0 450 0C433.3 0 416.7 0 400 0C383.3 0 366.7 0 350 0C333.3 0 316.7 0 300 0C283.3 0 266.7 0 250 0C233.3 0 216.7 0 200 0C183.3 0 166.7 0 150 0C133.3 0 116.7 0 100 0C83.3 0 66.7 0 50 0C33.3 0 16.7 0 8.3 0L0 0Z" fill="#d73a67"></path><path d="M0 41L8.3 39.8C16.7 38.7 33.3 36.3 50 35.5C66.7 34.7 83.3 35.3 100 37.5C116.7 39.7 133.3 43.3 150 42.5C166.7 41.7 183.3 36.3 200 31.8C216.7 27.3 233.3 23.7 250 22C266.7 20.3 283.3 20.7 300 25C316.7 29.3 333.3 37.7 350 38.2C366.7 38.7 383.3 31.3 400 28.3C416.7 25.3 433.3 26.7 450 31C466.7 35.3 483.3 42.7 500 44C516.7 45.3 533.3 40.7 550 36C566.7 31.3 583.3 26.7 600 28.5C616.7 30.3 633.3 38.7 650 40.8C666.7 43 683.3 39 700 37C716.7 35 733.3 35 750 34.5C766.7 34 783.3 33 800 30.5C816.7 28 833.3 24 850 24.2C866.7 24.3 883.3 28.7 891.7 30.8L900 33L900 0L891.7 0C883.3 0 866.7 0 850 0C833.3 0 816.7 0 800 0C783.3 0 766.7 0 750 0C733.3 0 716.7 0 700 0C683.3 0 666.7 0 650 0C633.3 0 616.7 0 600 0C583.3 0 566.7 0 550 0C533.3 0 516.7 0 500 0C483.3 0 466.7 0 450 0C433.3 0 416.7 0 400 0C383.3 0 366.7 0 350 0C333.3 0 316.7 0 300 0C283.3 0 266.7 0 250 0C233.3 0 216.7 0 200 0C183.3 0 166.7 0 150 0C133.3 0 116.7 0 100 0C83.3 0 66.7 0 50 0C33.3 0 16.7 0 8.3 0L0 0Z" fill="#d13367"></path><path d="M0 36L8.3 33.7C16.7 31.3 33.3 26.7 50 25.3C66.7 24 83.3 26 100 26.2C116.7 26.3 133.3 24.7 150 22.3C166.7 20 183.3 17 200 17.7C216.7 18.3 233.3 22.7 250 22.8C266.7 23 283.3 19 300 17.7C316.7 16.3 333.3 17.7 350 21.3C366.7 25 383.3 31 400 32C416.7 33 433.3 29 450 25.5C466.7 22 483.3 19 500 21C516.7 23 533.3 30 550 29.3C566.7 28.7 583.3 20.3 600 16.3C616.7 12.3 633.3 12.7 650 13.2C666.7 13.7 683.3 14.3 700 16.5C716.7 18.7 733.3 22.3 750 25.5C766.7 28.7 783.3 31.3 800 29.3C816.7 27.3 833.3 20.7 850 19.8C866.7 19 883.3 24 891.7 26.5L900 29L900 0L891.7 0C883.3 0 866.7 0 850 0C833.3 0 816.7 0 800 0C783.3 0 766.7 0 750 0C733.3 0 716.7 0 700 0C683.3 0 666.7 0 650 0C633.3 0 616.7 0 600 0C583.3 0 566.7 0 550 0C533.3 0 516.7 0 500 0C483.3 0 466.7 0 450 0C433.3 0 416.7 0 400 0C383.3 0 366.7 0 350 0C333.3 0 316.7 0 300 0C283.3 0 266.7 0 250 0C233.3 0 216.7 0 200 0C183.3 0 166.7 0 150 0C133.3 0 116.7 0 100 0C83.3 0 66.7 0 50 0C33.3 0 16.7 0 8.3 0L0 0Z" fill="#cc2b68"></path><path d="M0 12L8.3 13.5C16.7 15 33.3 18 50 16.3C66.7 14.7 83.3 8.3 100 8.7C116.7 9 133.3 16 150 16.2C166.7 16.3 183.3 9.7 200 9.3C216.7 9 233.3 15 250 15.3C266.7 15.7 283.3 10.3 300 8.8C316.7 7.3 333.3 9.7 350 9.2C366.7 8.7 383.3 5.3 400 5.7C416.7 6 433.3 10 450 12C466.7 14 483.3 14 500 12.7C516.7 11.3 533.3 8.7 550 8C566.7 7.3 583.3 8.7 600 10.3C616.7 12 633.3 14 650 14.3C666.7 14.7 683.3 13.3 700 11.2C716.7 9 733.3 6 750 6.8C766.7 7.7 783.3 12.3 800 15C816.7 17.7 833.3 18.3 850 18.2C866.7 18 883.3 17 891.7 16.5L900 16L900 0L891.7 0C883.3 0 866.7 0 850 0C833.3 0 816.7 0 800 0C783.3 0 766.7 0 750 0C733.3 0 716.7 0 700 0C683.3 0 666.7 0 650 0C633.3 0 616.7 0 600 0C583.3 0 566.7 0 550 0C533.3 0 516.7 0 500 0C483.3 0 466.7 0 450 0C433.3 0 416.7 0 400 0C383.3 0 366.7 0 350 0C333.3 0 316.7 0 300 0C283.3 0 266.7 0 250 0C233.3 0 216.7 0 200 0C183.3 0 166.7 0 150 0C133.3 0 116.7 0 100 0C83.3 0 66.7 0 50 0C33.3 0 16.7 0 8.3 0L0 0Z" fill="#c62368"></path></svg>