<svg id="visual" viewBox="0 0 900 600" width="900" height="600" xmlns="http://www.w3.org/2000/svg" xmlns:xlink="http://www.w3.org/1999/xlink" version="1.1"><rect x="0" y="0" width="900" height="600" fill="#242424"></rect><path d="M0 174L6.5 178.2C13 182.3 26 190.7 39 195.7C52 200.7 65 202.3 78 193.3C91 184.3 104 164.7 117.2 153.5C130.3 142.3 143.7 139.7 156.8 137.8C170 136 183 135 196 147.3C209 159.7 222 185.3 235 195.7C248 206 261 201 274 186.3C287 171.7 300 147.3 313 150.2C326 153 339 183 352 198.5C365 214 378 215 391 212.7C404 210.3 417 204.7 430.2 193.3C443.3 182 456.7 165 469.8 166C483 167 496 186 509 196.2C522 206.3 535 207.7 548 200C561 192.3 574 175.7 587 172.3C600 169 613 179 626 179.8C639 180.7 652 172.3 665 170.2C678 168 691 172 704 175C717 178 730 180 743.2 175.8C756.3 171.7 769.7 161.3 782.8 153.7C796 146 809 141 822 151.2C835 161.3 848 186.7 861 188.3C874 190 887 168 893.5 157L900 146L900 0L893.5 0C887 0 874 0 861 0C848 0 835 0 822 0C809 0 796 0 782.8 0C769.7 0 756.3 0 743.2 0C730 0 717 0 704 0C691 0 678 0 665 0C652 0 639 0 626 0C613 0 600 0 587 0C574 0 561 0 548 0C535 0 522 0 509 0C496 0 483 0 469.8 0C456.7 0 443.3 0 430.2 0C417 0 404 0 391 0C378 0 365 0 352 0C339 0 326 0 313 0C300 0 287 0 274 0C261 0 248 0 235 0C222 0 209 0 196 0C183 0 170 0 156.8 0C143.7 0 130.3 0 117.2 0C104 0 91 0 78 0C65 0 52 0 39 0C26 0 13 0 6.5 0L0 0Z" fill="#fa7268"></path><path d="M0 132L6.5 140.7C13 149.3 26 166.7 39 175.2C52 183.7 65 183.3 78 185C91 186.7 104 190.3 117.2 185.2C130.3 180 143.7 166 156.8 166.2C170 166.3 183 180.7 196 178C209 175.3 222 155.7 235 147.7C248 139.7 261 143.3 274 150.2C287 157 300 167 313 168.3C326 169.7 339 162.3 352 163.3C365 164.3 378 173.7 391 174.3C404 175 417 167 430.2 155.7C443.3 144.3 456.7 129.7 469.8 124.2C483 118.7 496 122.3 509 133.5C522 144.7 535 163.3 548 164.2C561 165 574 148 587 145C600 142 613 153 626 157.5C639 162 652 160 665 152.2C678 144.3 691 130.7 704 132.2C717 133.7 730 150.3 743.2 159.7C756.3 169 769.7 171 782.8 162.5C796 154 809 135 822 131.5C835 128 848 140 861 149C874 158 887 164 893.5 167L900 170L900 0L893.5 0C887 0 874 0 861 0C848 0 835 0 822 0C809 0 796 0 782.8 0C769.7 0 756.3 0 743.2 0C730 0 717 0 704 0C691 0 678 0 665 0C652 0 639 0 626 0C613 0 600 0 587 0C574 0 561 0 548 0C535 0 522 0 509 0C496 0 483 0 469.8 0C456.7 0 443.3 0 430.2 0C417 0 404 0 391 0C378 0 365 0 352 0C339 0 326 0 313 0C300 0 287 0 274 0C261 0 248 0 235 0C222 0 209 0 196 0C183 0 170 0 156.8 0C143.7 0 130.3 0 117.2 0C104 0 91 0 78 0C65 0 52 0 39 0C26 0 13 0 6.5 0L0 0Z" fill="#f66b68"></path><path d="M0 137L6.5 138.5C13 140 26 143 39 137C52 131 65 116 78 117.8C91 119.7 104 138.3 117.2 138.3C130.3 138.3 143.7 119.7 156.8 117.7C170 115.7 183 130.3 196 135.3C209 140.3 222 135.7 235 133.2C248 130.7 261 130.3 274 138.3C287 146.3 300 162.7 313 167.3C326 172 339 165 352 165.2C365 165.3 378 172.7 391 168C404 163.3 417 146.7 430.2 137.3C443.3 128 456.7 126 469.8 122C483 118 496 112 509 113C522 114 535 122 548 129.8C561 137.7 574 145.3 587 146.7C600 148 613 143 626 134.5C639 126 652 114 665 119.2C678 124.3 691 146.7 704 149.3C717 152 730 135 743.2 131C756.3 127 769.7 136 782.8 139.8C796 143.7 809 142.3 822 135.3C835 128.3 848 115.7 861 112C874 108.3 887 113.7 893.5 116.3L900 119L900 0L893.5 0C887 0 874 0 861 0C848 0 835 0 822 0C809 0 796 0 782.8 0C769.7 0 756.3 0 743.2 0C730 0 717 0 704 0C691 0 678 0 665 0C652 0 639 0 626 0C613 0 600 0 587 0C574 0 561 0 548 0C535 0 522 0 509 0C496 0 483 0 469.8 0C456.7 0 443.3 0 430.2 0C417 0 404 0 391 0C378 0 365 0 352 0C339 0 326 0 313 0C300 0 287 0 274 0C261 0 248 0 235 0C222 0 209 0 196 0C183 0 170 0 156.8 0C143.7 0 130.3 0 117.2 0C104 0 91 0 78 0C65 0 52 0 39 0C26 0 13 0 6.5 0L0 0Z" fill="#f26467"></path><path d="M0 123L6.5 125.3C13 127.7 26 132.3 39 137.2C52 142 65 147 78 142.3C91 137.7 104 123.3 117.2 123.3C130.3 123.3 143.7 137.7 156.8 146.8C170 156 183 160 196 152.7C209 145.3 222 126.7 235 116.8C248 107 261 106 274 113C287 120 300 135 313 144.5C326 154 339 158 352 151.2C365 144.3 378 126.7 391 121.7C404 116.7 417 124.3 430.2 122.8C443.3 121.3 456.7 110.7 469.8 113.7C483 116.7 496 133.3 509 142.5C522 151.7 535 153.3 548 146.5C561 139.7 574 124.3 587 126.3C600 128.3 613 147.7 626 152.8C639 158 652 149 665 147.3C678 145.7 691 151.3 704 151.7C717 152 730 147 743.2 145.5C756.3 144 769.7 146 782.8 137.7C796 129.3 809 110.7 822 106C835 101.3 848 110.7 861 117.7C874 124.7 887 129.3 893.5 131.7L900 134L900 0L893.5 0C887 0 874 0 861 0C848 0 835 0 822 0C809 0 796 0 782.8 0C769.7 0 756.3 0 743.2 0C730 0 717 0 704 0C691 0 678 0 665 0C652 0 639 0 626 0C613 0 600 0 587 0C574 0 561 0 548 0C535 0 522 0 509 0C496 0 483 0 469.8 0C456.7 0 443.3 0 430.2 0C417 0 404 0 391 0C378 0 365 0 352 0C339 0 326 0 313 0C300 0 287 0 274 0C261 0 248 0 235 0C222 0 209 0 196 0C183 0 170 0 156.8 0C143.7 0 130.3 0 117.2 0C104 0 91 0 78 0C65 0 52 0 39 0C26 0 13 0 6.5 0L0 0Z" fill="#ee5d67"></path><path d="M0 79L6.5 80.2C13 81.3 26 83.7 39 86.7C52 89.7 65 93.3 78 92.8C91 92.3 104 87.7 117.2 95.3C130.3 103 143.7 123 156.8 128.8C170 134.7 183 126.3 196 123.2C209 120 222 122 235 122C248 122 261 120 274 118.8C287 117.7 300 117.3 313 119C326 120.7 339 124.3 352 124C365 123.7 378 119.3 391 115.2C404 111 417 107 430.2 106.8C443.3 106.7 456.7 110.3 469.8 106.5C483 102.7 496 91.3 509 90.8C522 90.3 535 100.7 548 102.2C561 103.7 574 96.3 587 98.5C600 100.7 613 112.3 626 115.7C639 119 652 114 665 109.5C678 105 691 101 704 98C717 95 730 93 743.2 92C756.3 91 769.7 91 782.8 93.3C796 95.7 809 100.3 822 104.2C835 108 848 111 861 110.3C874 109.7 887 105.3 893.5 103.2L900 101L900 0L893.5 0C887 0 874 0 861 0C848 0 835 0 822 0C809 0 796 0 782.8 0C769.7 0 756.3 0 743.2 0C730 0 717 0 704 0C691 0 678 0 665 0C652 0 639 0 626 0C613 0 600 0 587 0C574 0 561 0 548 0C535 0 522 0 509 0C496 0 483 0 469.8 0C456.7 0 443.3 0 430.2 0C417 0 404 0 391 0C378 0 365 0 352 0C339 0 326 0 313 0C300 0 287 0 274 0C261 0 248 0 235 0C222 0 209 0 196 0C183 0 170 0 156.8 0C143.7 0 130.3 0 117.2 0C104 0 91 0 78 0C65 0 52 0 39 0C26 0 13 0 6.5 0L0 0Z" fill="#ea5667"></path><path d="M0 128L6.5 123.5C13 119 26 110 39 107.7C52 105.3 65 109.7 78 113.5C91 117.3 104 120.7 117.2 120.5C130.3 120.3 143.7 116.7 156.8 112.5C170 108.3 183 103.7 196 104.7C209 105.7 222 112.3 235 113.2C248 114 261 109 274 101.7C287 94.3 300 84.7 313 79.8C326 75 339 75 352 77.2C365 79.3 378 83.7 391 86.2C404 88.7 417 89.3 430.2 93.3C443.3 97.3 456.7 104.7 469.8 107.3C483 110 496 108 509 109.2C522 110.3 535 114.7 548 117.8C561 121 574 123 587 117.7C600 112.3 613 99.7 626 99.8C639 100 652 113 665 119.8C678 126.7 691 127.3 704 120.7C717 114 730 100 743.2 94.8C756.3 89.7 769.7 93.3 782.8 98.5C796 103.7 809 110.3 822 105.8C835 101.3 848 85.7 861 83.5C874 81.3 887 92.7 893.5 98.3L900 104L900 0L893.5 0C887 0 874 0 861 0C848 0 835 0 822 0C809 0 796 0 782.8 0C769.7 0 756.3 0 743.2 0C730 0 717 0 704 0C691 0 678 0 665 0C652 0 639 0 626 0C613 0 600 0 587 0C574 0 561 0 548 0C535 0 522 0 509 0C496 0 483 0 469.8 0C456.7 0 443.3 0 430.2 0C417 0 404 0 391 0C378 0 365 0 352 0C339 0 326 0 313 0C300 0 287 0 274 0C261 0 248 0 235 0C222 0 209 0 196 0C183 0 170 0 156.8 0C143.7 0 130.3 0 117.2 0C104 0 91 0 78 0C65 0 52 0 39 0C26 0 13 0 6.5 0L0 0Z" fill="#e54f67"></path><path d="M0 68L6.5 75.8C13 83.7 26 99.3 39 100.2C52 101 65 87 78 85.8C91 84.7 104 96.3 117.2 100.8C130.3 105.3 143.7 102.7 156.8 98.5C170 94.3 183 88.7 196 88.8C209 89 222 95 235 92C248 89 261 77 274 72.2C287 67.3 300 69.7 313 69.5C326 69.3 339 66.7 352 64.5C365 62.3 378 60.7 391 63.8C404 67 417 75 430.2 77.8C443.3 80.7 456.7 78.3 469.8 78.8C483 79.3 496 82.7 509 85.3C522 88 535 90 548 88.5C561 87 574 82 587 83.8C600 85.7 613 94.3 626 94.8C639 95.3 652 87.7 665 84.7C678 81.7 691 83.3 704 80.3C717 77.3 730 69.7 743.2 70.8C756.3 72 769.7 82 782.8 82.5C796 83 809 74 822 72.2C835 70.3 848 75.7 861 78.8C874 82 887 83 893.5 83.5L900 84L900 0L893.5 0C887 0 874 0 861 0C848 0 835 0 822 0C809 0 796 0 782.8 0C769.7 0 756.3 0 743.2 0C730 0 717 0 704 0C691 0 678 0 665 0C652 0 639 0 626 0C613 0 600 0 587 0C574 0 561 0 548 0C535 0 522 0 509 0C496 0 483 0 469.8 0C456.7 0 443.3 0 430.2 0C417 0 404 0 391 0C378 0 365 0 352 0C339 0 326 0 313 0C300 0 287 0 274 0C261 0 248 0 235 0C222 0 209 0 196 0C183 0 170 0 156.8 0C143.7 0 130.3 0 117.2 0C104 0 91 0 78 0C65 0 52 0 39 0C26 0 13 0 6.5 0L0 0Z" fill="#e14867"></path><path d="M0 47L6.5 48.8C13 50.7 26 54.3 39 55.3C52 56.3 65 54.7 78 56.8C91 59 104 65 117.2 65.8C130.3 66.7 143.7 62.3 156.8 63.2C170 64 183 70 196 73.7C209 77.3 222 78.7 235 76.5C248 74.3 261 68.7 274 63.5C287 58.3 300 53.7 313 55.3C326 57 339 65 352 73.2C365 81.3 378 89.7 391 86.7C404 83.7 417 69.3 430.2 69C443.3 68.7 456.7 82.3 469.8 85.8C483 89.3 496 82.7 509 81.8C522 81 535 86 548 82.5C561 79 574 67 587 65.5C600 64 613 73 626 75.3C639 77.7 652 73.3 665 72C678 70.7 691 72.3 704 76C717 79.7 730 85.3 743.2 84.8C756.3 84.3 769.7 77.7 782.8 78.2C796 78.7 809 86.3 822 90C835 93.7 848 93.3 861 89C874 84.7 887 76.3 893.5 72.2L900 68L900 0L893.5 0C887 0 874 0 861 0C848 0 835 0 822 0C809 0 796 0 782.8 0C769.7 0 756.3 0 743.2 0C730 0 717 0 704 0C691 0 678 0 665 0C652 0 639 0 626 0C613 0 600 0 587 0C574 0 561 0 548 0C535 0 522 0 509 0C496 0 483 0 469.8 0C456.7 0 443.3 0 430.2 0C417 0 404 0 391 0C378 0 365 0 352 0C339 0 326 0 313 0C300 0 287 0 274 0C261 0 248 0 235 0C222 0 209 0 196 0C183 0 170 0 156.8 0C143.7 0 130.3 0 117.2 0C104 0 91 0 78 0C65 0 52 0 39 0C26 0 13 0 6.5 0L0 0Z" fill="#dc4167"></path><path d="M0 66L6.5 66.8C13 67.7 26 69.3 39 64.5C52 59.7 65 48.3 78 43.8C91 39.3 104 41.7 117.2 46C130.3 50.3 143.7 56.7 156.8 56.8C170 57 183 51 196 49.8C209 48.7 222 52.3 235 56.3C248 60.3 261 64.7 274 63.7C287 62.7 300 56.3 313 56.8C326 57.3 339 64.7 352 66.7C365 68.7 378 65.3 391 63.7C404 62 417 62 430.2 63.2C443.3 64.3 456.7 66.7 469.8 69.3C483 72 496 75 509 70.2C522 65.3 535 52.7 548 45.8C561 39 574 38 587 39.7C600 41.3 613 45.7 626 49.3C639 53 652 56 665 59.3C678 62.7 691 66.3 704 68.2C717 70 730 70 743.2 67.3C756.3 64.7 769.7 59.3 782.8 57.3C796 55.3 809 56.7 822 57.5C835 58.3 848 58.7 861 60.8C874 63 887 67 893.5 69L900 71L900 0L893.5 0C887 0 874 0 861 0C848 0 835 0 822 0C809 0 796 0 782.8 0C769.7 0 756.3 0 743.2 0C730 0 717 0 704 0C691 0 678 0 665 0C652 0 639 0 626 0C613 0 600 0 587 0C574 0 561 0 548 0C535 0 522 0 509 0C496 0 483 0 469.8 0C456.7 0 443.3 0 430.2 0C417 0 404 0 391 0C378 0 365 0 352 0C339 0 326 0 313 0C300 0 287 0 274 0C261 0 248 0 235 0C222 0 209 0 196 0C183 0 170 0 156.8 0C143.7 0 130.3 0 117.2 0C104 0 91 0 78 0C65 0 52 0 39 0C26 0 13 0 6.5 0L0 0Z" fill="#d73a67"></path><path d="M0 40L6.5 41.7C13 43.3 26 46.7 39 46.7C52 46.7 65 43.3 78 42.7C91 42 104 44 117.2 43.2C130.3 42.3 143.7 38.7 156.8 37.2C170 35.7 183 36.3 196 37.8C209 39.3 222 41.7 235 41.2C248 40.7 261 37.3 274 36C287 34.7 300 35.3 313 39.7C326 44 339 52 352 55C365 58 378 56 391 51.2C404 46.3 417 38.7 430.2 39.2C443.3 39.7 456.7 48.3 469.8 49.3C483 50.3 496 43.7 509 43.3C522 43 535 49 548 50.8C561 52.7 574 50.3 587 49.3C600 48.3 613 48.7 626 48C639 47.3 652 45.7 665 47C678 48.3 691 52.7 704 50.8C717 49 730 41 743.2 38C756.3 35 769.7 37 782.8 38.5C796 40 809 41 822 40.5C835 40 848 38 861 41.7C874 45.3 887 54.7 893.5 59.3L900 64L900 0L893.5 0C887 0 874 0 861 0C848 0 835 0 822 0C809 0 796 0 782.8 0C769.7 0 756.3 0 743.2 0C730 0 717 0 704 0C691 0 678 0 665 0C652 0 639 0 626 0C613 0 600 0 587 0C574 0 561 0 548 0C535 0 522 0 509 0C496 0 483 0 469.8 0C456.7 0 443.3 0 430.2 0C417 0 404 0 391 0C378 0 365 0 352 0C339 0 326 0 313 0C300 0 287 0 274 0C261 0 248 0 235 0C222 0 209 0 196 0C183 0 170 0 156.8 0C143.7 0 130.3 0 117.2 0C104 0 91 0 78 0C65 0 52 0 39 0C26 0 13 0 6.5 0L0 0Z" fill="#d13367"></path><path d="M0 31L6.5 33.2C13 35.3 26 39.7 39 40.5C52 41.3 65 38.7 78 36.5C91 34.3 104 32.7 117.2 31.7C130.3 30.7 143.7 30.3 156.8 28.7C170 27 183 24 196 26.2C209 28.3 222 35.7 235 38C248 40.3 261 37.7 274 35.3C287 33 300 31 313 29.7C326 28.3 339 27.7 352 28.8C365 30 378 33 391 35.8C404 38.7 417 41.3 430.2 39.5C443.3 37.7 456.7 31.3 469.8 30.7C483 30 496 35 509 38.7C522 42.3 535 44.7 548 40.5C561 36.3 574 25.7 587 23C600 20.3 613 25.7 626 30C639 34.3 652 37.7 665 40C678 42.3 691 43.7 704 44.2C717 44.7 730 44.3 743.2 42C756.3 39.7 769.7 35.3 782.8 35.5C796 35.7 809 40.3 822 39.2C835 38 848 31 861 29C874 27 887 30 893.5 31.5L900 33L900 0L893.5 0C887 0 874 0 861 0C848 0 835 0 822 0C809 0 796 0 782.8 0C769.7 0 756.3 0 743.2 0C730 0 717 0 704 0C691 0 678 0 665 0C652 0 639 0 626 0C613 0 600 0 587 0C574 0 561 0 548 0C535 0 522 0 509 0C496 0 483 0 469.8 0C456.7 0 443.3 0 430.2 0C417 0 404 0 391 0C378 0 365 0 352 0C339 0 326 0 313 0C300 0 287 0 274 0C261 0 248 0 235 0C222 0 209 0 196 0C183 0 170 0 156.8 0C143.7 0 130.3 0 117.2 0C104 0 91 0 78 0C65 0 52 0 39 0C26 0 13 0 6.5 0L0 0Z" fill="#cc2b68"></path><path d="M0 23L6.5 20.2C13 17.3 26 11.7 39 11.2C52 10.7 65 15.3 78 15.2C91 15 104 10 117.2 11.5C130.3 13 143.7 21 156.8 21.3C170 21.7 183 14.3 196 10.8C209 7.3 222 7.7 235 10.5C248 13.3 261 18.7 274 21.3C287 24 300 24 313 21C326 18 339 12 352 9.3C365 6.7 378 7.3 391 7.2C404 7 417 6 430.2 6.5C443.3 7 456.7 9 469.8 12.8C483 16.7 496 22.3 509 23.8C522 25.3 535 22.7 548 19C561 15.3 574 10.7 587 12.3C600 14 613 22 626 25.2C639 28.3 652 26.7 665 23.5C678 20.3 691 15.7 704 14.5C717 13.3 730 15.7 743.2 16.2C756.3 16.7 769.7 15.3 782.8 13.2C796 11 809 8 822 10.3C835 12.7 848 20.3 861 24C874 27.7 887 27.3 893.5 27.2L900 27L900 0L893.5 0C887 0 874 0 861 0C848 0 835 0 822 0C809 0 796 0 782.8 0C769.7 0 756.3 0 743.2 0C730 0 717 0 704 0C691 0 678 0 665 0C652 0 639 0 626 0C613 0 600 0 587 0C574 0 561 0 548 0C535 0 522 0 509 0C496 0 483 0 469.8 0C456.7 0 443.3 0 430.2 0C417 0 404 0 391 0C378 0 365 0 352 0C339 0 326 0 313 0C300 0 287 0 274 0C261 0 248 0 235 0C222 0 209 0 196 0C183 0 170 0 156.8 0C143.7 0 130.3 0 117.2 0C104 0 91 0 78 0C65 0 52 0 39 0C26 0 13 0 6.5 0L0 0Z" fill="#c62368"></path></svg>