<svg id="visual" viewBox="0 0 900 600" width="900" height="600" xmlns="http://www.w3.org/2000/svg" xmlns:xlink="http://www.w3.org/1999/xlink" version="1.1"><rect x="0" y="0" width="900" height="600" fill="#242424"></rect><path d="M0 112L8.3 110.2C16.7 108.3 33.3 104.7 50 106.8C66.7 109 83.3 117 100 123.5C116.7 130 133.3 135 150 136.3C166.7 137.7 183.3 135.3 200 132.3C216.7 129.3 233.3 125.7 250 128.3C266.7 131 283.3 140 300 134C316.7 128 333.3 107 350 105C366.7 103 383.3 120 400 126.2C416.7 132.3 433.3 127.7 450 125C466.7 122.3 483.3 121.7 500 126.7C516.7 131.7 533.3 142.3 550 137C566.7 131.7 583.3 110.3 600 111.7C616.7 113 633.3 137 650 136.8C666.7 136.7 683.3 112.3 700 101.2C716.7 90 733.3 92 750 102.3C766.7 112.7 783.3 131.3 800 139.5C816.7 147.7 833.3 145.3 850 136.8C866.7 128.3 883.3 113.7 891.7 106.3L900 99L900 0L891.7 0C883.3 0 866.7 0 850 0C833.3 0 816.7 0 800 0C783.3 0 766.7 0 750 0C733.3 0 716.7 0 700 0C683.3 0 666.7 0 650 0C633.3 0 616.7 0 600 0C583.3 0 566.7 0 550 0C533.3 0 516.7 0 500 0C483.3 0 466.7 0 450 0C433.3 0 416.7 0 400 0C383.3 0 366.7 0 350 0C333.3 0 316.7 0 300 0C283.3 0 266.7 0 250 0C233.3 0 216.7 0 200 0C183.3 0 166.7 0 150 0C133.3 0 116.7 0 100 0C83.3 0 66.7 0 50 0C33.3 0 16.7 0 8.3 0L0 0Z" fill="#fa7268"></path><path d="M0 103L8.3 100.8C16.7 98.7 33.3 94.3 50 100C66.7 105.7 83.3 121.3 100 121.3C116.7 121.3 133.3 105.7 150 98.7C166.7 91.7 183.3 93.3 200 98.8C216.7 104.3 233.3 113.7 250 114.2C266.7 114.7 283.3 106.3 300 105.7C316.7 105 333.3 112 350 114.3C366.7 116.7 383.3 114.3 400 118.8C416.7 123.3 433.3 134.7 450 137.8C466.7 141 483.3 136 500 130.5C516.7 125 533.3 119 550 119.5C566.7 120 583.3 127 600 126.8C616.7 126.7 633.3 119.3 650 117.8C666.7 116.3 683.3 120.7 700 119C716.7 117.3 733.3 109.7 750 112.5C766.7 115.3 783.3 128.7 800 134.7C816.7 140.7 833.3 139.3 850 130.7C866.7 122 883.3 106 891.7 98L900 90L900 0L891.7 0C883.3 0 866.7 0 850 0C833.3 0 816.7 0 800 0C783.3 0 766.7 0 750 0C733.3 0 716.7 0 700 0C683.3 0 666.7 0 650 0C633.3 0 616.7 0 600 0C583.3 0 566.7 0 550 0C533.3 0 516.7 0 500 0C483.3 0 466.7 0 450 0C433.3 0 416.7 0 400 0C383.3 0 366.7 0 350 0C333.3 0 316.7 0 300 0C283.3 0 266.7 0 250 0C233.3 0 216.7 0 200 0C183.3 0 166.7 0 150 0C133.3 0 116.7 0 100 0C83.3 0 66.7 0 50 0C33.3 0 16.7 0 8.3 0L0 0Z" fill="#f66b68"></path><path d="M0 73L8.3 81.5C16.7 90 33.3 107 50 115.8C66.7 124.7 83.3 125.3 100 119C116.7 112.7 133.3 99.3 150 91.5C166.7 83.7 183.3 81.3 200 83.8C216.7 86.3 233.3 93.7 250 94C266.7 94.3 283.3 87.7 300 84.2C316.7 80.7 333.3 80.3 350 86.7C366.7 93 383.3 106 400 108.3C416.7 110.7 433.3 102.3 450 102.8C466.7 103.3 483.3 112.7 500 113.8C516.7 115 533.3 108 550 105.3C566.7 102.7 583.3 104.3 600 108.8C616.7 113.3 633.3 120.7 650 120.2C666.7 119.7 683.3 111.3 700 111C716.7 110.7 733.3 118.3 750 117C766.7 115.7 783.3 105.3 800 99.5C816.7 93.7 833.3 92.3 850 99.2C866.7 106 883.3 121 891.7 128.5L900 136L900 0L891.7 0C883.3 0 866.7 0 850 0C833.3 0 816.7 0 800 0C783.3 0 766.7 0 750 0C733.3 0 716.7 0 700 0C683.3 0 666.7 0 650 0C633.3 0 616.7 0 600 0C583.3 0 566.7 0 550 0C533.3 0 516.7 0 500 0C483.3 0 466.7 0 450 0C433.3 0 416.7 0 400 0C383.3 0 366.7 0 350 0C333.3 0 316.7 0 300 0C283.3 0 266.7 0 250 0C233.3 0 216.7 0 200 0C183.3 0 166.7 0 150 0C133.3 0 116.7 0 100 0C83.3 0 66.7 0 50 0C33.3 0 16.7 0 8.3 0L0 0Z" fill="#f26467"></path><path d="M0 109L8.3 110.3C16.7 111.7 33.3 114.3 50 117.5C66.7 120.7 83.3 124.3 100 121.7C116.7 119 133.3 110 150 107C166.7 104 183.3 107 200 104.2C216.7 101.3 233.3 92.7 250 94.5C266.7 96.3 283.3 108.7 300 106.3C316.7 104 333.3 87 350 79.7C366.7 72.3 383.3 74.7 400 81.8C416.7 89 433.3 101 450 109.3C466.7 117.7 483.3 122.3 500 121.5C516.7 120.7 533.3 114.3 550 114.2C566.7 114 583.3 120 600 122.3C616.7 124.7 633.3 123.3 650 115C666.7 106.7 683.3 91.3 700 91.5C716.7 91.7 733.3 107.3 750 114.3C766.7 121.3 783.3 119.7 800 113.2C816.7 106.7 833.3 95.3 850 90.3C866.7 85.3 883.3 86.7 891.7 87.3L900 88L900 0L891.7 0C883.3 0 866.7 0 850 0C833.3 0 816.7 0 800 0C783.3 0 766.7 0 750 0C733.3 0 716.7 0 700 0C683.3 0 666.7 0 650 0C633.3 0 616.7 0 600 0C583.3 0 566.7 0 550 0C533.3 0 516.7 0 500 0C483.3 0 466.7 0 450 0C433.3 0 416.7 0 400 0C383.3 0 366.7 0 350 0C333.3 0 316.7 0 300 0C283.3 0 266.7 0 250 0C233.3 0 216.7 0 200 0C183.3 0 166.7 0 150 0C133.3 0 116.7 0 100 0C83.3 0 66.7 0 50 0C33.3 0 16.7 0 8.3 0L0 0Z" fill="#ee5d67"></path><path d="M0 82L8.3 77.8C16.7 73.7 33.3 65.3 50 71C66.7 76.7 83.3 96.3 100 105C116.7 113.7 133.3 111.3 150 102.3C166.7 93.3 183.3 77.7 200 69.8C216.7 62 233.3 62 250 68.2C266.7 74.3 283.3 86.7 300 90.3C316.7 94 333.3 89 350 91.7C366.7 94.3 383.3 104.7 400 101.2C416.7 97.7 433.3 80.3 450 78.8C466.7 77.3 483.3 91.7 500 95.2C516.7 98.7 533.3 91.3 550 86.7C566.7 82 583.3 80 600 79.2C616.7 78.3 633.3 78.7 650 80.3C666.7 82 683.3 85 700 86.3C716.7 87.7 733.3 87.3 750 82.7C766.7 78 783.3 69 800 72.7C816.7 76.3 833.3 92.7 850 98C866.7 103.3 883.3 97.7 891.7 94.8L900 92L900 0L891.7 0C883.3 0 866.7 0 850 0C833.3 0 816.7 0 800 0C783.3 0 766.7 0 750 0C733.3 0 716.7 0 700 0C683.3 0 666.7 0 650 0C633.3 0 616.7 0 600 0C583.3 0 566.7 0 550 0C533.3 0 516.7 0 500 0C483.3 0 466.7 0 450 0C433.3 0 416.7 0 400 0C383.3 0 366.7 0 350 0C333.3 0 316.7 0 300 0C283.3 0 266.7 0 250 0C233.3 0 216.7 0 200 0C183.3 0 166.7 0 150 0C133.3 0 116.7 0 100 0C83.3 0 66.7 0 50 0C33.3 0 16.7 0 8.3 0L0 0Z" fill="#ea5667"></path><path d="M0 62L8.3 63C16.7 64 33.3 66 50 69.7C66.7 73.3 83.3 78.7 100 78.2C116.7 77.7 133.3 71.3 150 71.3C166.7 71.3 183.3 77.7 200 79.2C216.7 80.7 233.3 77.3 250 77.2C266.7 77 283.3 80 300 76.5C316.7 73 333.3 63 350 64.2C366.7 65.3 383.3 77.7 400 85.5C416.7 93.3 433.3 96.7 450 93.7C466.7 90.7 483.3 81.3 500 75.2C516.7 69 533.3 66 550 67.7C566.7 69.3 583.3 75.7 600 77.2C616.7 78.7 633.3 75.3 650 71.8C666.7 68.3 683.3 64.7 700 62.3C716.7 60 733.3 59 750 56.8C766.7 54.7 783.3 51.3 800 53.8C816.7 56.3 833.3 64.7 850 71.8C866.7 79 883.3 85 891.7 88L900 91L900 0L891.7 0C883.3 0 866.7 0 850 0C833.3 0 816.7 0 800 0C783.3 0 766.7 0 750 0C733.3 0 716.7 0 700 0C683.3 0 666.7 0 650 0C633.3 0 616.7 0 600 0C583.3 0 566.7 0 550 0C533.3 0 516.7 0 500 0C483.3 0 466.7 0 450 0C433.3 0 416.7 0 400 0C383.3 0 366.7 0 350 0C333.3 0 316.7 0 300 0C283.3 0 266.7 0 250 0C233.3 0 216.7 0 200 0C183.3 0 166.7 0 150 0C133.3 0 116.7 0 100 0C83.3 0 66.7 0 50 0C33.3 0 16.7 0 8.3 0L0 0Z" fill="#e54f67"></path><path d="M0 70L8.3 68.5C16.7 67 33.3 64 50 64.8C66.7 65.7 83.3 70.3 100 71.5C116.7 72.7 133.3 70.3 150 69.3C166.7 68.3 183.3 68.7 200 65.7C216.7 62.7 233.3 56.3 250 52.5C266.7 48.7 283.3 47.3 300 51C316.7 54.7 333.3 63.3 350 67.3C366.7 71.3 383.3 70.7 400 68.5C416.7 66.3 433.3 62.7 450 59.7C466.7 56.7 483.3 54.3 500 56.8C516.7 59.3 533.3 66.7 550 66.8C566.7 67 583.3 60 600 62.7C616.7 65.3 633.3 77.7 650 77.2C666.7 76.7 683.3 63.3 700 58.8C716.7 54.3 733.3 58.7 750 63.3C766.7 68 783.3 73 800 75.7C816.7 78.3 833.3 78.7 850 73.5C866.7 68.3 883.3 57.7 891.7 52.3L900 47L900 0L891.7 0C883.3 0 866.7 0 850 0C833.3 0 816.7 0 800 0C783.3 0 766.7 0 750 0C733.3 0 716.7 0 700 0C683.3 0 666.7 0 650 0C633.3 0 616.7 0 600 0C583.3 0 566.7 0 550 0C533.3 0 516.7 0 500 0C483.3 0 466.7 0 450 0C433.3 0 416.7 0 400 0C383.3 0 366.7 0 350 0C333.3 0 316.7 0 300 0C283.3 0 266.7 0 250 0C233.3 0 216.7 0 200 0C183.3 0 166.7 0 150 0C133.3 0 116.7 0 100 0C83.3 0 66.7 0 50 0C33.3 0 16.7 0 8.3 0L0 0Z" fill="#e14867"></path><path d="M0 42L8.3 46.8C16.7 51.7 33.3 61.3 50 60.3C66.7 59.3 83.3 47.7 100 43.7C116.7 39.7 133.3 43.3 150 46.7C166.7 50 183.3 53 200 55.2C216.7 57.3 233.3 58.7 250 57.5C266.7 56.3 283.3 52.7 300 53.7C316.7 54.7 333.3 60.3 350 59.5C366.7 58.7 383.3 51.3 400 47.7C416.7 44 433.3 44 450 46C466.7 48 483.3 52 500 53.3C516.7 54.7 533.3 53.3 550 49.3C566.7 45.3 583.3 38.7 600 40.7C616.7 42.7 633.3 53.3 650 60.3C666.7 67.3 683.3 70.7 700 71.3C716.7 72 733.3 70 750 65.5C766.7 61 783.3 54 800 49.8C816.7 45.7 833.3 44.3 850 47C866.7 49.7 883.3 56.3 891.7 59.7L900 63L900 0L891.7 0C883.3 0 866.7 0 850 0C833.3 0 816.7 0 800 0C783.3 0 766.7 0 750 0C733.3 0 716.7 0 700 0C683.3 0 666.7 0 650 0C633.3 0 616.7 0 600 0C583.3 0 566.7 0 550 0C533.3 0 516.7 0 500 0C483.3 0 466.7 0 450 0C433.3 0 416.7 0 400 0C383.3 0 366.7 0 350 0C333.3 0 316.7 0 300 0C283.3 0 266.7 0 250 0C233.3 0 216.7 0 200 0C183.3 0 166.7 0 150 0C133.3 0 116.7 0 100 0C83.3 0 66.7 0 50 0C33.3 0 16.7 0 8.3 0L0 0Z" fill="#dc4167"></path><path d="M0 32L8.3 34.2C16.7 36.3 33.3 40.7 50 41.2C66.7 41.7 83.3 38.3 100 39C116.7 39.7 133.3 44.3 150 45.7C166.7 47 183.3 45 200 44C216.7 43 233.3 43 250 45.7C266.7 48.3 283.3 53.7 300 56.3C316.7 59 333.3 59 350 54.3C366.7 49.7 383.3 40.3 400 38.7C416.7 37 433.3 43 450 42.2C466.7 41.3 483.3 33.7 500 35.8C516.7 38 533.3 50 550 50C566.7 50 583.3 38 600 33.2C616.7 28.3 633.3 30.7 650 35.3C666.7 40 683.3 47 700 46.5C716.7 46 733.3 38 750 39C766.7 40 783.3 50 800 54.3C816.7 58.7 833.3 57.3 850 52.3C866.7 47.3 883.3 38.7 891.7 34.3L900 30L900 0L891.7 0C883.3 0 866.7 0 850 0C833.3 0 816.7 0 800 0C783.3 0 766.7 0 750 0C733.3 0 716.7 0 700 0C683.3 0 666.7 0 650 0C633.3 0 616.7 0 600 0C583.3 0 566.7 0 550 0C533.3 0 516.7 0 500 0C483.3 0 466.7 0 450 0C433.3 0 416.7 0 400 0C383.3 0 366.7 0 350 0C333.3 0 316.7 0 300 0C283.3 0 266.7 0 250 0C233.3 0 216.7 0 200 0C183.3 0 166.7 0 150 0C133.3 0 116.7 0 100 0C83.3 0 66.7 0 50 0C33.3 0 16.7 0 8.3 0L0 0Z" fill="#d73a67"></path><path d="M0 47L8.3 47C16.7 47 33.3 47 50 44C66.7 41 83.3 35 100 33.7C116.7 32.3 133.3 35.7 150 39.2C166.7 42.7 183.3 46.3 200 47C216.7 47.7 233.3 45.3 250 42.8C266.7 40.3 283.3 37.7 300 33.7C316.7 29.7 333.3 24.3 350 25C366.7 25.7 383.3 32.3 400 35C416.7 37.7 433.3 36.3 450 33.2C466.7 30 483.3 25 500 23C516.7 21 533.3 22 550 22.8C566.7 23.7 583.3 24.3 600 24.8C616.7 25.3 633.3 25.7 650 26.7C666.7 27.7 683.3 29.3 700 29.8C716.7 30.3 733.3 29.7 750 29.8C766.7 30 783.3 31 800 32C816.7 33 833.3 34 850 34.2C866.7 34.3 883.3 33.7 891.7 33.3L900 33L900 0L891.7 0C883.3 0 866.7 0 850 0C833.3 0 816.7 0 800 0C783.3 0 766.7 0 750 0C733.3 0 716.7 0 700 0C683.3 0 666.7 0 650 0C633.3 0 616.7 0 600 0C583.3 0 566.7 0 550 0C533.3 0 516.7 0 500 0C483.3 0 466.7 0 450 0C433.3 0 416.7 0 400 0C383.3 0 366.7 0 350 0C333.3 0 316.7 0 300 0C283.3 0 266.7 0 250 0C233.3 0 216.7 0 200 0C183.3 0 166.7 0 150 0C133.3 0 116.7 0 100 0C83.3 0 66.7 0 50 0C33.3 0 16.7 0 8.3 0L0 0Z" fill="#d13367"></path><path d="M0 9L8.3 12.3C16.7 15.7 33.3 22.3 50 24.5C66.7 26.7 83.3 24.3 100 22C116.7 19.7 133.3 17.3 150 18.8C166.7 20.3 183.3 25.7 200 27.3C216.7 29 233.3 27 250 27.3C266.7 27.7 283.3 30.3 300 31C316.7 31.7 333.3 30.3 350 27.3C366.7 24.3 383.3 19.7 400 17C416.7 14.3 433.3 13.7 450 16.2C466.7 18.7 483.3 24.3 500 28C516.7 31.7 533.3 33.3 550 32C566.7 30.7 583.3 26.3 600 23.3C616.7 20.3 633.3 18.7 650 19C666.7 19.3 683.3 21.7 700 24.3C716.7 27 733.3 30 750 31C766.7 32 783.3 31 800 31C816.7 31 833.3 32 850 29.2C866.7 26.3 883.3 19.7 891.7 16.3L900 13L900 0L891.7 0C883.3 0 866.7 0 850 0C833.3 0 816.7 0 800 0C783.3 0 766.7 0 750 0C733.3 0 716.7 0 700 0C683.3 0 666.7 0 650 0C633.3 0 616.7 0 600 0C583.3 0 566.7 0 550 0C533.3 0 516.7 0 500 0C483.3 0 466.7 0 450 0C433.3 0 416.7 0 400 0C383.3 0 366.7 0 350 0C333.3 0 316.7 0 300 0C283.3 0 266.7 0 250 0C233.3 0 216.7 0 200 0C183.3 0 166.7 0 150 0C133.3 0 116.7 0 100 0C83.3 0 66.7 0 50 0C33.3 0 16.7 0 8.3 0L0 0Z" fill="#cc2b68"></path><path d="M0 18L8.3 17.7C16.7 17.3 33.3 16.7 50 16.2C66.7 15.7 83.3 15.3 100 15.7C116.7 16 133.3 17 150 17.3C166.7 17.7 183.3 17.3 200 15.2C216.7 13 233.3 9 250 8C266.7 7 283.3 9 300 8.7C316.7 8.3 333.3 5.7 350 5.3C366.7 5 383.3 7 400 7.5C416.7 8 433.3 7 450 6C466.7 5 483.3 4 500 5C516.7 6 533.3 9 550 11.8C566.7 14.7 583.3 17.3 600 19.3C616.7 21.3 633.3 22.7 650 20.3C666.7 18 683.3 12 700 11.8C716.7 11.7 733.3 17.3 750 19.7C766.7 22 783.3 21 800 18.3C816.7 15.7 833.3 11.3 850 12C866.7 12.7 883.3 18.3 891.7 21.2L900 24L900 0L891.7 0C883.3 0 866.7 0 850 0C833.3 0 816.7 0 800 0C783.3 0 766.7 0 750 0C733.3 0 716.7 0 700 0C683.3 0 666.7 0 650 0C633.3 0 616.7 0 600 0C583.3 0 566.7 0 550 0C533.3 0 516.7 0 500 0C483.3 0 466.7 0 450 0C433.3 0 416.7 0 400 0C383.3 0 366.7 0 350 0C333.3 0 316.7 0 300 0C283.3 0 266.7 0 250 0C233.3 0 216.7 0 200 0C183.3 0 166.7 0 150 0C133.3 0 116.7 0 100 0C83.3 0 66.7 0 50 0C33.3 0 16.7 0 8.3 0L0 0Z" fill="#c62368"></path></svg>