<svg id="visual" viewBox="0 0 900 600" width="900" height="600" xmlns="http://www.w3.org/2000/svg" xmlns:xlink="http://www.w3.org/1999/xlink"
     version="1.1">
    <g transform="translate(389.41463576994175 317.09740250868055)">
        <path d="M122.6 -220.3C151.9 -172 163.7 -126.1 186.1 -83.2C208.4 -40.3 241.3 -0.4 259.3 53.8C277.3 108.1 280.3 176.9 249.8 221.9C219.3 267 155.1 288.5 98.8 278.6C42.4 268.7 -6.1 227.4 -43.1 194.6C-80 161.9 -105.4 137.6 -119.5 109.9C-133.6 82.2 -136.4 51.1 -141.4 20C-146.5 -11.2 -153.7 -42.3 -151.1 -77.7C-148.4 -113 -135.8 -152.4 -109 -201.8C-82.2 -251.2 -41.1 -310.6 2.8 -314.9C46.7 -319.3 93.4 -268.6 122.6 -220.3"
              fill="#BB004B"></path>
    </g>
    <g transform="translate(401.0938827448543 334.6433052922279)">
            <path d="M185.8 -257.1C236.4 -256.6 270.1 -197.7 296.1 -136.5C322 -75.3 340.1 -11.9 326.9 43.6C313.7 99.2 269.1 146.8 216.3 161.8C163.4 176.7 102.4 158.9 54.7 161.5C7 164.1 -27.3 187.1 -62.2 187.8C-97.1 188.5 -132.4 167 -168 138.5C-203.6 110.1 -239.4 74.8 -232.7 40.9C-226.1 6.9 -177 -25.8 -159.7 -76.8C-142.4 -127.8 -156.9 -197.3 -135.6 -211.2C-114.3 -225.1 -57.1 -183.6 5.2 -191.7C67.6 -199.8 135.2 -257.6 185.8 -257.1"
                  fill="#BB004B"></path>
        </g>



</svg>