<svg id="visual" viewBox="0 0 2700 600" width="2700" height="600" xmlns="http://www.w3.org/2000/svg" xmlns:xlink="http://www.w3.org/1999/xlink" version="1.1"><path d="M0 590L19.5 573.8C39 557.7 78 525.3 117.2 524.3C156.3 523.3 195.7 553.7 234.8 559.3C274 565 313 546 352.2 547.3C391.3 548.7 430.7 570.3 469.8 571.8C509 573.3 548 554.7 587 536.3C626 518 665 500 704.2 498.5C743.3 497 782.7 512 821.8 518.8C861 525.7 900 524.3 939.2 534.7C978.3 545 1017.7 567 1056.8 578.5C1096 590 1135 591 1174 575.5C1213 560 1252 528 1291.2 518.2C1330.3 508.3 1369.7 520.7 1408.8 518C1448 515.3 1487 497.7 1526 494.8C1565 492 1604 504 1643.2 521.3C1682.3 538.7 1721.7 561.3 1760.8 566C1800 570.7 1839 557.3 1878.2 554.3C1917.3 551.3 1956.7 558.7 1995.8 555.8C2035 553 2074 540 2113 543.5C2152 547 2191 567 2230.2 571.5C2269.3 576 2308.7 565 2347.8 555.7C2387 546.3 2426 538.7 2465.2 538.5C2504.3 538.3 2543.7 545.7 2582.8 556.8C2622 568 2661 583 2680.5 590.5L2700 598L2700 601L2680.5 601C2661 601 2622 601 2582.8 601C2543.7 601 2504.3 601 2465.2 601C2426 601 2387 601 2347.8 601C2308.7 601 2269.3 601 2230.2 601C2191 601 2152 601 2113 601C2074 601 2035 601 1995.8 601C1956.7 601 1917.3 601 1878.2 601C1839 601 1800 601 1760.8 601C1721.7 601 1682.3 601 1643.2 601C1604 601 1565 601 1526 601C1487 601 1448 601 1408.8 601C1369.7 601 1330.3 601 1291.2 601C1252 601 1213 601 1174 601C1135 601 1096 601 1056.8 601C1017.7 601 978.3 601 939.2 601C900 601 861 601 821.8 601C782.7 601 743.3 601 704.2 601C665 601 626 601 587 601C548 601 509 601 469.8 601C430.7 601 391.3 601 352.2 601C313 601 274 601 234.8 601C195.7 601 156.3 601 117.2 601C78 601 39 601 19.5 601L0 601Z" fill="#fa7268"></path><path d="M0 524L19.5 536C39 548 78 572 117.2 569.3C156.3 566.7 195.7 537.3 234.8 527C274 516.7 313 525.3 352.2 532.7C391.3 540 430.7 546 469.8 549.3C509 552.7 548 553.3 587 547C626 540.7 665 527.3 704.2 522.5C743.3 517.7 782.7 521.3 821.8 519.7C861 518 900 511 939.2 513.3C978.3 515.7 1017.7 527.3 1056.8 531C1096 534.7 1135 530.3 1174 532.7C1213 535 1252 544 1291.2 543C1330.3 542 1369.7 531 1408.8 523.5C1448 516 1487 512 1526 513.7C1565 515.3 1604 522.7 1643.2 524.2C1682.3 525.7 1721.7 521.3 1760.8 529.8C1800 538.3 1839 559.7 1878.2 556.3C1917.3 553 1956.7 525 1995.8 509.7C2035 494.3 2074 491.7 2113 493.8C2152 496 2191 503 2230.2 511.7C2269.3 520.3 2308.7 530.7 2347.8 528.7C2387 526.7 2426 512.3 2465.2 515.8C2504.3 519.3 2543.7 540.7 2582.8 540.7C2622 540.7 2661 519.3 2680.5 508.7L2700 498L2700 601L2680.5 601C2661 601 2622 601 2582.8 601C2543.7 601 2504.3 601 2465.2 601C2426 601 2387 601 2347.8 601C2308.7 601 2269.3 601 2230.2 601C2191 601 2152 601 2113 601C2074 601 2035 601 1995.8 601C1956.7 601 1917.3 601 1878.2 601C1839 601 1800 601 1760.8 601C1721.7 601 1682.3 601 1643.2 601C1604 601 1565 601 1526 601C1487 601 1448 601 1408.8 601C1369.7 601 1330.3 601 1291.2 601C1252 601 1213 601 1174 601C1135 601 1096 601 1056.8 601C1017.7 601 978.3 601 939.2 601C900 601 861 601 821.8 601C782.7 601 743.3 601 704.2 601C665 601 626 601 587 601C548 601 509 601 469.8 601C430.7 601 391.3 601 352.2 601C313 601 274 601 234.8 601C195.7 601 156.3 601 117.2 601C78 601 39 601 19.5 601L0 601Z" fill="#f66b68"></path><path d="M0 501L19.5 511.2C39 521.3 78 541.7 117.2 550C156.3 558.3 195.7 554.7 234.8 556.5C274 558.3 313 565.7 352.2 563.8C391.3 562 430.7 551 469.8 545.7C509 540.3 548 540.7 587 535.7C626 530.7 665 520.3 704.2 528.3C743.3 536.3 782.7 562.7 821.8 568.8C861 575 900 561 939.2 548.8C978.3 536.7 1017.7 526.3 1056.8 524.8C1096 523.3 1135 530.7 1174 539.7C1213 548.7 1252 559.3 1291.2 564.8C1330.3 570.3 1369.7 570.7 1408.8 569.5C1448 568.3 1487 565.7 1526 557.8C1565 550 1604 537 1643.2 534.8C1682.3 532.7 1721.7 541.3 1760.8 550.7C1800 560 1839 570 1878.2 573.7C1917.3 577.3 1956.7 574.7 1995.8 572.3C2035 570 2074 568 2113 568.3C2152 568.7 2191 571.3 2230.2 563.5C2269.3 555.7 2308.7 537.3 2347.8 533C2387 528.7 2426 538.3 2465.2 548.7C2504.3 559 2543.7 570 2582.8 562.2C2622 554.3 2661 527.7 2680.5 514.3L2700 501L2700 601L2680.5 601C2661 601 2622 601 2582.8 601C2543.7 601 2504.3 601 2465.2 601C2426 601 2387 601 2347.8 601C2308.7 601 2269.3 601 2230.2 601C2191 601 2152 601 2113 601C2074 601 2035 601 1995.8 601C1956.7 601 1917.3 601 1878.2 601C1839 601 1800 601 1760.8 601C1721.7 601 1682.3 601 1643.2 601C1604 601 1565 601 1526 601C1487 601 1448 601 1408.8 601C1369.7 601 1330.3 601 1291.2 601C1252 601 1213 601 1174 601C1135 601 1096 601 1056.8 601C1017.7 601 978.3 601 939.2 601C900 601 861 601 821.8 601C782.7 601 743.3 601 704.2 601C665 601 626 601 587 601C548 601 509 601 469.8 601C430.7 601 391.3 601 352.2 601C313 601 274 601 234.8 601C195.7 601 156.3 601 117.2 601C78 601 39 601 19.5 601L0 601Z" fill="#f26467"></path><path d="M0 557L19.5 551.7C39 546.3 78 535.7 117.2 536.3C156.3 537 195.7 549 234.8 557C274 565 313 569 352.2 563.2C391.3 557.3 430.7 541.7 469.8 531.7C509 521.7 548 517.3 587 521.3C626 525.3 665 537.7 704.2 543.8C743.3 550 782.7 550 821.8 550.3C861 550.7 900 551.3 939.2 547.8C978.3 544.3 1017.7 536.7 1056.8 529.3C1096 522 1135 515 1174 520.2C1213 525.3 1252 542.7 1291.2 545.2C1330.3 547.7 1369.7 535.3 1408.8 535.8C1448 536.3 1487 549.7 1526 550.5C1565 551.3 1604 539.7 1643.2 543.3C1682.3 547 1721.7 566 1760.8 575.2C1800 584.3 1839 583.7 1878.2 583C1917.3 582.3 1956.7 581.7 1995.8 582.5C2035 583.3 2074 585.7 2113 576C2152 566.3 2191 544.7 2230.2 539.8C2269.3 535 2308.7 547 2347.8 559.5C2387 572 2426 585 2465.2 581.5C2504.3 578 2543.7 558 2582.8 546.2C2622 534.3 2661 530.7 2680.5 528.8L2700 527L2700 601L2680.5 601C2661 601 2622 601 2582.8 601C2543.7 601 2504.3 601 2465.2 601C2426 601 2387 601 2347.8 601C2308.7 601 2269.3 601 2230.2 601C2191 601 2152 601 2113 601C2074 601 2035 601 1995.8 601C1956.7 601 1917.3 601 1878.2 601C1839 601 1800 601 1760.8 601C1721.7 601 1682.3 601 1643.2 601C1604 601 1565 601 1526 601C1487 601 1448 601 1408.8 601C1369.7 601 1330.3 601 1291.2 601C1252 601 1213 601 1174 601C1135 601 1096 601 1056.8 601C1017.7 601 978.3 601 939.2 601C900 601 861 601 821.8 601C782.7 601 743.3 601 704.2 601C665 601 626 601 587 601C548 601 509 601 469.8 601C430.7 601 391.3 601 352.2 601C313 601 274 601 234.8 601C195.7 601 156.3 601 117.2 601C78 601 39 601 19.5 601L0 601Z" fill="#ee5d67"></path><path d="M0 523L19.5 522C39 521 78 519 117.2 525.7C156.3 532.3 195.7 547.7 234.8 555.2C274 562.7 313 562.3 352.2 559.3C391.3 556.3 430.7 550.7 469.8 543.5C509 536.3 548 527.7 587 524.5C626 521.3 665 523.7 704.2 536.3C743.3 549 782.7 572 821.8 576.3C861 580.7 900 566.3 939.2 566.8C978.3 567.3 1017.7 582.7 1056.8 580C1096 577.3 1135 556.7 1174 547C1213 537.3 1252 538.7 1291.2 539.2C1330.3 539.7 1369.7 539.3 1408.8 539.2C1448 539 1487 539 1526 540.2C1565 541.3 1604 543.7 1643.2 542.2C1682.3 540.7 1721.7 535.3 1760.8 532.2C1800 529 1839 528 1878.2 530.7C1917.3 533.3 1956.7 539.7 1995.8 547.3C2035 555 2074 564 2113 572.7C2152 581.3 2191 589.7 2230.2 592.5C2269.3 595.3 2308.7 592.7 2347.8 586.2C2387 579.7 2426 569.3 2465.2 564.8C2504.3 560.3 2543.7 561.7 2582.8 565.5C2622 569.3 2661 575.7 2680.5 578.8L2700 582L2700 601L2680.5 601C2661 601 2622 601 2582.8 601C2543.7 601 2504.3 601 2465.2 601C2426 601 2387 601 2347.8 601C2308.7 601 2269.3 601 2230.2 601C2191 601 2152 601 2113 601C2074 601 2035 601 1995.8 601C1956.7 601 1917.3 601 1878.2 601C1839 601 1800 601 1760.8 601C1721.7 601 1682.3 601 1643.2 601C1604 601 1565 601 1526 601C1487 601 1448 601 1408.8 601C1369.7 601 1330.3 601 1291.2 601C1252 601 1213 601 1174 601C1135 601 1096 601 1056.8 601C1017.7 601 978.3 601 939.2 601C900 601 861 601 821.8 601C782.7 601 743.3 601 704.2 601C665 601 626 601 587 601C548 601 509 601 469.8 601C430.7 601 391.3 601 352.2 601C313 601 274 601 234.8 601C195.7 601 156.3 601 117.2 601C78 601 39 601 19.5 601L0 601Z" fill="#ea5667"></path><path d="M0 577L19.5 570.2C39 563.3 78 549.7 117.2 549.3C156.3 549 195.7 562 234.8 560.8C274 559.7 313 544.3 352.2 539.7C391.3 535 430.7 541 469.8 544.3C509 547.7 548 548.3 587 544.8C626 541.3 665 533.7 704.2 534.8C743.3 536 782.7 546 821.8 556.2C861 566.3 900 576.7 939.2 573.5C978.3 570.3 1017.7 553.7 1056.8 544.8C1096 536 1135 535 1174 537.8C1213 540.7 1252 547.3 1291.2 546.2C1330.3 545 1369.7 536 1408.8 542.2C1448 548.3 1487 569.7 1526 579.3C1565 589 1604 587 1643.2 583.5C1682.3 580 1721.7 575 1760.8 577.2C1800 579.3 1839 588.7 1878.2 585.3C1917.3 582 1956.7 566 1995.8 562.3C2035 558.7 2074 567.3 2113 575C2152 582.7 2191 589.3 2230.2 587.2C2269.3 585 2308.7 574 2347.8 565.7C2387 557.3 2426 551.7 2465.2 552.8C2504.3 554 2543.7 562 2582.8 565C2622 568 2661 566 2680.5 565L2700 564L2700 601L2680.5 601C2661 601 2622 601 2582.8 601C2543.7 601 2504.3 601 2465.2 601C2426 601 2387 601 2347.8 601C2308.7 601 2269.3 601 2230.2 601C2191 601 2152 601 2113 601C2074 601 2035 601 1995.8 601C1956.7 601 1917.3 601 1878.2 601C1839 601 1800 601 1760.8 601C1721.7 601 1682.3 601 1643.2 601C1604 601 1565 601 1526 601C1487 601 1448 601 1408.8 601C1369.7 601 1330.3 601 1291.2 601C1252 601 1213 601 1174 601C1135 601 1096 601 1056.8 601C1017.7 601 978.3 601 939.2 601C900 601 861 601 821.8 601C782.7 601 743.3 601 704.2 601C665 601 626 601 587 601C548 601 509 601 469.8 601C430.7 601 391.3 601 352.2 601C313 601 274 601 234.8 601C195.7 601 156.3 601 117.2 601C78 601 39 601 19.5 601L0 601Z" fill="#e54f67"></path><path d="M0 596L19.5 585.8C39 575.7 78 555.3 117.2 553.7C156.3 552 195.7 569 234.8 572C274 575 313 564 352.2 564.5C391.3 565 430.7 577 469.8 575C509 573 548 557 587 557.2C626 557.3 665 573.7 704.2 581.8C743.3 590 782.7 590 821.8 585.8C861 581.7 900 573.3 939.2 567C978.3 560.7 1017.7 556.3 1056.8 552.2C1096 548 1135 544 1174 543.2C1213 542.3 1252 544.7 1291.2 552.3C1330.3 560 1369.7 573 1408.8 575.2C1448 577.3 1487 568.7 1526 568.2C1565 567.7 1604 575.3 1643.2 575.8C1682.3 576.3 1721.7 569.7 1760.8 562.7C1800 555.7 1839 548.3 1878.2 548.8C1917.3 549.3 1956.7 557.7 1995.8 561.2C2035 564.7 2074 563.3 2113 567C2152 570.7 2191 579.3 2230.2 581.3C2269.3 583.3 2308.7 578.7 2347.8 572.8C2387 567 2426 560 2465.2 559.2C2504.3 558.3 2543.7 563.7 2582.8 563.3C2622 563 2661 557 2680.5 554L2700 551L2700 601L2680.5 601C2661 601 2622 601 2582.8 601C2543.7 601 2504.3 601 2465.2 601C2426 601 2387 601 2347.8 601C2308.7 601 2269.3 601 2230.2 601C2191 601 2152 601 2113 601C2074 601 2035 601 1995.8 601C1956.7 601 1917.3 601 1878.2 601C1839 601 1800 601 1760.8 601C1721.7 601 1682.3 601 1643.2 601C1604 601 1565 601 1526 601C1487 601 1448 601 1408.8 601C1369.7 601 1330.3 601 1291.2 601C1252 601 1213 601 1174 601C1135 601 1096 601 1056.8 601C1017.7 601 978.3 601 939.2 601C900 601 861 601 821.8 601C782.7 601 743.3 601 704.2 601C665 601 626 601 587 601C548 601 509 601 469.8 601C430.7 601 391.3 601 352.2 601C313 601 274 601 234.8 601C195.7 601 156.3 601 117.2 601C78 601 39 601 19.5 601L0 601Z" fill="#e14867"></path><path d="M0 576L19.5 574.3C39 572.7 78 569.3 117.2 565.8C156.3 562.3 195.7 558.7 234.8 559.5C274 560.3 313 565.7 352.2 570.5C391.3 575.3 430.7 579.7 469.8 581.8C509 584 548 584 587 578.3C626 572.7 665 561.3 704.2 558.5C743.3 555.7 782.7 561.3 821.8 565C861 568.7 900 570.3 939.2 566.7C978.3 563 1017.7 554 1056.8 551.7C1096 549.3 1135 553.7 1174 560.5C1213 567.3 1252 576.7 1291.2 577.5C1330.3 578.3 1369.7 570.7 1408.8 572.8C1448 575 1487 587 1526 586.3C1565 585.7 1604 572.3 1643.2 566.8C1682.3 561.3 1721.7 563.7 1760.8 563.7C1800 563.7 1839 561.3 1878.2 558.3C1917.3 555.3 1956.7 551.7 1995.8 554.2C2035 556.7 2074 565.3 2113 573C2152 580.7 2191 587.3 2230.2 589.2C2269.3 591 2308.7 588 2347.8 582.7C2387 577.3 2426 569.7 2465.2 564.2C2504.3 558.7 2543.7 555.3 2582.8 555.2C2622 555 2661 558 2680.5 559.5L2700 561L2700 601L2680.5 601C2661 601 2622 601 2582.8 601C2543.7 601 2504.3 601 2465.2 601C2426 601 2387 601 2347.8 601C2308.7 601 2269.3 601 2230.2 601C2191 601 2152 601 2113 601C2074 601 2035 601 1995.8 601C1956.7 601 1917.3 601 1878.2 601C1839 601 1800 601 1760.8 601C1721.7 601 1682.3 601 1643.2 601C1604 601 1565 601 1526 601C1487 601 1448 601 1408.8 601C1369.7 601 1330.3 601 1291.2 601C1252 601 1213 601 1174 601C1135 601 1096 601 1056.8 601C1017.7 601 978.3 601 939.2 601C900 601 861 601 821.8 601C782.7 601 743.3 601 704.2 601C665 601 626 601 587 601C548 601 509 601 469.8 601C430.7 601 391.3 601 352.2 601C313 601 274 601 234.8 601C195.7 601 156.3 601 117.2 601C78 601 39 601 19.5 601L0 601Z" fill="#dc4167"></path><path d="M0 594L19.5 594.7C39 595.3 78 596.7 117.2 596.8C156.3 597 195.7 596 234.8 595.3C274 594.7 313 594.3 352.2 588.7C391.3 583 430.7 572 469.8 572.5C509 573 548 585 587 588.3C626 591.7 665 586.3 704.2 585.7C743.3 585 782.7 589 821.8 584.5C861 580 900 567 939.2 565.2C978.3 563.3 1017.7 572.7 1056.8 577.7C1096 582.7 1135 583.3 1174 582.2C1213 581 1252 578 1291.2 575C1330.3 572 1369.7 569 1408.8 570.8C1448 572.7 1487 579.3 1526 580C1565 580.7 1604 575.3 1643.2 572.3C1682.3 569.3 1721.7 568.7 1760.8 567.5C1800 566.3 1839 564.7 1878.2 569.2C1917.3 573.7 1956.7 584.3 1995.8 587.7C2035 591 2074 587 2113 586.7C2152 586.3 2191 589.7 2230.2 587.5C2269.3 585.3 2308.7 577.7 2347.8 577.5C2387 577.3 2426 584.7 2465.2 587.5C2504.3 590.3 2543.7 588.7 2582.8 582.3C2622 576 2661 565 2680.5 559.5L2700 554L2700 601L2680.5 601C2661 601 2622 601 2582.8 601C2543.7 601 2504.3 601 2465.2 601C2426 601 2387 601 2347.8 601C2308.7 601 2269.3 601 2230.2 601C2191 601 2152 601 2113 601C2074 601 2035 601 1995.8 601C1956.7 601 1917.3 601 1878.2 601C1839 601 1800 601 1760.8 601C1721.7 601 1682.3 601 1643.2 601C1604 601 1565 601 1526 601C1487 601 1448 601 1408.8 601C1369.7 601 1330.3 601 1291.2 601C1252 601 1213 601 1174 601C1135 601 1096 601 1056.8 601C1017.7 601 978.3 601 939.2 601C900 601 861 601 821.8 601C782.7 601 743.3 601 704.2 601C665 601 626 601 587 601C548 601 509 601 469.8 601C430.7 601 391.3 601 352.2 601C313 601 274 601 234.8 601C195.7 601 156.3 601 117.2 601C78 601 39 601 19.5 601L0 601Z" fill="#d73a67"></path><path d="M0 592L19.5 589.5C39 587 78 582 117.2 579.3C156.3 576.7 195.7 576.3 234.8 575.2C274 574 313 572 352.2 571.2C391.3 570.3 430.7 570.7 469.8 574.2C509 577.7 548 584.3 587 584.3C626 584.3 665 577.7 704.2 574C743.3 570.3 782.7 569.7 821.8 574.2C861 578.7 900 588.3 939.2 592.2C978.3 596 1017.7 594 1056.8 592.2C1096 590.3 1135 588.7 1174 588.8C1213 589 1252 591 1291.2 590C1330.3 589 1369.7 585 1408.8 581.2C1448 577.3 1487 573.7 1526 571.2C1565 568.7 1604 567.3 1643.2 571.2C1682.3 575 1721.7 584 1760.8 589C1800 594 1839 595 1878.2 594.8C1917.3 594.7 1956.7 593.3 1995.8 592.8C2035 592.3 2074 592.7 2113 593.3C2152 594 2191 595 2230.2 590.5C2269.3 586 2308.7 576 2347.8 572C2387 568 2426 570 2465.2 571.3C2504.3 572.7 2543.7 573.3 2582.8 575.7C2622 578 2661 582 2680.5 584L2700 586L2700 601L2680.5 601C2661 601 2622 601 2582.8 601C2543.7 601 2504.3 601 2465.2 601C2426 601 2387 601 2347.8 601C2308.7 601 2269.3 601 2230.2 601C2191 601 2152 601 2113 601C2074 601 2035 601 1995.8 601C1956.7 601 1917.3 601 1878.2 601C1839 601 1800 601 1760.8 601C1721.7 601 1682.3 601 1643.2 601C1604 601 1565 601 1526 601C1487 601 1448 601 1408.8 601C1369.7 601 1330.3 601 1291.2 601C1252 601 1213 601 1174 601C1135 601 1096 601 1056.8 601C1017.7 601 978.3 601 939.2 601C900 601 861 601 821.8 601C782.7 601 743.3 601 704.2 601C665 601 626 601 587 601C548 601 509 601 469.8 601C430.7 601 391.3 601 352.2 601C313 601 274 601 234.8 601C195.7 601 156.3 601 117.2 601C78 601 39 601 19.5 601L0 601Z" fill="#d13367"></path><path d="M0 592L19.5 590.5C39 589 78 586 117.2 582.8C156.3 579.7 195.7 576.3 234.8 575.8C274 575.3 313 577.7 352.2 580C391.3 582.3 430.7 584.7 469.8 584.7C509 584.7 548 582.3 587 583.2C626 584 665 588 704.2 590C743.3 592 782.7 592 821.8 593.2C861 594.3 900 596.7 939.2 597.7C978.3 598.7 1017.7 598.3 1056.8 597C1096 595.7 1135 593.3 1174 592.7C1213 592 1252 593 1291.2 592.7C1330.3 592.3 1369.7 590.7 1408.8 588.8C1448 587 1487 585 1526 585C1565 585 1604 587 1643.2 587.8C1682.3 588.7 1721.7 588.3 1760.8 585.5C1800 582.7 1839 577.3 1878.2 577.8C1917.3 578.3 1956.7 584.7 1995.8 585.8C2035 587 2074 583 2113 583.7C2152 584.3 2191 589.7 2230.2 591C2269.3 592.3 2308.7 589.7 2347.8 589.7C2387 589.7 2426 592.3 2465.2 591.5C2504.3 590.7 2543.7 586.3 2582.8 584.7C2622 583 2661 584 2680.5 584.5L2700 585L2700 601L2680.5 601C2661 601 2622 601 2582.8 601C2543.7 601 2504.3 601 2465.2 601C2426 601 2387 601 2347.8 601C2308.7 601 2269.3 601 2230.2 601C2191 601 2152 601 2113 601C2074 601 2035 601 1995.8 601C1956.7 601 1917.3 601 1878.2 601C1839 601 1800 601 1760.8 601C1721.7 601 1682.3 601 1643.2 601C1604 601 1565 601 1526 601C1487 601 1448 601 1408.8 601C1369.7 601 1330.3 601 1291.2 601C1252 601 1213 601 1174 601C1135 601 1096 601 1056.8 601C1017.7 601 978.3 601 939.2 601C900 601 861 601 821.8 601C782.7 601 743.3 601 704.2 601C665 601 626 601 587 601C548 601 509 601 469.8 601C430.7 601 391.3 601 352.2 601C313 601 274 601 234.8 601C195.7 601 156.3 601 117.2 601C78 601 39 601 19.5 601L0 601Z" fill="#cc2b68"></path><path d="M0 584L19.5 584.8C39 585.7 78 587.3 117.2 587.7C156.3 588 195.7 587 234.8 585.7C274 584.3 313 582.7 352.2 582.8C391.3 583 430.7 585 469.8 585.3C509 585.7 548 584.3 587 583.3C626 582.3 665 581.7 704.2 582.7C743.3 583.7 782.7 586.3 821.8 588.5C861 590.7 900 592.3 939.2 591.5C978.3 590.7 1017.7 587.3 1056.8 587.7C1096 588 1135 592 1174 593.5C1213 595 1252 594 1291.2 591.7C1330.3 589.3 1369.7 585.7 1408.8 585.8C1448 586 1487 590 1526 591.7C1565 593.3 1604 592.7 1643.2 590.8C1682.3 589 1721.7 586 1760.8 586.2C1800 586.3 1839 589.7 1878.2 592C1917.3 594.3 1956.7 595.7 1995.8 595.7C2035 595.7 2074 594.3 2113 593.5C2152 592.7 2191 592.3 2230.2 592.2C2269.3 592 2308.7 592 2347.8 592.3C2387 592.7 2426 593.3 2465.2 594.5C2504.3 595.7 2543.7 597.3 2582.8 596C2622 594.7 2661 590.3 2680.5 588.2L2700 586L2700 601L2680.5 601C2661 601 2622 601 2582.8 601C2543.7 601 2504.3 601 2465.2 601C2426 601 2387 601 2347.8 601C2308.7 601 2269.3 601 2230.2 601C2191 601 2152 601 2113 601C2074 601 2035 601 1995.8 601C1956.7 601 1917.3 601 1878.2 601C1839 601 1800 601 1760.8 601C1721.7 601 1682.3 601 1643.2 601C1604 601 1565 601 1526 601C1487 601 1448 601 1408.8 601C1369.7 601 1330.3 601 1291.2 601C1252 601 1213 601 1174 601C1135 601 1096 601 1056.8 601C1017.7 601 978.3 601 939.2 601C900 601 861 601 821.8 601C782.7 601 743.3 601 704.2 601C665 601 626 601 587 601C548 601 509 601 469.8 601C430.7 601 391.3 601 352.2 601C313 601 274 601 234.8 601C195.7 601 156.3 601 117.2 601C78 601 39 601 19.5 601L0 601Z" fill="#c62368"></path></svg>