<svg id="visual" viewBox="0 0 2700 200" width="2700" height="200" xmlns="http://www.w3.org/2000/svg" xmlns:xlink="http://www.w3.org/1999/xlink" version="1.1"><path d="M0 166L19.5 165.3C39 164.7 78 163.3 117.2 164C156.3 164.7 195.7 167.3 234.8 169C274 170.7 313 171.3 352.2 170.3C391.3 169.3 430.7 166.7 469.8 164.7C509 162.7 548 161.3 587 163.8C626 166.3 665 172.7 704.2 176.3C743.3 180 782.7 181 821.8 183.5C861 186 900 190 939.2 192.3C978.3 194.7 1017.7 195.3 1056.8 192.3C1096 189.3 1135 182.7 1174 177.2C1213 171.7 1252 167.3 1291.2 170.2C1330.3 173 1369.7 183 1408.8 185C1448 187 1487 181 1526 178C1565 175 1604 175 1643.2 173C1682.3 171 1721.7 167 1760.8 167.3C1800 167.7 1839 172.3 1878.2 172.3C1917.3 172.3 1956.7 167.7 1995.8 171C2035 174.3 2074 185.7 2113 187.7C2152 189.7 2191 182.3 2230.2 182.3C2269.3 182.3 2308.7 189.7 2347.8 188C2387 186.3 2426 175.7 2465.2 173.8C2504.3 172 2543.7 179 2582.8 182.2C2622 185.3 2661 184.7 2680.5 184.3L2700 184L2700 201L2680.5 201C2661 201 2622 201 2582.8 201C2543.7 201 2504.3 201 2465.2 201C2426 201 2387 201 2347.8 201C2308.7 201 2269.3 201 2230.2 201C2191 201 2152 201 2113 201C2074 201 2035 201 1995.8 201C1956.7 201 1917.3 201 1878.2 201C1839 201 1800 201 1760.8 201C1721.7 201 1682.3 201 1643.2 201C1604 201 1565 201 1526 201C1487 201 1448 201 1408.8 201C1369.7 201 1330.3 201 1291.2 201C1252 201 1213 201 1174 201C1135 201 1096 201 1056.8 201C1017.7 201 978.3 201 939.2 201C900 201 861 201 821.8 201C782.7 201 743.3 201 704.2 201C665 201 626 201 587 201C548 201 509 201 469.8 201C430.7 201 391.3 201 352.2 201C313 201 274 201 234.8 201C195.7 201 156.3 201 117.2 201C78 201 39 201 19.5 201L0 201Z" fill="#fa7268"></path><path d="M0 191L19.5 188.2C39 185.3 78 179.7 117.2 179.8C156.3 180 195.7 186 234.8 185.8C274 185.7 313 179.3 352.2 176.8C391.3 174.3 430.7 175.7 469.8 174.2C509 172.7 548 168.3 587 170C626 171.7 665 179.3 704.2 183.3C743.3 187.3 782.7 187.7 821.8 183.8C861 180 900 172 939.2 172.2C978.3 172.3 1017.7 180.7 1056.8 182.7C1096 184.7 1135 180.3 1174 181.3C1213 182.3 1252 188.7 1291.2 187.2C1330.3 185.7 1369.7 176.3 1408.8 176C1448 175.7 1487 184.3 1526 184.2C1565 184 1604 175 1643.2 170.5C1682.3 166 1721.7 166 1760.8 170.8C1800 175.7 1839 185.3 1878.2 188.3C1917.3 191.3 1956.7 187.7 1995.8 183.2C2035 178.7 2074 173.3 2113 174.8C2152 176.3 2191 184.7 2230.2 184.7C2269.3 184.7 2308.7 176.3 2347.8 177.2C2387 178 2426 188 2465.2 191.5C2504.3 195 2543.7 192 2582.8 188.5C2622 185 2661 181 2680.5 179L2700 177L2700 201L2680.5 201C2661 201 2622 201 2582.8 201C2543.7 201 2504.3 201 2465.2 201C2426 201 2387 201 2347.8 201C2308.7 201 2269.3 201 2230.2 201C2191 201 2152 201 2113 201C2074 201 2035 201 1995.8 201C1956.7 201 1917.3 201 1878.2 201C1839 201 1800 201 1760.8 201C1721.7 201 1682.3 201 1643.2 201C1604 201 1565 201 1526 201C1487 201 1448 201 1408.8 201C1369.7 201 1330.3 201 1291.2 201C1252 201 1213 201 1174 201C1135 201 1096 201 1056.8 201C1017.7 201 978.3 201 939.2 201C900 201 861 201 821.8 201C782.7 201 743.3 201 704.2 201C665 201 626 201 587 201C548 201 509 201 469.8 201C430.7 201 391.3 201 352.2 201C313 201 274 201 234.8 201C195.7 201 156.3 201 117.2 201C78 201 39 201 19.5 201L0 201Z" fill="#f66b68"></path><path d="M0 187L19.5 185C39 183 78 179 117.2 175.7C156.3 172.3 195.7 169.7 234.8 170.2C274 170.7 313 174.3 352.2 177.8C391.3 181.3 430.7 184.7 469.8 185.3C509 186 548 184 587 180.5C626 177 665 172 704.2 170.2C743.3 168.3 782.7 169.7 821.8 172.2C861 174.7 900 178.3 939.2 182.3C978.3 186.3 1017.7 190.7 1056.8 189.8C1096 189 1135 183 1174 178.3C1213 173.7 1252 170.3 1291.2 171.3C1330.3 172.3 1369.7 177.7 1408.8 183C1448 188.3 1487 193.7 1526 194.8C1565 196 1604 193 1643.2 188.3C1682.3 183.7 1721.7 177.3 1760.8 176C1800 174.7 1839 178.3 1878.2 178C1917.3 177.7 1956.7 173.3 1995.8 171.3C2035 169.3 2074 169.7 2113 171.5C2152 173.3 2191 176.7 2230.2 177.2C2269.3 177.7 2308.7 175.3 2347.8 177.8C2387 180.3 2426 187.7 2465.2 191.5C2504.3 195.3 2543.7 195.7 2582.8 191.5C2622 187.3 2661 178.7 2680.5 174.3L2700 170L2700 201L2680.5 201C2661 201 2622 201 2582.8 201C2543.7 201 2504.3 201 2465.2 201C2426 201 2387 201 2347.8 201C2308.7 201 2269.3 201 2230.2 201C2191 201 2152 201 2113 201C2074 201 2035 201 1995.8 201C1956.7 201 1917.3 201 1878.2 201C1839 201 1800 201 1760.8 201C1721.7 201 1682.3 201 1643.2 201C1604 201 1565 201 1526 201C1487 201 1448 201 1408.8 201C1369.7 201 1330.3 201 1291.2 201C1252 201 1213 201 1174 201C1135 201 1096 201 1056.8 201C1017.7 201 978.3 201 939.2 201C900 201 861 201 821.8 201C782.7 201 743.3 201 704.2 201C665 201 626 201 587 201C548 201 509 201 469.8 201C430.7 201 391.3 201 352.2 201C313 201 274 201 234.8 201C195.7 201 156.3 201 117.2 201C78 201 39 201 19.5 201L0 201Z" fill="#f26467"></path><path d="M0 197L19.5 193.3C39 189.7 78 182.3 117.2 180C156.3 177.7 195.7 180.3 234.8 181.5C274 182.7 313 182.3 352.2 183.3C391.3 184.3 430.7 186.7 469.8 185.3C509 184 548 179 587 176.7C626 174.3 665 174.7 704.2 176C743.3 177.3 782.7 179.7 821.8 179.5C861 179.3 900 176.7 939.2 176.2C978.3 175.7 1017.7 177.3 1056.8 177.7C1096 178 1135 177 1174 179.5C1213 182 1252 188 1291.2 189.5C1330.3 191 1369.7 188 1408.8 186.8C1448 185.7 1487 186.3 1526 185.2C1565 184 1604 181 1643.2 180.8C1682.3 180.7 1721.7 183.3 1760.8 183.7C1800 184 1839 182 1878.2 180.8C1917.3 179.7 1956.7 179.3 1995.8 182C2035 184.7 2074 190.3 2113 191.8C2152 193.3 2191 190.7 2230.2 189.2C2269.3 187.7 2308.7 187.3 2347.8 186.3C2387 185.3 2426 183.7 2465.2 183C2504.3 182.3 2543.7 182.7 2582.8 183.3C2622 184 2661 185 2680.5 185.5L2700 186L2700 201L2680.5 201C2661 201 2622 201 2582.8 201C2543.7 201 2504.3 201 2465.2 201C2426 201 2387 201 2347.8 201C2308.7 201 2269.3 201 2230.2 201C2191 201 2152 201 2113 201C2074 201 2035 201 1995.8 201C1956.7 201 1917.3 201 1878.2 201C1839 201 1800 201 1760.8 201C1721.7 201 1682.3 201 1643.2 201C1604 201 1565 201 1526 201C1487 201 1448 201 1408.8 201C1369.7 201 1330.3 201 1291.2 201C1252 201 1213 201 1174 201C1135 201 1096 201 1056.8 201C1017.7 201 978.3 201 939.2 201C900 201 861 201 821.8 201C782.7 201 743.3 201 704.2 201C665 201 626 201 587 201C548 201 509 201 469.8 201C430.7 201 391.3 201 352.2 201C313 201 274 201 234.8 201C195.7 201 156.3 201 117.2 201C78 201 39 201 19.5 201L0 201Z" fill="#ee5d67"></path><path d="M0 173L19.5 177C39 181 78 189 117.2 191.2C156.3 193.3 195.7 189.7 234.8 186.8C274 184 313 182 352.2 181.5C391.3 181 430.7 182 469.8 182.2C509 182.3 548 181.7 587 183.8C626 186 665 191 704.2 192.8C743.3 194.7 782.7 193.3 821.8 191.8C861 190.3 900 188.7 939.2 185.2C978.3 181.7 1017.7 176.3 1056.8 175.3C1096 174.3 1135 177.7 1174 179.7C1213 181.7 1252 182.3 1291.2 183.8C1330.3 185.3 1369.7 187.7 1408.8 187C1448 186.3 1487 182.7 1526 181.8C1565 181 1604 183 1643.2 184.7C1682.3 186.3 1721.7 187.7 1760.8 189.2C1800 190.7 1839 192.3 1878.2 190.2C1917.3 188 1956.7 182 1995.8 179.2C2035 176.3 2074 176.7 2113 180.2C2152 183.7 2191 190.3 2230.2 190C2269.3 189.7 2308.7 182.3 2347.8 179.7C2387 177 2426 179 2465.2 181.3C2504.3 183.7 2543.7 186.3 2582.8 186.7C2622 187 2661 185 2680.5 184L2700 183L2700 201L2680.5 201C2661 201 2622 201 2582.8 201C2543.7 201 2504.3 201 2465.2 201C2426 201 2387 201 2347.8 201C2308.7 201 2269.3 201 2230.2 201C2191 201 2152 201 2113 201C2074 201 2035 201 1995.8 201C1956.7 201 1917.3 201 1878.2 201C1839 201 1800 201 1760.8 201C1721.7 201 1682.3 201 1643.2 201C1604 201 1565 201 1526 201C1487 201 1448 201 1408.8 201C1369.7 201 1330.3 201 1291.2 201C1252 201 1213 201 1174 201C1135 201 1096 201 1056.8 201C1017.7 201 978.3 201 939.2 201C900 201 861 201 821.8 201C782.7 201 743.3 201 704.2 201C665 201 626 201 587 201C548 201 509 201 469.8 201C430.7 201 391.3 201 352.2 201C313 201 274 201 234.8 201C195.7 201 156.3 201 117.2 201C78 201 39 201 19.5 201L0 201Z" fill="#ea5667"></path><path d="M0 180L19.5 182.7C39 185.3 78 190.7 117.2 190C156.3 189.3 195.7 182.7 234.8 181.8C274 181 313 186 352.2 186.2C391.3 186.3 430.7 181.7 469.8 182.3C509 183 548 189 587 188.7C626 188.3 665 181.7 704.2 179.7C743.3 177.7 782.7 180.3 821.8 181.5C861 182.7 900 182.3 939.2 182.3C978.3 182.3 1017.7 182.7 1056.8 185.5C1096 188.3 1135 193.7 1174 194.5C1213 195.3 1252 191.7 1291.2 190.3C1330.3 189 1369.7 190 1408.8 191.8C1448 193.7 1487 196.3 1526 194C1565 191.7 1604 184.3 1643.2 183.8C1682.3 183.3 1721.7 189.7 1760.8 189.5C1800 189.3 1839 182.7 1878.2 181.8C1917.3 181 1956.7 186 1995.8 186.2C2035 186.3 2074 181.7 2113 181.3C2152 181 2191 185 2230.2 187.3C2269.3 189.7 2308.7 190.3 2347.8 188.5C2387 186.7 2426 182.3 2465.2 182.5C2504.3 182.7 2543.7 187.3 2582.8 190.3C2622 193.3 2661 194.7 2680.5 195.3L2700 196L2700 201L2680.5 201C2661 201 2622 201 2582.8 201C2543.7 201 2504.3 201 2465.2 201C2426 201 2387 201 2347.8 201C2308.7 201 2269.3 201 2230.2 201C2191 201 2152 201 2113 201C2074 201 2035 201 1995.8 201C1956.7 201 1917.3 201 1878.2 201C1839 201 1800 201 1760.8 201C1721.7 201 1682.3 201 1643.2 201C1604 201 1565 201 1526 201C1487 201 1448 201 1408.8 201C1369.7 201 1330.3 201 1291.2 201C1252 201 1213 201 1174 201C1135 201 1096 201 1056.8 201C1017.7 201 978.3 201 939.2 201C900 201 861 201 821.8 201C782.7 201 743.3 201 704.2 201C665 201 626 201 587 201C548 201 509 201 469.8 201C430.7 201 391.3 201 352.2 201C313 201 274 201 234.8 201C195.7 201 156.3 201 117.2 201C78 201 39 201 19.5 201L0 201Z" fill="#e54f67"></path><path d="M0 188L19.5 188.8C39 189.7 78 191.3 117.2 191.2C156.3 191 195.7 189 234.8 188.7C274 188.3 313 189.7 352.2 188.7C391.3 187.7 430.7 184.3 469.8 184.8C509 185.3 548 189.7 587 190.7C626 191.7 665 189.3 704.2 188.8C743.3 188.3 782.7 189.7 821.8 190.8C861 192 900 193 939.2 192.7C978.3 192.3 1017.7 190.7 1056.8 190.5C1096 190.3 1135 191.7 1174 192.7C1213 193.7 1252 194.3 1291.2 193C1330.3 191.7 1369.7 188.3 1408.8 188.2C1448 188 1487 191 1526 192C1565 193 1604 192 1643.2 191.5C1682.3 191 1721.7 191 1760.8 192C1800 193 1839 195 1878.2 194.2C1917.3 193.3 1956.7 189.7 1995.8 187.5C2035 185.3 2074 184.7 2113 184.7C2152 184.7 2191 185.3 2230.2 185C2269.3 184.7 2308.7 183.3 2347.8 183.5C2387 183.7 2426 185.3 2465.2 184.7C2504.3 184 2543.7 181 2582.8 182.2C2622 183.3 2661 188.7 2680.5 191.3L2700 194L2700 201L2680.5 201C2661 201 2622 201 2582.8 201C2543.7 201 2504.3 201 2465.2 201C2426 201 2387 201 2347.8 201C2308.7 201 2269.3 201 2230.2 201C2191 201 2152 201 2113 201C2074 201 2035 201 1995.8 201C1956.7 201 1917.3 201 1878.2 201C1839 201 1800 201 1760.8 201C1721.7 201 1682.3 201 1643.2 201C1604 201 1565 201 1526 201C1487 201 1448 201 1408.8 201C1369.7 201 1330.3 201 1291.2 201C1252 201 1213 201 1174 201C1135 201 1096 201 1056.8 201C1017.7 201 978.3 201 939.2 201C900 201 861 201 821.8 201C782.7 201 743.3 201 704.2 201C665 201 626 201 587 201C548 201 509 201 469.8 201C430.7 201 391.3 201 352.2 201C313 201 274 201 234.8 201C195.7 201 156.3 201 117.2 201C78 201 39 201 19.5 201L0 201Z" fill="#e14867"></path><path d="M0 192L19.5 193C39 194 78 196 117.2 195.5C156.3 195 195.7 192 234.8 191.3C274 190.7 313 192.3 352.2 192.3C391.3 192.3 430.7 190.7 469.8 191.5C509 192.3 548 195.7 587 196.3C626 197 665 195 704.2 192C743.3 189 782.7 185 821.8 183.2C861 181.3 900 181.7 939.2 184.7C978.3 187.7 1017.7 193.3 1056.8 194.5C1096 195.7 1135 192.3 1174 190.2C1213 188 1252 187 1291.2 186.7C1330.3 186.3 1369.7 186.7 1408.8 186C1448 185.3 1487 183.7 1526 185.5C1565 187.3 1604 192.7 1643.2 192.7C1682.3 192.7 1721.7 187.3 1760.8 184.8C1800 182.3 1839 182.7 1878.2 183.3C1917.3 184 1956.7 185 1995.8 185.7C2035 186.3 2074 186.7 2113 188.3C2152 190 2191 193 2230.2 194.5C2269.3 196 2308.7 196 2347.8 194.7C2387 193.3 2426 190.7 2465.2 190C2504.3 189.3 2543.7 190.7 2582.8 191.2C2622 191.7 2661 191.3 2680.5 191.2L2700 191L2700 201L2680.5 201C2661 201 2622 201 2582.8 201C2543.7 201 2504.3 201 2465.2 201C2426 201 2387 201 2347.8 201C2308.7 201 2269.3 201 2230.2 201C2191 201 2152 201 2113 201C2074 201 2035 201 1995.8 201C1956.7 201 1917.3 201 1878.2 201C1839 201 1800 201 1760.8 201C1721.7 201 1682.3 201 1643.2 201C1604 201 1565 201 1526 201C1487 201 1448 201 1408.8 201C1369.7 201 1330.3 201 1291.2 201C1252 201 1213 201 1174 201C1135 201 1096 201 1056.8 201C1017.7 201 978.3 201 939.2 201C900 201 861 201 821.8 201C782.7 201 743.3 201 704.2 201C665 201 626 201 587 201C548 201 509 201 469.8 201C430.7 201 391.3 201 352.2 201C313 201 274 201 234.8 201C195.7 201 156.3 201 117.2 201C78 201 39 201 19.5 201L0 201Z" fill="#dc4167"></path><path d="M0 198L19.5 196.7C39 195.3 78 192.7 117.2 192.3C156.3 192 195.7 194 234.8 195.3C274 196.7 313 197.3 352.2 197.7C391.3 198 430.7 198 469.8 197.7C509 197.3 548 196.7 587 195C626 193.3 665 190.7 704.2 189.7C743.3 188.7 782.7 189.3 821.8 190.3C861 191.3 900 192.7 939.2 192.5C978.3 192.3 1017.7 190.7 1056.8 191.3C1096 192 1135 195 1174 196.5C1213 198 1252 198 1291.2 196.2C1330.3 194.3 1369.7 190.7 1408.8 188.7C1448 186.7 1487 186.3 1526 186.2C1565 186 1604 186 1643.2 186.3C1682.3 186.7 1721.7 187.3 1760.8 187.8C1800 188.3 1839 188.7 1878.2 188.2C1917.3 187.7 1956.7 186.3 1995.8 187.8C2035 189.3 2074 193.7 2113 194.5C2152 195.3 2191 192.7 2230.2 191.5C2269.3 190.3 2308.7 190.7 2347.8 190.3C2387 190 2426 189 2465.2 189.3C2504.3 189.7 2543.7 191.3 2582.8 190.8C2622 190.3 2661 187.7 2680.5 186.3L2700 185L2700 201L2680.5 201C2661 201 2622 201 2582.8 201C2543.7 201 2504.3 201 2465.2 201C2426 201 2387 201 2347.8 201C2308.7 201 2269.3 201 2230.2 201C2191 201 2152 201 2113 201C2074 201 2035 201 1995.8 201C1956.7 201 1917.3 201 1878.2 201C1839 201 1800 201 1760.8 201C1721.7 201 1682.3 201 1643.2 201C1604 201 1565 201 1526 201C1487 201 1448 201 1408.8 201C1369.7 201 1330.3 201 1291.2 201C1252 201 1213 201 1174 201C1135 201 1096 201 1056.8 201C1017.7 201 978.3 201 939.2 201C900 201 861 201 821.8 201C782.7 201 743.3 201 704.2 201C665 201 626 201 587 201C548 201 509 201 469.8 201C430.7 201 391.3 201 352.2 201C313 201 274 201 234.8 201C195.7 201 156.3 201 117.2 201C78 201 39 201 19.5 201L0 201Z" fill="#d73a67"></path><path d="M0 189L19.5 189C39 189 78 189 117.2 190.2C156.3 191.3 195.7 193.7 234.8 194.8C274 196 313 196 352.2 196.2C391.3 196.3 430.7 196.7 469.8 195.3C509 194 548 191 587 190.5C626 190 665 192 704.2 192.8C743.3 193.7 782.7 193.3 821.8 193.5C861 193.7 900 194.3 939.2 193.7C978.3 193 1017.7 191 1056.8 190.3C1096 189.7 1135 190.3 1174 191.8C1213 193.3 1252 195.7 1291.2 195.3C1330.3 195 1369.7 192 1408.8 191.5C1448 191 1487 193 1526 193.5C1565 194 1604 193 1643.2 193.2C1682.3 193.3 1721.7 194.7 1760.8 194C1800 193.3 1839 190.7 1878.2 189.2C1917.3 187.7 1956.7 187.3 1995.8 189C2035 190.7 2074 194.3 2113 194.5C2152 194.7 2191 191.3 2230.2 191.3C2269.3 191.3 2308.7 194.7 2347.8 195.5C2387 196.3 2426 194.7 2465.2 194.7C2504.3 194.7 2543.7 196.3 2582.8 195.8C2622 195.3 2661 192.7 2680.5 191.3L2700 190L2700 201L2680.5 201C2661 201 2622 201 2582.8 201C2543.7 201 2504.3 201 2465.2 201C2426 201 2387 201 2347.8 201C2308.7 201 2269.3 201 2230.2 201C2191 201 2152 201 2113 201C2074 201 2035 201 1995.8 201C1956.7 201 1917.3 201 1878.2 201C1839 201 1800 201 1760.8 201C1721.7 201 1682.3 201 1643.2 201C1604 201 1565 201 1526 201C1487 201 1448 201 1408.8 201C1369.7 201 1330.3 201 1291.2 201C1252 201 1213 201 1174 201C1135 201 1096 201 1056.8 201C1017.7 201 978.3 201 939.2 201C900 201 861 201 821.8 201C782.7 201 743.3 201 704.2 201C665 201 626 201 587 201C548 201 509 201 469.8 201C430.7 201 391.3 201 352.2 201C313 201 274 201 234.8 201C195.7 201 156.3 201 117.2 201C78 201 39 201 19.5 201L0 201Z" fill="#d13367"></path><path d="M0 193L19.5 192.7C39 192.3 78 191.7 117.2 191.3C156.3 191 195.7 191 234.8 192.2C274 193.3 313 195.7 352.2 196C391.3 196.3 430.7 194.7 469.8 193.3C509 192 548 191 587 191.2C626 191.3 665 192.7 704.2 193.5C743.3 194.3 782.7 194.7 821.8 195.2C861 195.7 900 196.3 939.2 195.7C978.3 195 1017.7 193 1056.8 192.8C1096 192.7 1135 194.3 1174 194.7C1213 195 1252 194 1291.2 194.2C1330.3 194.3 1369.7 195.7 1408.8 196.5C1448 197.3 1487 197.7 1526 197.8C1565 198 1604 198 1643.2 197.3C1682.3 196.7 1721.7 195.3 1760.8 194.2C1800 193 1839 192 1878.2 192.5C1917.3 193 1956.7 195 1995.8 195.2C2035 195.3 2074 193.7 2113 193.2C2152 192.7 2191 193.3 2230.2 193.2C2269.3 193 2308.7 192 2347.8 191.8C2387 191.7 2426 192.3 2465.2 193.2C2504.3 194 2543.7 195 2582.8 194.5C2622 194 2661 192 2680.5 191L2700 190L2700 201L2680.5 201C2661 201 2622 201 2582.8 201C2543.7 201 2504.3 201 2465.2 201C2426 201 2387 201 2347.8 201C2308.7 201 2269.3 201 2230.2 201C2191 201 2152 201 2113 201C2074 201 2035 201 1995.8 201C1956.7 201 1917.3 201 1878.2 201C1839 201 1800 201 1760.8 201C1721.7 201 1682.3 201 1643.2 201C1604 201 1565 201 1526 201C1487 201 1448 201 1408.8 201C1369.7 201 1330.3 201 1291.2 201C1252 201 1213 201 1174 201C1135 201 1096 201 1056.8 201C1017.7 201 978.3 201 939.2 201C900 201 861 201 821.8 201C782.7 201 743.3 201 704.2 201C665 201 626 201 587 201C548 201 509 201 469.8 201C430.7 201 391.3 201 352.2 201C313 201 274 201 234.8 201C195.7 201 156.3 201 117.2 201C78 201 39 201 19.5 201L0 201Z" fill="#cc2b68"></path><path d="M0 197L19.5 197C39 197 78 197 117.2 196.5C156.3 196 195.7 195 234.8 194.3C274 193.7 313 193.3 352.2 193.3C391.3 193.3 430.7 193.7 469.8 194.7C509 195.7 548 197.3 587 198C626 198.7 665 198.3 704.2 198.2C743.3 198 782.7 198 821.8 197.5C861 197 900 196 939.2 195.3C978.3 194.7 1017.7 194.3 1056.8 195C1096 195.7 1135 197.3 1174 197.2C1213 197 1252 195 1291.2 194.5C1330.3 194 1369.7 195 1408.8 195.3C1448 195.7 1487 195.3 1526 195.3C1565 195.3 1604 195.7 1643.2 196.3C1682.3 197 1721.7 198 1760.8 197.7C1800 197.3 1839 195.7 1878.2 195C1917.3 194.3 1956.7 194.7 1995.8 195C2035 195.3 2074 195.7 2113 195.7C2152 195.7 2191 195.3 2230.2 194.8C2269.3 194.3 2308.7 193.7 2347.8 193.7C2387 193.7 2426 194.3 2465.2 194.3C2504.3 194.3 2543.7 193.7 2582.8 193.7C2622 193.7 2661 194.3 2680.5 194.7L2700 195L2700 201L2680.5 201C2661 201 2622 201 2582.8 201C2543.7 201 2504.3 201 2465.2 201C2426 201 2387 201 2347.8 201C2308.7 201 2269.3 201 2230.2 201C2191 201 2152 201 2113 201C2074 201 2035 201 1995.8 201C1956.7 201 1917.3 201 1878.2 201C1839 201 1800 201 1760.8 201C1721.7 201 1682.3 201 1643.2 201C1604 201 1565 201 1526 201C1487 201 1448 201 1408.8 201C1369.7 201 1330.3 201 1291.2 201C1252 201 1213 201 1174 201C1135 201 1096 201 1056.8 201C1017.7 201 978.3 201 939.2 201C900 201 861 201 821.8 201C782.7 201 743.3 201 704.2 201C665 201 626 201 587 201C548 201 509 201 469.8 201C430.7 201 391.3 201 352.2 201C313 201 274 201 234.8 201C195.7 201 156.3 201 117.2 201C78 201 39 201 19.5 201L0 201Z" fill="#c62368"></path></svg>