<svg id="visual" viewBox="0 0 900 600" width="900" height="600" xmlns="http://www.w3.org/2000/svg" xmlns:xlink="http://www.w3.org/1999/xlink" version="1.1"><rect x="0" y="0" width="900" height="600" fill="#242424"></rect><path d="M127 0L129.2 4.3C131.3 8.7 135.7 17.3 130 26C124.3 34.7 108.7 43.3 106.3 52C104 60.7 115 69.3 121.7 78C128.3 86.7 130.7 95.3 128 104C125.3 112.7 117.7 121.3 113.2 130.2C108.7 139 107.3 148 104.7 156.8C102 165.7 98 174.3 99 183C100 191.7 106 200.3 106.2 209C106.3 217.7 100.7 226.3 99.5 235C98.3 243.7 101.7 252.3 110.8 261C120 269.7 135 278.3 141.2 287C147.3 295.7 144.7 304.3 136.8 313C129 321.7 116 330.3 115.2 339C114.3 347.7 125.7 356.3 133 365C140.3 373.7 143.7 382.3 142.3 391C141 399.7 135 408.3 131.8 417C128.7 425.7 128.3 434.3 126.2 443.2C124 452 120 461 123.2 469.8C126.3 478.7 136.7 487.3 133 496C129.3 504.7 111.7 513.3 111.8 522C112 530.7 130 539.3 130.3 548C130.7 556.7 113.3 565.3 108.3 574C103.3 582.7 110.7 591.3 114.3 595.7L118 600L0 600L0 595.7C0 591.3 0 582.7 0 574C0 565.3 0 556.7 0 548C0 539.3 0 530.7 0 522C0 513.3 0 504.7 0 496C0 487.3 0 478.7 0 469.8C0 461 0 452 0 443.2C0 434.3 0 425.7 0 417C0 408.3 0 399.7 0 391C0 382.3 0 373.7 0 365C0 356.3 0 347.7 0 339C0 330.3 0 321.7 0 313C0 304.3 0 295.7 0 287C0 278.3 0 269.7 0 261C0 252.3 0 243.7 0 235C0 226.3 0 217.7 0 209C0 200.3 0 191.7 0 183C0 174.3 0 165.7 0 156.8C0 148 0 139 0 130.2C0 121.3 0 112.7 0 104C0 95.3 0 86.7 0 78C0 69.3 0 60.7 0 52C0 43.3 0 34.7 0 26C0 17.3 0 8.7 0 4.3L0 0Z" fill="#fa7268"></path><path d="M131 0L131.5 4.3C132 8.7 133 17.3 125.2 26C117.3 34.7 100.7 43.3 99.7 52C98.7 60.7 113.3 69.3 115.8 78C118.3 86.7 108.7 95.3 109.3 104C110 112.7 121 121.3 122.5 130.2C124 139 116 148 114 156.8C112 165.7 116 174.3 114.7 183C113.3 191.7 106.7 200.3 108.8 209C111 217.7 122 226.3 122.7 235C123.3 243.7 113.7 252.3 106.8 261C100 269.7 96 278.3 92.3 287C88.7 295.7 85.3 304.3 85 313C84.7 321.7 87.3 330.3 88.2 339C89 347.7 88 356.3 89.2 365C90.3 373.7 93.7 382.3 96.8 391C100 399.7 103 408.3 104.3 417C105.7 425.7 105.3 434.3 107.2 443.2C109 452 113 461 113.2 469.8C113.3 478.7 109.7 487.3 111.2 496C112.7 504.7 119.3 513.3 117.3 522C115.3 530.7 104.7 539.3 106.2 548C107.7 556.7 121.3 565.3 122.8 574C124.3 582.7 113.7 591.3 108.3 595.7L103 600L0 600L0 595.7C0 591.3 0 582.7 0 574C0 565.3 0 556.7 0 548C0 539.3 0 530.7 0 522C0 513.3 0 504.7 0 496C0 487.3 0 478.7 0 469.8C0 461 0 452 0 443.2C0 434.3 0 425.7 0 417C0 408.3 0 399.7 0 391C0 382.3 0 373.7 0 365C0 356.3 0 347.7 0 339C0 330.3 0 321.7 0 313C0 304.3 0 295.7 0 287C0 278.3 0 269.7 0 261C0 252.3 0 243.7 0 235C0 226.3 0 217.7 0 209C0 200.3 0 191.7 0 183C0 174.3 0 165.7 0 156.8C0 148 0 139 0 130.2C0 121.3 0 112.7 0 104C0 95.3 0 86.7 0 78C0 69.3 0 60.7 0 52C0 43.3 0 34.7 0 26C0 17.3 0 8.7 0 4.3L0 0Z" fill="#f56967"></path><path d="M109 0L108.8 4.3C108.7 8.7 108.3 17.3 106.7 26C105 34.7 102 43.3 100.8 52C99.7 60.7 100.3 69.3 101.8 78C103.3 86.7 105.7 95.3 101 104C96.3 112.7 84.7 121.3 85 130.2C85.3 139 97.7 148 102.8 156.8C108 165.7 106 174.3 101 183C96 191.7 88 200.3 86.2 209C84.3 217.7 88.7 226.3 88.5 235C88.3 243.7 83.7 252.3 83.5 261C83.3 269.7 87.7 278.3 90.7 287C93.7 295.7 95.3 304.3 94.5 313C93.7 321.7 90.3 330.3 88.8 339C87.3 347.7 87.7 356.3 93 365C98.3 373.7 108.7 382.3 106.5 391C104.3 399.7 89.7 408.3 86.8 417C84 425.7 93 434.3 95.7 443.2C98.3 452 94.7 461 90 469.8C85.3 478.7 79.7 487.3 81.5 496C83.3 504.7 92.7 513.3 100.2 522C107.7 530.7 113.3 539.3 111.5 548C109.7 556.7 100.3 565.3 93 574C85.7 582.7 80.3 591.3 77.7 595.7L75 600L0 600L0 595.7C0 591.3 0 582.7 0 574C0 565.3 0 556.7 0 548C0 539.3 0 530.7 0 522C0 513.3 0 504.7 0 496C0 487.3 0 478.7 0 469.8C0 461 0 452 0 443.2C0 434.3 0 425.7 0 417C0 408.3 0 399.7 0 391C0 382.3 0 373.7 0 365C0 356.3 0 347.7 0 339C0 330.3 0 321.7 0 313C0 304.3 0 295.7 0 287C0 278.3 0 269.7 0 261C0 252.3 0 243.7 0 235C0 226.3 0 217.7 0 209C0 200.3 0 191.7 0 183C0 174.3 0 165.7 0 156.8C0 148 0 139 0 130.2C0 121.3 0 112.7 0 104C0 95.3 0 86.7 0 78C0 69.3 0 60.7 0 52C0 43.3 0 34.7 0 26C0 17.3 0 8.7 0 4.3L0 0Z" fill="#ef5f67"></path><path d="M94 0L94 4.3C94 8.7 94 17.3 89.3 26C84.7 34.7 75.3 43.3 71 52C66.7 60.7 67.3 69.3 66.7 78C66 86.7 64 95.3 63.2 104C62.3 112.7 62.7 121.3 65.8 130.2C69 139 75 148 81.5 156.8C88 165.7 95 174.3 96.8 183C98.7 191.7 95.3 200.3 92.3 209C89.3 217.7 86.7 226.3 84.2 235C81.7 243.7 79.3 252.3 78.2 261C77 269.7 77 278.3 77.2 287C77.3 295.7 77.7 304.3 75.8 313C74 321.7 70 330.3 69 339C68 347.7 70 356.3 75 365C80 373.7 88 382.3 91.3 391C94.7 399.7 93.3 408.3 91.5 417C89.7 425.7 87.3 434.3 85.7 443.2C84 452 83 461 81.8 469.8C80.7 478.7 79.3 487.3 81.7 496C84 504.7 90 513.3 90.7 522C91.3 530.7 86.7 539.3 82.7 548C78.7 556.7 75.3 565.3 78.2 574C81 582.7 90 591.3 94.5 595.7L99 600L0 600L0 595.7C0 591.3 0 582.7 0 574C0 565.3 0 556.7 0 548C0 539.3 0 530.7 0 522C0 513.3 0 504.7 0 496C0 487.3 0 478.7 0 469.8C0 461 0 452 0 443.2C0 434.3 0 425.7 0 417C0 408.3 0 399.7 0 391C0 382.3 0 373.7 0 365C0 356.3 0 347.7 0 339C0 330.3 0 321.7 0 313C0 304.3 0 295.7 0 287C0 278.3 0 269.7 0 261C0 252.3 0 243.7 0 235C0 226.3 0 217.7 0 209C0 200.3 0 191.7 0 183C0 174.3 0 165.7 0 156.8C0 148 0 139 0 130.2C0 121.3 0 112.7 0 104C0 95.3 0 86.7 0 78C0 69.3 0 60.7 0 52C0 43.3 0 34.7 0 26C0 17.3 0 8.7 0 4.3L0 0Z" fill="#e95667"></path><path d="M86 0L85.7 4.3C85.3 8.7 84.7 17.3 79 26C73.3 34.7 62.7 43.3 62.3 52C62 60.7 72 69.3 72.8 78C73.7 86.7 65.3 95.3 65.5 104C65.7 112.7 74.3 121.3 73.8 130.2C73.3 139 63.7 148 61 156.8C58.3 165.7 62.7 174.3 66.5 183C70.3 191.7 73.7 200.3 72.3 209C71 217.7 65 226.3 62 235C59 243.7 59 252.3 57.7 261C56.3 269.7 53.7 278.3 55.5 287C57.3 295.7 63.7 304.3 67.8 313C72 321.7 74 330.3 76.2 339C78.3 347.7 80.7 356.3 80 365C79.3 373.7 75.7 382.3 76.5 391C77.3 399.7 82.7 408.3 81.2 417C79.7 425.7 71.3 434.3 70.5 443.2C69.7 452 76.3 461 75.2 469.8C74 478.7 65 487.3 61.8 496C58.7 504.7 61.3 513.3 61.7 522C62 530.7 60 539.3 63.3 548C66.7 556.7 75.3 565.3 77.5 574C79.7 582.7 75.3 591.3 73.2 595.7L71 600L0 600L0 595.7C0 591.3 0 582.7 0 574C0 565.3 0 556.7 0 548C0 539.3 0 530.7 0 522C0 513.3 0 504.7 0 496C0 487.3 0 478.7 0 469.8C0 461 0 452 0 443.2C0 434.3 0 425.7 0 417C0 408.3 0 399.7 0 391C0 382.3 0 373.7 0 365C0 356.3 0 347.7 0 339C0 330.3 0 321.7 0 313C0 304.3 0 295.7 0 287C0 278.3 0 269.7 0 261C0 252.3 0 243.7 0 235C0 226.3 0 217.7 0 209C0 200.3 0 191.7 0 183C0 174.3 0 165.7 0 156.8C0 148 0 139 0 130.2C0 121.3 0 112.7 0 104C0 95.3 0 86.7 0 78C0 69.3 0 60.7 0 52C0 43.3 0 34.7 0 26C0 17.3 0 8.7 0 4.3L0 0Z" fill="#e34c67"></path><path d="M42 0L45.2 4.3C48.3 8.7 54.7 17.3 54.7 26C54.7 34.7 48.3 43.3 45 52C41.7 60.7 41.3 69.3 45.5 78C49.7 86.7 58.3 95.3 61.2 104C64 112.7 61 121.3 58 130.2C55 139 52 148 49.3 156.8C46.7 165.7 44.3 174.3 46.3 183C48.3 191.7 54.7 200.3 58.2 209C61.7 217.7 62.3 226.3 59 235C55.7 243.7 48.3 252.3 49.3 261C50.3 269.7 59.7 278.3 61.8 287C64 295.7 59 304.3 54.5 313C50 321.7 46 330.3 48.8 339C51.7 347.7 61.3 356.3 65.8 365C70.3 373.7 69.7 382.3 67 391C64.3 399.7 59.7 408.3 55 417C50.3 425.7 45.7 434.3 48.2 443.2C50.7 452 60.3 461 60.7 469.8C61 478.7 52 487.3 51 496C50 504.7 57 513.3 60.5 522C64 530.7 64 539.3 61.8 548C59.7 556.7 55.3 565.3 53 574C50.7 582.7 50.3 591.3 50.2 595.7L50 600L0 600L0 595.7C0 591.3 0 582.7 0 574C0 565.3 0 556.7 0 548C0 539.3 0 530.7 0 522C0 513.3 0 504.7 0 496C0 487.3 0 478.7 0 469.8C0 461 0 452 0 443.2C0 434.3 0 425.7 0 417C0 408.3 0 399.7 0 391C0 382.3 0 373.7 0 365C0 356.3 0 347.7 0 339C0 330.3 0 321.7 0 313C0 304.3 0 295.7 0 287C0 278.3 0 269.7 0 261C0 252.3 0 243.7 0 235C0 226.3 0 217.7 0 209C0 200.3 0 191.7 0 183C0 174.3 0 165.7 0 156.8C0 148 0 139 0 130.2C0 121.3 0 112.7 0 104C0 95.3 0 86.7 0 78C0 69.3 0 60.7 0 52C0 43.3 0 34.7 0 26C0 17.3 0 8.7 0 4.3L0 0Z" fill="#dc4267"></path><path d="M53 0L52.5 4.3C52 8.7 51 17.3 48.3 26C45.7 34.7 41.3 43.3 42 52C42.7 60.7 48.3 69.3 49.2 78C50 86.7 46 95.3 45 104C44 112.7 46 121.3 44.3 130.2C42.7 139 37.3 148 35.7 156.8C34 165.7 36 174.3 39.8 183C43.7 191.7 49.3 200.3 49.3 209C49.3 217.7 43.7 226.3 43.2 235C42.7 243.7 47.3 252.3 50.3 261C53.3 269.7 54.7 278.3 55 287C55.3 295.7 54.7 304.3 51.3 313C48 321.7 42 330.3 38.5 339C35 347.7 34 356.3 35.5 365C37 373.7 41 382.3 43.7 391C46.3 399.7 47.7 408.3 45.2 417C42.7 425.7 36.3 434.3 37.2 443.2C38 452 46 461 47.8 469.8C49.7 478.7 45.3 487.3 44.2 496C43 504.7 45 513.3 44 522C43 530.7 39 539.3 40 548C41 556.7 47 565.3 49.2 574C51.3 582.7 49.7 591.3 48.8 595.7L48 600L0 600L0 595.7C0 591.3 0 582.7 0 574C0 565.3 0 556.7 0 548C0 539.3 0 530.7 0 522C0 513.3 0 504.7 0 496C0 487.3 0 478.7 0 469.8C0 461 0 452 0 443.2C0 434.3 0 425.7 0 417C0 408.3 0 399.7 0 391C0 382.3 0 373.7 0 365C0 356.3 0 347.7 0 339C0 330.3 0 321.7 0 313C0 304.3 0 295.7 0 287C0 278.3 0 269.7 0 261C0 252.3 0 243.7 0 235C0 226.3 0 217.7 0 209C0 200.3 0 191.7 0 183C0 174.3 0 165.7 0 156.8C0 148 0 139 0 130.2C0 121.3 0 112.7 0 104C0 95.3 0 86.7 0 78C0 69.3 0 60.7 0 52C0 43.3 0 34.7 0 26C0 17.3 0 8.7 0 4.3L0 0Z" fill="#d53867"></path><path d="M38 0L36.2 4.3C34.3 8.7 30.7 17.3 30.7 26C30.7 34.7 34.3 43.3 36.3 52C38.3 60.7 38.7 69.3 36.3 78C34 86.7 29 95.3 27.7 104C26.3 112.7 28.7 121.3 31.3 130.2C34 139 37 148 35.7 156.8C34.3 165.7 28.7 174.3 26.3 183C24 191.7 25 200.3 28.2 209C31.3 217.7 36.7 226.3 37 235C37.3 243.7 32.7 252.3 31.7 261C30.7 269.7 33.3 278.3 35.3 287C37.3 295.7 38.7 304.3 37.3 313C36 321.7 32 330.3 31.2 339C30.3 347.7 32.7 356.3 31.8 365C31 373.7 27 382.3 27.8 391C28.7 399.7 34.3 408.3 34.7 417C35 425.7 30 434.3 29.5 443.2C29 452 33 461 33.7 469.8C34.3 478.7 31.7 487.3 32.7 496C33.7 504.7 38.3 513.3 37.3 522C36.3 530.7 29.7 539.3 28.3 548C27 556.7 31 565.3 32.2 574C33.3 582.7 31.7 591.3 30.8 595.7L30 600L0 600L0 595.7C0 591.3 0 582.7 0 574C0 565.3 0 556.7 0 548C0 539.3 0 530.7 0 522C0 513.3 0 504.7 0 496C0 487.3 0 478.7 0 469.8C0 461 0 452 0 443.2C0 434.3 0 425.7 0 417C0 408.3 0 399.7 0 391C0 382.3 0 373.7 0 365C0 356.3 0 347.7 0 339C0 330.3 0 321.7 0 313C0 304.3 0 295.7 0 287C0 278.3 0 269.7 0 261C0 252.3 0 243.7 0 235C0 226.3 0 217.7 0 209C0 200.3 0 191.7 0 183C0 174.3 0 165.7 0 156.8C0 148 0 139 0 130.2C0 121.3 0 112.7 0 104C0 95.3 0 86.7 0 78C0 69.3 0 60.7 0 52C0 43.3 0 34.7 0 26C0 17.3 0 8.7 0 4.3L0 0Z" fill="#ce2e68"></path><path d="M27 0L24.5 4.3C22 8.7 17 17.3 16.7 26C16.3 34.7 20.7 43.3 21.5 52C22.3 60.7 19.7 69.3 19.3 78C19 86.7 21 95.3 22.3 104C23.7 112.7 24.3 121.3 24.2 130.2C24 139 23 148 21.8 156.8C20.7 165.7 19.3 174.3 19.3 183C19.3 191.7 20.7 200.3 21.5 209C22.3 217.7 22.7 226.3 23 235C23.3 243.7 23.7 252.3 23.2 261C22.7 269.7 21.3 278.3 19.2 287C17 295.7 14 304.3 14.2 313C14.3 321.7 17.7 330.3 20.3 339C23 347.7 25 356.3 25.7 365C26.3 373.7 25.7 382.3 23.2 391C20.7 399.7 16.3 408.3 14.3 417C12.3 425.7 12.7 434.3 12.8 443.2C13 452 13 461 14 469.8C15 478.7 17 487.3 17.2 496C17.3 504.7 15.7 513.3 15.5 522C15.3 530.7 16.7 539.3 16.2 548C15.7 556.7 13.3 565.3 13.5 574C13.7 582.7 16.3 591.3 17.7 595.7L19 600L0 600L0 595.7C0 591.3 0 582.7 0 574C0 565.3 0 556.7 0 548C0 539.3 0 530.7 0 522C0 513.3 0 504.7 0 496C0 487.3 0 478.7 0 469.8C0 461 0 452 0 443.2C0 434.3 0 425.7 0 417C0 408.3 0 399.7 0 391C0 382.3 0 373.7 0 365C0 356.3 0 347.7 0 339C0 330.3 0 321.7 0 313C0 304.3 0 295.7 0 287C0 278.3 0 269.7 0 261C0 252.3 0 243.7 0 235C0 226.3 0 217.7 0 209C0 200.3 0 191.7 0 183C0 174.3 0 165.7 0 156.8C0 148 0 139 0 130.2C0 121.3 0 112.7 0 104C0 95.3 0 86.7 0 78C0 69.3 0 60.7 0 52C0 43.3 0 34.7 0 26C0 17.3 0 8.7 0 4.3L0 0Z" fill="#c62368"></path></svg>