<svg id="visual" viewBox="0 0 2700 600" width="2700" height="600" xmlns="http://www.w3.org/2000/svg" xmlns:xlink="http://www.w3.org/1999/xlink" version="1.1"><path d="M0 104L19.5 94.7C39 85.3 78 66.7 117.2 66.5C156.3 66.3 195.7 84.7 234.8 83.7C274 82.7 313 62.3 352.2 48.2C391.3 34 430.7 26 469.8 27.5C509 29 548 40 587 56.5C626 73 665 95 704.2 94.3C743.3 93.7 782.7 70.3 821.8 67.3C861 64.3 900 81.7 939.2 86.8C978.3 92 1017.7 85 1056.8 83.5C1096 82 1135 86 1174 80.5C1213 75 1252 60 1291.2 58.7C1330.3 57.3 1369.7 69.7 1408.8 62.7C1448 55.7 1487 29.3 1526 17.8C1565 6.3 1604 9.7 1643.2 12C1682.3 14.3 1721.7 15.7 1760.8 30.3C1800 45 1839 73 1878.2 79.8C1917.3 86.7 1956.7 72.3 1995.8 62.5C2035 52.7 2074 47.3 2113 54.8C2152 62.3 2191 82.7 2230.2 88C2269.3 93.3 2308.7 83.7 2347.8 85.8C2387 88 2426 102 2465.2 100.3C2504.3 98.7 2543.7 81.3 2582.8 66.7C2622 52 2661 40 2680.5 34L2700 28L2700 0L2680.5 0C2661 0 2622 0 2582.8 0C2543.7 0 2504.3 0 2465.2 0C2426 0 2387 0 2347.8 0C2308.7 0 2269.3 0 2230.2 0C2191 0 2152 0 2113 0C2074 0 2035 0 1995.8 0C1956.7 0 1917.3 0 1878.2 0C1839 0 1800 0 1760.8 0C1721.7 0 1682.3 0 1643.2 0C1604 0 1565 0 1526 0C1487 0 1448 0 1408.8 0C1369.7 0 1330.3 0 1291.2 0C1252 0 1213 0 1174 0C1135 0 1096 0 1056.8 0C1017.7 0 978.3 0 939.2 0C900 0 861 0 821.8 0C782.7 0 743.3 0 704.2 0C665 0 626 0 587 0C548 0 509 0 469.8 0C430.7 0 391.3 0 352.2 0C313 0 274 0 234.8 0C195.7 0 156.3 0 117.2 0C78 0 39 0 19.5 0L0 0Z" fill="#fa7268"></path><path d="M0 103L19.5 94.7C39 86.3 78 69.7 117.2 66C156.3 62.3 195.7 71.7 234.8 64.5C274 57.3 313 33.7 352.2 34.3C391.3 35 430.7 60 469.8 74.3C509 88.7 548 92.3 587 88.8C626 85.3 665 74.7 704.2 65.8C743.3 57 782.7 50 821.8 46.5C861 43 900 43 939.2 38.3C978.3 33.7 1017.7 24.3 1056.8 29.3C1096 34.3 1135 53.7 1174 51.5C1213 49.3 1252 25.7 1291.2 26.8C1330.3 28 1369.7 54 1408.8 62.8C1448 71.7 1487 63.3 1526 54.8C1565 46.3 1604 37.7 1643.2 30C1682.3 22.3 1721.7 15.7 1760.8 16.5C1800 17.3 1839 25.7 1878.2 41.3C1917.3 57 1956.7 80 1995.8 80.7C2035 81.3 2074 59.7 2113 52.7C2152 45.7 2191 53.3 2230.2 61.2C2269.3 69 2308.7 77 2347.8 70C2387 63 2426 41 2465.2 43.2C2504.3 45.3 2543.7 71.7 2582.8 83C2622 94.3 2661 90.7 2680.5 88.8L2700 87L2700 0L2680.5 0C2661 0 2622 0 2582.8 0C2543.7 0 2504.3 0 2465.2 0C2426 0 2387 0 2347.8 0C2308.7 0 2269.3 0 2230.2 0C2191 0 2152 0 2113 0C2074 0 2035 0 1995.8 0C1956.7 0 1917.3 0 1878.2 0C1839 0 1800 0 1760.8 0C1721.7 0 1682.3 0 1643.2 0C1604 0 1565 0 1526 0C1487 0 1448 0 1408.8 0C1369.7 0 1330.3 0 1291.2 0C1252 0 1213 0 1174 0C1135 0 1096 0 1056.8 0C1017.7 0 978.3 0 939.2 0C900 0 861 0 821.8 0C782.7 0 743.3 0 704.2 0C665 0 626 0 587 0C548 0 509 0 469.8 0C430.7 0 391.3 0 352.2 0C313 0 274 0 234.8 0C195.7 0 156.3 0 117.2 0C78 0 39 0 19.5 0L0 0Z" fill="#f66b68"></path><path d="M0 20L19.5 22.3C39 24.7 78 29.3 117.2 35.8C156.3 42.3 195.7 50.7 234.8 46.7C274 42.7 313 26.3 352.2 26.3C391.3 26.3 430.7 42.7 469.8 51.5C509 60.3 548 61.7 587 54.8C626 48 665 33 704.2 22.5C743.3 12 782.7 6 821.8 15.7C861 25.3 900 50.7 939.2 66.8C978.3 83 1017.7 90 1056.8 81.5C1096 73 1135 49 1174 36C1213 23 1252 21 1291.2 20.8C1330.3 20.7 1369.7 22.3 1408.8 21.7C1448 21 1487 18 1526 30.5C1565 43 1604 71 1643.2 73.7C1682.3 76.3 1721.7 53.7 1760.8 53.5C1800 53.3 1839 75.7 1878.2 83.3C1917.3 91 1956.7 84 1995.8 75.3C2035 66.7 2074 56.3 2113 50.3C2152 44.3 2191 42.7 2230.2 36.2C2269.3 29.7 2308.7 18.3 2347.8 15.7C2387 13 2426 19 2465.2 20.3C2504.3 21.7 2543.7 18.3 2582.8 18C2622 17.7 2661 20.3 2680.5 21.7L2700 23L2700 0L2680.5 0C2661 0 2622 0 2582.8 0C2543.7 0 2504.3 0 2465.2 0C2426 0 2387 0 2347.8 0C2308.7 0 2269.3 0 2230.2 0C2191 0 2152 0 2113 0C2074 0 2035 0 1995.8 0C1956.7 0 1917.3 0 1878.2 0C1839 0 1800 0 1760.8 0C1721.7 0 1682.3 0 1643.2 0C1604 0 1565 0 1526 0C1487 0 1448 0 1408.8 0C1369.7 0 1330.3 0 1291.2 0C1252 0 1213 0 1174 0C1135 0 1096 0 1056.8 0C1017.7 0 978.3 0 939.2 0C900 0 861 0 821.8 0C782.7 0 743.3 0 704.2 0C665 0 626 0 587 0C548 0 509 0 469.8 0C430.7 0 391.3 0 352.2 0C313 0 274 0 234.8 0C195.7 0 156.3 0 117.2 0C78 0 39 0 19.5 0L0 0Z" fill="#f26467"></path><path d="M0 68L19.5 63.8C39 59.7 78 51.3 117.2 52.3C156.3 53.3 195.7 63.7 234.8 59.5C274 55.3 313 36.7 352.2 24.5C391.3 12.3 430.7 6.7 469.8 9.7C509 12.7 548 24.3 587 26.5C626 28.7 665 21.3 704.2 26.3C743.3 31.3 782.7 48.7 821.8 61.3C861 74 900 82 939.2 83.8C978.3 85.7 1017.7 81.3 1056.8 77.2C1096 73 1135 69 1174 68.2C1213 67.3 1252 69.7 1291.2 60.7C1330.3 51.7 1369.7 31.3 1408.8 34.2C1448 37 1487 63 1526 66.2C1565 69.3 1604 49.7 1643.2 45.3C1682.3 41 1721.7 52 1760.8 56.8C1800 61.7 1839 60.3 1878.2 51.7C1917.3 43 1956.7 27 1995.8 23.8C2035 20.7 2074 30.3 2113 43.5C2152 56.7 2191 73.3 2230.2 77.7C2269.3 82 2308.7 74 2347.8 72.3C2387 70.7 2426 75.3 2465.2 75.7C2504.3 76 2543.7 72 2582.8 65.2C2622 58.3 2661 48.7 2680.5 43.8L2700 39L2700 0L2680.5 0C2661 0 2622 0 2582.8 0C2543.7 0 2504.3 0 2465.2 0C2426 0 2387 0 2347.8 0C2308.7 0 2269.3 0 2230.2 0C2191 0 2152 0 2113 0C2074 0 2035 0 1995.8 0C1956.7 0 1917.3 0 1878.2 0C1839 0 1800 0 1760.8 0C1721.7 0 1682.3 0 1643.2 0C1604 0 1565 0 1526 0C1487 0 1448 0 1408.8 0C1369.7 0 1330.3 0 1291.2 0C1252 0 1213 0 1174 0C1135 0 1096 0 1056.8 0C1017.7 0 978.3 0 939.2 0C900 0 861 0 821.8 0C782.7 0 743.3 0 704.2 0C665 0 626 0 587 0C548 0 509 0 469.8 0C430.7 0 391.3 0 352.2 0C313 0 274 0 234.8 0C195.7 0 156.3 0 117.2 0C78 0 39 0 19.5 0L0 0Z" fill="#ee5d67"></path><path d="M0 59L19.5 52.7C39 46.3 78 33.7 117.2 24.3C156.3 15 195.7 9 234.8 7.5C274 6 313 9 352.2 21.7C391.3 34.3 430.7 56.7 469.8 62.5C509 68.3 548 57.7 587 54.7C626 51.7 665 56.3 704.2 60C743.3 63.7 782.7 66.3 821.8 62.8C861 59.3 900 49.7 939.2 46.2C978.3 42.7 1017.7 45.3 1056.8 43.3C1096 41.3 1135 34.7 1174 27.8C1213 21 1252 14 1291.2 12.2C1330.3 10.3 1369.7 13.7 1408.8 12.5C1448 11.3 1487 5.7 1526 10.2C1565 14.7 1604 29.3 1643.2 31.7C1682.3 34 1721.7 24 1760.8 23.7C1800 23.3 1839 32.7 1878.2 40C1917.3 47.3 1956.7 52.7 1995.8 48.7C2035 44.7 2074 31.3 2113 34.2C2152 37 2191 56 2230.2 60C2269.3 64 2308.7 53 2347.8 48.5C2387 44 2426 46 2465.2 45.3C2504.3 44.7 2543.7 41.3 2582.8 36.3C2622 31.3 2661 24.7 2680.5 21.3L2700 18L2700 0L2680.5 0C2661 0 2622 0 2582.8 0C2543.7 0 2504.3 0 2465.2 0C2426 0 2387 0 2347.8 0C2308.7 0 2269.3 0 2230.2 0C2191 0 2152 0 2113 0C2074 0 2035 0 1995.8 0C1956.7 0 1917.3 0 1878.2 0C1839 0 1800 0 1760.8 0C1721.7 0 1682.3 0 1643.2 0C1604 0 1565 0 1526 0C1487 0 1448 0 1408.8 0C1369.7 0 1330.3 0 1291.2 0C1252 0 1213 0 1174 0C1135 0 1096 0 1056.8 0C1017.7 0 978.3 0 939.2 0C900 0 861 0 821.8 0C782.7 0 743.3 0 704.2 0C665 0 626 0 587 0C548 0 509 0 469.8 0C430.7 0 391.3 0 352.2 0C313 0 274 0 234.8 0C195.7 0 156.3 0 117.2 0C78 0 39 0 19.5 0L0 0Z" fill="#ea5667"></path><path d="M0 59L19.5 58.7C39 58.3 78 57.7 117.2 57.7C156.3 57.7 195.7 58.3 234.8 59.5C274 60.7 313 62.3 352.2 52.7C391.3 43 430.7 22 469.8 12.3C509 2.7 548 4.3 587 10.2C626 16 665 26 704.2 35.2C743.3 44.3 782.7 52.7 821.8 54.8C861 57 900 53 939.2 45.3C978.3 37.7 1017.7 26.3 1056.8 25.3C1096 24.3 1135 33.7 1174 41.7C1213 49.7 1252 56.3 1291.2 55C1330.3 53.7 1369.7 44.3 1408.8 40C1448 35.7 1487 36.3 1526 35C1565 33.7 1604 30.3 1643.2 31.2C1682.3 32 1721.7 37 1760.8 42.8C1800 48.7 1839 55.3 1878.2 50.7C1917.3 46 1956.7 30 1995.8 29.8C2035 29.7 2074 45.3 2113 55C2152 64.7 2191 68.3 2230.2 64.3C2269.3 60.3 2308.7 48.7 2347.8 37.2C2387 25.7 2426 14.3 2465.2 12.5C2504.3 10.7 2543.7 18.3 2582.8 28.8C2622 39.3 2661 52.7 2680.5 59.3L2700 66L2700 0L2680.5 0C2661 0 2622 0 2582.8 0C2543.7 0 2504.3 0 2465.2 0C2426 0 2387 0 2347.8 0C2308.7 0 2269.3 0 2230.2 0C2191 0 2152 0 2113 0C2074 0 2035 0 1995.8 0C1956.7 0 1917.3 0 1878.2 0C1839 0 1800 0 1760.8 0C1721.7 0 1682.3 0 1643.2 0C1604 0 1565 0 1526 0C1487 0 1448 0 1408.8 0C1369.7 0 1330.3 0 1291.2 0C1252 0 1213 0 1174 0C1135 0 1096 0 1056.8 0C1017.7 0 978.3 0 939.2 0C900 0 861 0 821.8 0C782.7 0 743.3 0 704.2 0C665 0 626 0 587 0C548 0 509 0 469.8 0C430.7 0 391.3 0 352.2 0C313 0 274 0 234.8 0C195.7 0 156.3 0 117.2 0C78 0 39 0 19.5 0L0 0Z" fill="#e54f67"></path><path d="M0 42L19.5 44.5C39 47 78 52 117.2 49.7C156.3 47.3 195.7 37.7 234.8 37C274 36.3 313 44.7 352.2 44.3C391.3 44 430.7 35 469.8 33.8C509 32.7 548 39.3 587 40.8C626 42.3 665 38.7 704.2 31.5C743.3 24.3 782.7 13.7 821.8 10C861 6.3 900 9.7 939.2 11.8C978.3 14 1017.7 15 1056.8 14.7C1096 14.3 1135 12.7 1174 11.7C1213 10.7 1252 10.3 1291.2 15.5C1330.3 20.7 1369.7 31.3 1408.8 34C1448 36.7 1487 31.3 1526 28.3C1565 25.3 1604 24.7 1643.2 30.3C1682.3 36 1721.7 48 1760.8 49.2C1800 50.3 1839 40.7 1878.2 33.3C1917.3 26 1956.7 21 1995.8 18C2035 15 2074 14 2113 11.3C2152 8.7 2191 4.3 2230.2 11.5C2269.3 18.7 2308.7 37.3 2347.8 42.3C2387 47.3 2426 38.7 2465.2 33.2C2504.3 27.7 2543.7 25.3 2582.8 23.2C2622 21 2661 19 2680.5 18L2700 17L2700 0L2680.5 0C2661 0 2622 0 2582.8 0C2543.7 0 2504.3 0 2465.2 0C2426 0 2387 0 2347.8 0C2308.7 0 2269.3 0 2230.2 0C2191 0 2152 0 2113 0C2074 0 2035 0 1995.8 0C1956.7 0 1917.3 0 1878.2 0C1839 0 1800 0 1760.8 0C1721.7 0 1682.3 0 1643.2 0C1604 0 1565 0 1526 0C1487 0 1448 0 1408.8 0C1369.7 0 1330.3 0 1291.2 0C1252 0 1213 0 1174 0C1135 0 1096 0 1056.8 0C1017.7 0 978.3 0 939.2 0C900 0 861 0 821.8 0C782.7 0 743.3 0 704.2 0C665 0 626 0 587 0C548 0 509 0 469.8 0C430.7 0 391.3 0 352.2 0C313 0 274 0 234.8 0C195.7 0 156.3 0 117.2 0C78 0 39 0 19.5 0L0 0Z" fill="#e14867"></path><path d="M0 42L19.5 40.7C39 39.3 78 36.7 117.2 37.7C156.3 38.7 195.7 43.3 234.8 39C274 34.7 313 21.3 352.2 20.3C391.3 19.3 430.7 30.7 469.8 37.8C509 45 548 48 587 43.7C626 39.3 665 27.7 704.2 22.7C743.3 17.7 782.7 19.3 821.8 19.5C861 19.7 900 18.3 939.2 23C978.3 27.7 1017.7 38.3 1056.8 44.5C1096 50.7 1135 52.3 1174 45.3C1213 38.3 1252 22.7 1291.2 13.8C1330.3 5 1369.7 3 1408.8 4.8C1448 6.7 1487 12.3 1526 12.2C1565 12 1604 6 1643.2 4C1682.3 2 1721.7 4 1760.8 5.7C1800 7.3 1839 8.7 1878.2 16C1917.3 23.3 1956.7 36.7 1995.8 35C2035 33.3 2074 16.7 2113 16.8C2152 17 2191 34 2230.2 39C2269.3 44 2308.7 37 2347.8 34.5C2387 32 2426 34 2465.2 37.7C2504.3 41.3 2543.7 46.7 2582.8 45.2C2622 43.7 2661 35.3 2680.5 31.2L2700 27L2700 0L2680.5 0C2661 0 2622 0 2582.8 0C2543.7 0 2504.3 0 2465.2 0C2426 0 2387 0 2347.8 0C2308.7 0 2269.3 0 2230.2 0C2191 0 2152 0 2113 0C2074 0 2035 0 1995.8 0C1956.7 0 1917.3 0 1878.2 0C1839 0 1800 0 1760.8 0C1721.7 0 1682.3 0 1643.2 0C1604 0 1565 0 1526 0C1487 0 1448 0 1408.8 0C1369.7 0 1330.3 0 1291.2 0C1252 0 1213 0 1174 0C1135 0 1096 0 1056.8 0C1017.7 0 978.3 0 939.2 0C900 0 861 0 821.8 0C782.7 0 743.3 0 704.2 0C665 0 626 0 587 0C548 0 509 0 469.8 0C430.7 0 391.3 0 352.2 0C313 0 274 0 234.8 0C195.7 0 156.3 0 117.2 0C78 0 39 0 19.5 0L0 0Z" fill="#dc4167"></path><path d="M0 21L19.5 20.8C39 20.7 78 20.3 117.2 18.2C156.3 16 195.7 12 234.8 12.5C274 13 313 18 352.2 24C391.3 30 430.7 37 469.8 34.3C509 31.7 548 19.3 587 17.2C626 15 665 23 704.2 29C743.3 35 782.7 39 821.8 35.8C861 32.7 900 22.3 939.2 19.2C978.3 16 1017.7 20 1056.8 23.7C1096 27.3 1135 30.7 1174 31.5C1213 32.3 1252 30.7 1291.2 25.2C1330.3 19.7 1369.7 10.3 1408.8 11.3C1448 12.3 1487 23.7 1526 23.8C1565 24 1604 13 1643.2 11.5C1682.3 10 1721.7 18 1760.8 25.2C1800 32.3 1839 38.7 1878.2 41.7C1917.3 44.7 1956.7 44.3 1995.8 40.8C2035 37.3 2074 30.7 2113 27.2C2152 23.7 2191 23.3 2230.2 19.5C2269.3 15.7 2308.7 8.3 2347.8 5C2387 1.7 2426 2.3 2465.2 8.3C2504.3 14.3 2543.7 25.7 2582.8 28.5C2622 31.3 2661 25.7 2680.5 22.8L2700 20L2700 0L2680.5 0C2661 0 2622 0 2582.8 0C2543.7 0 2504.3 0 2465.2 0C2426 0 2387 0 2347.8 0C2308.7 0 2269.3 0 2230.2 0C2191 0 2152 0 2113 0C2074 0 2035 0 1995.8 0C1956.7 0 1917.3 0 1878.2 0C1839 0 1800 0 1760.8 0C1721.7 0 1682.3 0 1643.2 0C1604 0 1565 0 1526 0C1487 0 1448 0 1408.8 0C1369.7 0 1330.3 0 1291.2 0C1252 0 1213 0 1174 0C1135 0 1096 0 1056.8 0C1017.7 0 978.3 0 939.2 0C900 0 861 0 821.8 0C782.7 0 743.3 0 704.2 0C665 0 626 0 587 0C548 0 509 0 469.8 0C430.7 0 391.3 0 352.2 0C313 0 274 0 234.8 0C195.7 0 156.3 0 117.2 0C78 0 39 0 19.5 0L0 0Z" fill="#d73a67"></path><path d="M0 3L19.5 8.2C39 13.3 78 23.7 117.2 29C156.3 34.3 195.7 34.7 234.8 32.5C274 30.3 313 25.7 352.2 20C391.3 14.3 430.7 7.7 469.8 6.3C509 5 548 9 587 10C626 11 665 9 704.2 8C743.3 7 782.7 7 821.8 10.8C861 14.7 900 22.3 939.2 25C978.3 27.7 1017.7 25.3 1056.8 23C1096 20.7 1135 18.3 1174 14.7C1213 11 1252 6 1291.2 5.2C1330.3 4.3 1369.7 7.7 1408.8 11.3C1448 15 1487 19 1526 17.5C1565 16 1604 9 1643.2 6.8C1682.3 4.7 1721.7 7.3 1760.8 11.5C1800 15.7 1839 21.3 1878.2 25.7C1917.3 30 1956.7 33 1995.8 28.5C2035 24 2074 12 2113 9.5C2152 7 2191 14 2230.2 17.3C2269.3 20.7 2308.7 20.3 2347.8 18C2387 15.7 2426 11.3 2465.2 13C2504.3 14.7 2543.7 22.3 2582.8 24.7C2622 27 2661 24 2680.5 22.5L2700 21L2700 0L2680.5 0C2661 0 2622 0 2582.8 0C2543.7 0 2504.3 0 2465.2 0C2426 0 2387 0 2347.8 0C2308.7 0 2269.3 0 2230.2 0C2191 0 2152 0 2113 0C2074 0 2035 0 1995.8 0C1956.7 0 1917.3 0 1878.2 0C1839 0 1800 0 1760.8 0C1721.7 0 1682.3 0 1643.2 0C1604 0 1565 0 1526 0C1487 0 1448 0 1408.8 0C1369.7 0 1330.3 0 1291.2 0C1252 0 1213 0 1174 0C1135 0 1096 0 1056.8 0C1017.7 0 978.3 0 939.2 0C900 0 861 0 821.8 0C782.7 0 743.3 0 704.2 0C665 0 626 0 587 0C548 0 509 0 469.8 0C430.7 0 391.3 0 352.2 0C313 0 274 0 234.8 0C195.7 0 156.3 0 117.2 0C78 0 39 0 19.5 0L0 0Z" fill="#d13367"></path><path d="M0 7L19.5 7.5C39 8 78 9 117.2 9.2C156.3 9.3 195.7 8.7 234.8 11C274 13.3 313 18.7 352.2 19.2C391.3 19.7 430.7 15.3 469.8 15.7C509 16 548 21 587 20.8C626 20.7 665 15.3 704.2 14.2C743.3 13 782.7 16 821.8 16.8C861 17.7 900 16.3 939.2 17.2C978.3 18 1017.7 21 1056.8 21C1096 21 1135 18 1174 16.5C1213 15 1252 15 1291.2 16.3C1330.3 17.7 1369.7 20.3 1408.8 20.7C1448 21 1487 19 1526 19.2C1565 19.3 1604 21.7 1643.2 21.7C1682.3 21.7 1721.7 19.3 1760.8 15.5C1800 11.7 1839 6.3 1878.2 5.5C1917.3 4.7 1956.7 8.3 1995.8 12.2C2035 16 2074 20 2113 18C2152 16 2191 8 2230.2 6.8C2269.3 5.7 2308.7 11.3 2347.8 13C2387 14.7 2426 12.3 2465.2 9.7C2504.3 7 2543.7 4 2582.8 5.8C2622 7.7 2661 14.3 2680.5 17.7L2700 21L2700 0L2680.5 0C2661 0 2622 0 2582.8 0C2543.7 0 2504.3 0 2465.2 0C2426 0 2387 0 2347.8 0C2308.7 0 2269.3 0 2230.2 0C2191 0 2152 0 2113 0C2074 0 2035 0 1995.8 0C1956.7 0 1917.3 0 1878.2 0C1839 0 1800 0 1760.8 0C1721.7 0 1682.3 0 1643.2 0C1604 0 1565 0 1526 0C1487 0 1448 0 1408.8 0C1369.7 0 1330.3 0 1291.2 0C1252 0 1213 0 1174 0C1135 0 1096 0 1056.8 0C1017.7 0 978.3 0 939.2 0C900 0 861 0 821.8 0C782.7 0 743.3 0 704.2 0C665 0 626 0 587 0C548 0 509 0 469.8 0C430.7 0 391.3 0 352.2 0C313 0 274 0 234.8 0C195.7 0 156.3 0 117.2 0C78 0 39 0 19.5 0L0 0Z" fill="#cc2b68"></path><path d="M0 9L19.5 9.7C39 10.3 78 11.7 117.2 12.5C156.3 13.3 195.7 13.7 234.8 12.3C274 11 313 8 352.2 8.5C391.3 9 430.7 13 469.8 12.8C509 12.7 548 8.3 587 8.3C626 8.3 665 12.7 704.2 14.2C743.3 15.7 782.7 14.3 821.8 12C861 9.7 900 6.3 939.2 6.5C978.3 6.7 1017.7 10.3 1056.8 10.5C1096 10.7 1135 7.3 1174 5.8C1213 4.3 1252 4.7 1291.2 5.5C1330.3 6.3 1369.7 7.7 1408.8 7C1448 6.3 1487 3.7 1526 2.8C1565 2 1604 3 1643.2 3.2C1682.3 3.3 1721.7 2.7 1760.8 4.8C1800 7 1839 12 1878.2 14.2C1917.3 16.3 1956.7 15.7 1995.8 15.2C2035 14.7 2074 14.3 2113 12.8C2152 11.3 2191 8.7 2230.2 7C2269.3 5.3 2308.7 4.7 2347.8 5.5C2387 6.3 2426 8.7 2465.2 8.8C2504.3 9 2543.7 7 2582.8 5.2C2622 3.3 2661 1.7 2680.5 0.8L2700 0L2700 0L2680.5 0C2661 0 2622 0 2582.8 0C2543.7 0 2504.3 0 2465.2 0C2426 0 2387 0 2347.8 0C2308.7 0 2269.3 0 2230.2 0C2191 0 2152 0 2113 0C2074 0 2035 0 1995.8 0C1956.7 0 1917.3 0 1878.2 0C1839 0 1800 0 1760.8 0C1721.7 0 1682.3 0 1643.2 0C1604 0 1565 0 1526 0C1487 0 1448 0 1408.8 0C1369.7 0 1330.3 0 1291.2 0C1252 0 1213 0 1174 0C1135 0 1096 0 1056.8 0C1017.7 0 978.3 0 939.2 0C900 0 861 0 821.8 0C782.7 0 743.3 0 704.2 0C665 0 626 0 587 0C548 0 509 0 469.8 0C430.7 0 391.3 0 352.2 0C313 0 274 0 234.8 0C195.7 0 156.3 0 117.2 0C78 0 39 0 19.5 0L0 0Z" fill="#c62368"></path></svg>